<svg width="48" height="38" viewBox="0 0 48 38" fill="none" xmlns="http://www.w3.org/2000/svg">
<path d="M14.8763 15.7316C14.8013 15.873 14.7014 16.0101 14.5765 16.143C14.459 16.2619 14.3529 16.3595 14.258 16.4359C14.2072 16.4633 13.9942 16.5404 13.6189 16.6673C13.2653 16.7875 12.8405 16.8881 12.3447 16.9691C11.863 17.0576 11.343 17.0986 10.7849 17.0922C10.2484 17.0791 9.78231 16.9676 9.3866 16.7575C9.14635 16.63 8.92153 16.4563 8.71216 16.2365C8.51691 16.0242 8.36206 15.7699 8.24759 15.4737C8.14062 15.1633 8.09149 14.8293 8.1002 14.4716C8.12304 14.1214 8.24323 13.7414 8.46077 13.3316C8.82085 12.6532 9.26022 12.0985 9.7789 11.6673C10.2976 11.2362 10.7562 10.9181 11.1549 10.7131C11.3363 10.6101 11.5461 10.5222 11.784 10.4493C12.0436 10.3697 12.2849 10.3076 12.5079 10.2629C12.7384 10.2041 12.9397 10.166 13.1119 10.1487C13.2982 10.139 13.4197 10.1491 13.4762 10.1791C13.6034 10.2466 13.6977 10.3419 13.7591 10.4651C13.8347 10.5958 13.8537 10.6965 13.8162 10.7671C13.7562 10.8802 13.6683 10.9604 13.5527 11.0076C13.4586 11.0483 13.3288 11.0881 13.1633 11.127C13.0052 11.1518 12.8072 11.2006 12.5692 11.2736C12.3387 11.3324 12.0749 11.4369 11.7778 11.5871C11.1911 11.8735 10.6816 12.219 10.2495 12.6236C9.83899 13.0216 9.53621 13.4043 9.34117 13.7717C9.14613 14.1392 9.12286 14.5072 9.27135 14.8759C9.44148 15.2379 9.67494 15.4977 9.97172 15.6552C10.5088 15.9403 11.046 16.0714 11.5833 16.0487C12.1348 16.0335 12.6377 15.9563 13.092 15.817C13.5464 15.6778 13.9291 15.5368 14.2404 15.3941C14.5516 15.2513 14.7497 15.2025 14.8345 15.2475C14.9899 15.33 15.0039 15.4914 14.8763 15.7316ZM17.6736 21.3736C17.6135 21.4867 17.5261 21.549 17.4113 21.5605C17.2965 21.572 17.1826 21.5478 17.0695 21.4877C16.9424 21.4202 16.8719 21.2288 16.8581 20.9136C16.8584 20.6058 16.8925 20.2344 16.9603 19.7995C17.0282 19.3645 17.1181 18.9051 17.2301 18.4211C17.3496 17.923 17.4644 17.4677 17.5747 17.0552C17.6924 16.6286 17.7905 16.2731 17.869 15.9887C17.9617 15.7119 18.0155 15.5593 18.0305 15.531C18.0605 15.4745 18.111 15.3111 18.182 15.0408C18.2671 14.7781 18.4023 14.3698 18.5876 13.816C18.787 13.2698 19.051 12.5676 19.3797 11.7095C19.7299 10.8448 20.1744 9.78559 20.7131 8.53182C20.7807 8.40463 20.8881 8.25336 21.0355 8.078C21.183 7.90265 21.3344 7.85624 21.4899 7.93875C21.6877 8.04378 21.7648 8.2568 21.7212 8.57783C21.6918 8.90636 21.6003 9.28348 21.4468 9.7092C21.3074 10.1424 21.1356 10.5856 20.9313 11.0387C20.7345 11.4777 20.571 11.8709 20.4409 12.2185C20.2574 12.7007 20.0893 13.1368 19.9367 13.5268C19.7981 13.9242 19.6526 14.3179 19.4999 14.7079C19.3689 15.0912 19.2337 15.4995 19.0943 15.9327C18.9691 16.3734 18.8355 16.864 18.6935 17.4045L17.6736 21.3736ZM25.4262 13.7778C25.4112 13.8061 25.3317 13.8364 25.1878 13.8686C25.0438 13.9009 24.875 13.929 24.6811 13.9529C24.5089 13.9702 24.3334 13.9767 24.1546 13.9723C23.9757 13.968 23.8439 13.9433 23.7591 13.8983C23.7026 13.8683 23.6249 13.827 23.5259 13.7745C23.4487 13.7154 23.3718 13.6383 23.2954 13.5434C23.2331 13.456 23.1854 13.3582 23.1522 13.2501C23.1265 13.1278 23.1475 13.003 23.215 12.8758C23.32 12.678 23.4882 12.5318 23.7195 12.4372C23.9584 12.3285 24.1909 12.3341 24.417 12.4542C24.4594 12.4767 24.54 12.5466 24.6588 12.664C24.7993 12.7748 24.9322 12.8997 25.0577 13.0388C25.1831 13.1778 25.2836 13.3127 25.3592 13.4434C25.4489 13.5815 25.4712 13.693 25.4262 13.7778ZM21.9174 22.0775C21.8649 22.1764 21.7422 22.2199 21.5492 22.2081C21.3704 22.2037 21.2456 22.1828 21.1749 22.1453C21.0336 22.0703 20.9552 21.9109 20.9396 21.6672C20.9241 21.4234 20.9377 21.1589 20.9804 20.8737C21.0232 20.5884 21.0725 20.3248 21.1285 20.0828C21.192 19.8267 21.2321 19.6487 21.2489 19.5489C21.2815 19.3851 21.315 19.1855 21.3493 18.9501C21.3837 18.7148 21.4143 18.4865 21.4412 18.2652C21.4822 18.0515 21.519 17.8627 21.5516 17.6989C21.5842 17.5351 21.6043 17.4461 21.6118 17.4319C21.7168 17.2341 21.8496 17.0691 22.0103 16.937C22.1851 16.8125 22.3291 16.7802 22.4421 16.8402C22.5693 16.9077 22.6511 17.0779 22.6874 17.3508C22.7237 17.6236 22.7229 17.9493 22.6851 18.3277C22.6688 18.6995 22.6198 19.0991 22.5378 19.5266C22.4633 19.9399 22.3822 20.3316 22.2944 20.7017C22.2142 21.0576 22.1315 21.3669 22.0464 21.6297C21.9829 21.8858 21.9399 22.0351 21.9174 22.0775ZM30.4442 23.995C30.3692 24.1363 30.2692 24.2735 30.1443 24.4064C30.0269 24.5252 29.9207 24.6229 29.8258 24.6993C29.775 24.7267 29.562 24.8038 29.1867 24.9307C28.8331 25.0509 28.4083 25.1515 27.9125 25.2325C27.4308 25.321 26.9109 25.362 26.3527 25.3556C25.8162 25.3425 25.3501 25.231 24.9544 25.0209C24.7142 24.8934 24.4894 24.7197 24.28 24.4999C24.0847 24.2876 23.9299 24.0333 23.8154 23.737C23.7084 23.4267 23.6593 23.0926 23.668 22.735C23.6909 22.3848 23.811 22.0048 24.0286 21.595C24.3887 20.9166 24.828 20.3619 25.3467 19.9307C25.8654 19.4996 26.3241 19.1815 26.7227 18.9765C26.9042 18.8735 27.1139 18.7856 27.3518 18.7126C27.6115 18.6331 27.8527 18.5709 28.0757 18.5263C28.3062 18.4675 28.5075 18.4294 28.6797 18.4121C28.8661 18.4024 28.9875 18.4125 29.044 18.4425C29.1712 18.51 29.2655 18.6053 29.3269 18.7285C29.4025 18.8592 29.4215 18.9598 29.384 19.0305C29.324 19.1436 29.2362 19.2237 29.1205 19.271C29.0264 19.3117 28.8966 19.3515 28.7311 19.3904C28.573 19.4152 28.375 19.464 28.137 19.537C27.9065 19.5958 27.6427 19.7003 27.3456 19.8505C26.7589 20.1369 26.2495 20.4823 25.8173 20.887C25.4068 21.285 25.104 21.6677 24.909 22.0351C24.714 22.4026 24.6907 22.7706 24.8392 23.1393C25.0093 23.5013 25.2428 23.7611 25.5395 23.9186C26.0766 24.2036 26.6138 24.3348 27.1511 24.3121C27.7026 24.2969 28.2056 24.2197 28.6599 24.0804C29.1142 23.9412 29.497 23.8002 29.8082 23.6574C30.1195 23.5147 30.3175 23.4659 30.4023 23.5109C30.5577 23.5934 30.5717 23.7548 30.4442 23.995ZM38.8252 30.4815C38.7652 30.5946 38.706 30.6719 38.6478 30.7134C38.597 30.7408 38.5076 30.7386 38.3795 30.7069C38.2298 30.6817 38.041 30.6449 37.8132 30.5964C37.6069 30.5413 37.3758 30.482 37.1196 30.4185C36.871 30.3409 36.6153 30.2595 36.3526 30.1744C36.1114 30.0826 35.892 29.9842 35.6941 29.8792C35.4538 29.7517 35.1928 29.595 34.9111 29.4092C34.6434 29.2309 34.3903 29.0423 34.1518 28.8432C33.9208 28.63 33.711 28.4281 33.5224 28.2374C33.3554 28.0401 33.2525 27.8586 33.2135 27.6931C33.1267 28.0273 33.0327 28.3579 32.9317 28.6847C32.8307 29.0115 32.7156 29.3307 32.5863 29.6425C32.5488 29.7132 32.4939 29.7655 32.4215 29.7996C32.3707 29.827 32.2676 29.7994 32.1121 29.7169C32.0415 29.6794 31.9783 29.6277 31.9226 29.562C31.8886 29.4896 31.8804 29.3856 31.898 29.25C31.9209 28.8998 31.9536 28.5821 31.9964 28.2969C32.0466 27.9975 32.1039 27.7018 32.1683 27.4099C32.2468 27.1255 32.3257 26.8233 32.4051 26.5031C32.4844 26.183 32.5647 25.827 32.6458 25.4353C32.7829 24.8017 32.9317 24.1289 33.0922 23.417C33.2601 22.6911 33.4235 22.0079 33.5822 21.3676C33.7485 20.7132 33.9055 20.1444 34.0532 19.6613C34.2085 19.164 34.3348 18.8235 34.4324 18.6398C34.4774 18.555 34.5374 18.4419 34.6124 18.3006C34.7016 18.1668 34.794 18.0438 34.8898 17.9316C35.0072 17.8128 35.1167 17.726 35.2182 17.6712C35.3414 17.6098 35.4595 17.6091 35.5726 17.6691C35.6432 17.7066 35.6539 17.8572 35.6045 18.1208C35.5768 18.3778 35.5199 18.6555 35.4339 18.9541C35.3696 19.246 35.2948 19.5233 35.2097 19.786C35.1462 20.0422 35.1107 20.1773 35.1032 20.1914C34.9947 20.5323 34.8745 20.9123 34.7426 21.3314C34.6324 21.7439 34.5184 22.1634 34.4006 22.59C34.2829 23.0166 34.1797 23.4328 34.0911 23.8386C34.01 24.2303 33.9622 24.5763 33.9477 24.8765C34.0369 24.7427 34.1951 24.564 34.4225 24.3405C34.6498 24.117 34.9166 23.8873 35.223 23.6514C35.5293 23.4155 35.8536 23.1801 36.1957 22.945C36.5595 22.7034 36.9045 22.497 37.2307 22.326C37.5711 22.1626 37.8782 22.0448 38.1519 21.9727C38.4398 21.9081 38.6685 21.9209 38.8381 22.0109C39.1066 22.1534 39.2716 22.2863 39.333 22.4094C39.4086 22.5401 39.4201 22.6549 39.3676 22.7538C39.3226 22.8386 39.1124 22.9444 38.7371 23.0713C38.3694 23.184 37.9283 23.3666 37.414 23.6189C36.9071 23.857 36.3873 24.188 35.8545 24.6116C35.3292 25.0211 34.8903 25.558 34.5377 26.2222C34.4102 26.4624 34.3612 26.7082 34.3909 26.9594C34.4422 27.204 34.5439 27.4391 34.6958 27.6647C34.8619 27.8978 35.0605 28.1209 35.2915 28.3341C35.5442 28.5407 35.8047 28.7152 36.0733 28.8578C36.3135 28.9853 36.5787 29.117 36.8689 29.2529C37.159 29.3888 37.428 29.5134 37.6757 29.6268C37.9451 29.7336 38.1683 29.8249 38.3454 29.9008C38.5367 29.9842 38.6535 30.0371 38.6959 30.0596C38.7665 30.0971 38.8189 30.1521 38.8529 30.2245C38.8869 30.2969 38.8777 30.3826 38.8252 30.4815Z" fill="black"/>
<path d="M4.16213 8.85092C3.05977 8.04036 2.35386 7.79688 1 7.79688" stroke="black" stroke-linecap="round" stroke-linejoin="round"/>
<path d="M10.486 6.47983C10.3861 5.96775 9.60889 4.15152 10.2225 3.84473" stroke="black" stroke-linecap="round" stroke-linejoin="round"/>
<path d="M19.9727 5.16213C19.9727 4.01014 20.2362 3.03202 20.2362 2" stroke="black" stroke-linecap="round" stroke-linejoin="round"/>
<path d="M28.6685 8.85125C29.6019 8.18452 31.3682 6.74316 32.6211 6.74316" stroke="black" stroke-linecap="round" stroke-linejoin="round"/>
<path d="M35.9735 13.6712C36.6211 12.7122 37.3115 12.0868 38.1764 11.8305" stroke="black" stroke-linecap="round" stroke-linejoin="round"/>
<path d="M41.6498 19.7088C42.4123 19.1861 43.0457 18.6653 43.6854 18.0148" stroke="black" stroke-linecap="round" stroke-linejoin="round"/>
<path d="M42.6343 26.7705C43.2509 26.7705 45.201 26.6336 45.5329 27.2975" stroke="black" stroke-linecap="round" stroke-linejoin="round"/>
<path d="M39.9995 33.8848C40.3507 34.7318 40.9376 36.5199 42.1076 36.5199" stroke="black" stroke-linecap="round" stroke-linejoin="round"/>
<path d="M30.5129 33.3574C29.7072 34.411 28.9575 35.4141 28.4048 36.5196" stroke="black" stroke-linecap="round" stroke-linejoin="round"/>
<path d="M22.6079 29.6689C22.6079 30.8108 22.6079 31.9527 22.6079 33.0946" stroke="black" stroke-linecap="round" stroke-linejoin="round"/>
<path d="M19.7088 27.0332C18.6549 27.4702 17.9795 28.1614 17.0737 28.6143" stroke="black" stroke-linecap="round" stroke-linejoin="round"/>
<path d="M9.6499 20.8301C9.022 21.3424 7.99221 22.2139 7.6499 22.8301" stroke="black" stroke-linecap="round" stroke-linejoin="round"/>
<path d="M4.42531 17.8105C3.43247 18.0285 1.26318 18.2726 1.26318 19.6551" stroke="black" stroke-linecap="round" stroke-linejoin="round"/>
</svg>
