<svg width="73" height="66" viewBox="0 0 73 66" fill="none" xmlns="http://www.w3.org/2000/svg">
<path d="M8.24867 54.6298C6.74919 56.7492 4.40402 58.9722 3.30963 61.7353C3.07469 62.3285 6.35829 63.3762 6.95022 63.724C8.79508 64.8077 10.0103 64.7607 11.9474 64.6041C12.8893 64.528 9.53159 63.0995 9.67477 61.6488C9.83713 60.0037 21.4276 53.7156 22.3011 52.923C26.8318 48.8118 31.2964 44.9431 35.5494 40.1516C38.0206 37.3676 41.7954 34.6442 42.8634 30.0004" stroke="black" stroke-linecap="round" stroke-linejoin="round"/>
<path d="M15.448 12.504C15.448 12.728 15.384 12.96 15.256 13.2C15.144 13.44 15 13.68 14.824 13.92C14.648 14.16 14.456 14.392 14.248 14.616C14.04 14.824 13.848 15.008 13.672 15.168C13.24 15.552 12.792 15.92 12.328 16.272C11.88 16.608 11.408 16.912 10.912 17.184C10.432 17.456 9.928 17.672 9.4 17.832C8.872 17.992 8.32 18.072 7.744 18.072C6 18.072 5.128 17.176 5.128 15.384C5.128 15.208 5.2 14.864 5.344 14.352C5.488 13.84 5.672 13.256 5.896 12.6C6.12 11.944 6.384 11.256 6.688 10.536C6.992 9.816 7.304 9.16 7.624 8.568C7.944 7.96 8.256 7.464 8.56 7.08C8.88 6.696 9.176 6.504 9.448 6.504C9.624 6.504 9.752 6.56 9.832 6.672C9.928 6.784 9.976 6.904 9.976 7.032C9.96 7.128 9.848 7.336 9.64 7.656C9.432 7.96 9.216 8.272 8.992 8.592C8.96 8.64 8.904 8.72 8.824 8.832C8.744 8.944 8.664 9.056 8.584 9.168C8.488 9.296 8.392 9.432 8.296 9.576C8.232 9.688 8.088 9.976 7.864 10.44C7.656 10.888 7.432 11.416 7.192 12.024C6.952 12.616 6.736 13.24 6.544 13.896C6.352 14.536 6.256 15.096 6.256 15.576C6.256 15.848 6.312 16.064 6.424 16.224C6.552 16.384 6.696 16.504 6.856 16.584C7.032 16.664 7.208 16.72 7.384 16.752C7.576 16.768 7.744 16.776 7.888 16.776C8.48 16.776 9.104 16.648 9.76 16.392C10.432 16.12 11.072 15.768 11.68 15.336C12.288 14.904 12.848 14.408 13.36 13.848C13.872 13.272 14.272 12.68 14.56 12.072C14.624 11.96 14.688 11.888 14.752 11.856C14.832 11.824 14.904 11.808 14.968 11.808C15.096 11.808 15.208 11.896 15.304 12.072C15.4 12.248 15.448 12.392 15.448 12.504ZM21.7951 12.816C21.7951 13.168 21.7471 13.504 21.6511 13.824C21.5551 14.144 21.4271 14.424 21.2671 14.664C21.1071 14.904 20.9151 15.096 20.6911 15.24C20.4831 15.368 20.2511 15.432 19.9951 15.432C19.5471 15.432 19.1951 15.304 18.9391 15.048C18.6831 14.792 18.4831 14.496 18.3391 14.16C18.2111 13.824 18.1231 13.488 18.0751 13.152C18.0431 12.8 18.0271 12.536 18.0271 12.36C18.0271 12.072 18.0671 11.752 18.1471 11.4C18.2431 11.032 18.3631 10.696 18.5071 10.392C18.6671 10.088 18.8431 9.832 19.0351 9.624C19.2271 9.416 19.4271 9.312 19.6351 9.312C19.6831 9.312 19.7551 9.328 19.8511 9.36C19.9631 9.392 20.0751 9.44 20.1871 9.504C20.2991 9.568 20.3951 9.648 20.4751 9.744C20.5711 9.84 20.6351 9.952 20.6671 10.08C20.8431 10.096 21.0191 10.16 21.1951 10.272C21.3711 10.384 21.4671 10.472 21.4831 10.536C21.6111 10.952 21.6911 11.368 21.7231 11.784C21.7711 12.2 21.7951 12.544 21.7951 12.816ZM20.7151 12.384C20.7151 12.144 20.6911 11.896 20.6431 11.64C20.5951 11.368 20.4991 11.096 20.3551 10.824C20.3231 10.84 20.2831 10.848 20.2351 10.848C20.1711 10.848 20.1151 10.84 20.0671 10.824C20.0351 10.808 20.0031 10.8 19.9711 10.8C19.7791 10.8 19.6271 10.856 19.5151 10.968C19.4031 11.064 19.3151 11.2 19.2511 11.376C19.2031 11.536 19.1711 11.712 19.1551 11.904C19.1391 12.096 19.1311 12.28 19.1311 12.456C19.1311 12.632 19.1391 12.832 19.1551 13.056C19.1711 13.264 19.2031 13.464 19.2511 13.656C19.3151 13.848 19.3951 14.016 19.4911 14.16C19.5871 14.288 19.7151 14.352 19.8751 14.352C20.0351 14.352 20.1711 14.272 20.2831 14.112C20.3951 13.936 20.4831 13.736 20.5471 13.512C20.6111 13.288 20.6511 13.072 20.6671 12.864C20.6991 12.64 20.7151 12.48 20.7151 12.384ZM32.1216 14.016C32.1216 14.16 32.0256 14.312 31.8336 14.472C31.6416 14.632 31.4176 14.784 31.1616 14.928C30.9056 15.056 30.6416 15.168 30.3696 15.264C30.1136 15.36 29.9216 15.408 29.7936 15.408C29.6496 15.408 29.4896 15.368 29.3136 15.288C29.1536 15.208 28.9936 15.112 28.8336 15C28.6896 14.888 28.5616 14.784 28.4496 14.688C28.3376 14.592 28.2656 14.528 28.2336 14.496C28.1856 14.544 28.1136 14.64 28.0176 14.784C27.9216 14.928 27.8016 15.088 27.6576 15.264C27.5296 15.424 27.3856 15.568 27.2256 15.696C27.0816 15.824 26.9296 15.888 26.7696 15.888C26.3536 15.888 25.9936 15.664 25.6896 15.216C25.3856 14.768 25.1296 14.256 24.9216 13.68C24.7296 13.104 24.5776 12.552 24.4656 12.024C24.3696 11.48 24.3216 11.112 24.3216 10.92C24.3216 10.808 24.3776 10.72 24.4896 10.656C24.6176 10.576 24.7136 10.536 24.7776 10.536C25.0016 10.536 25.1536 10.616 25.2336 10.776C25.3136 10.92 25.3536 11.08 25.3536 11.256C25.3536 11.4 25.3936 11.656 25.4736 12.024C25.5696 12.392 25.6816 12.768 25.8096 13.152C25.9376 13.536 26.0736 13.88 26.2176 14.184C26.3616 14.472 26.4896 14.616 26.6016 14.616C26.8096 14.616 26.9856 14.488 27.1296 14.232C27.2896 13.96 27.4176 13.656 27.5136 13.32C27.6096 12.968 27.6816 12.64 27.7296 12.336C27.7776 12.016 27.8016 11.808 27.8016 11.712C27.8016 11.696 27.8016 11.648 27.8016 11.568C27.8176 11.472 27.8336 11.376 27.8496 11.28C27.8656 11.184 27.8736 11.096 27.8736 11.016C27.8896 10.936 27.8976 10.88 27.8976 10.848C27.8976 10.736 27.8736 10.664 27.8256 10.632C27.7776 10.584 27.7536 10.496 27.7536 10.368C27.7536 10.272 27.8016 10.184 27.8976 10.104C27.9936 10.008 28.2016 9.96 28.5216 9.96C28.6496 9.96 28.7456 10 28.8096 10.08C28.8896 10.144 28.9456 10.224 28.9776 10.32C29.0096 10.416 29.0256 10.512 29.0256 10.608C29.0416 10.688 29.0496 10.744 29.0496 10.776C29.0496 10.792 29.0416 10.904 29.0256 11.112C29.0096 11.32 28.9936 11.552 28.9776 11.808C28.9776 12.048 28.9696 12.28 28.9536 12.504C28.9376 12.728 28.9296 12.864 28.9296 12.912C28.9296 12.96 28.9536 13.056 29.0016 13.2C29.0496 13.344 29.1056 13.496 29.1696 13.656C29.2496 13.8 29.3376 13.936 29.4336 14.064C29.5296 14.176 29.6336 14.232 29.7456 14.232C29.9376 14.232 30.1136 14.208 30.2736 14.16C30.4496 14.096 30.6096 14.032 30.7536 13.968C30.9136 13.888 31.0576 13.824 31.1856 13.776C31.3136 13.712 31.4336 13.68 31.5456 13.68C31.6896 13.68 31.8176 13.712 31.9296 13.776C32.0576 13.84 32.1216 13.92 32.1216 14.016ZM36.277 17.304C36.277 17.432 36.229 17.528 36.133 17.592C36.037 17.656 35.925 17.688 35.797 17.688C35.653 17.688 35.501 17.552 35.341 17.28C35.197 17.008 35.053 16.664 34.909 16.248C34.765 15.832 34.629 15.384 34.501 14.904C34.373 14.408 34.261 13.952 34.165 13.536C34.069 13.104 33.989 12.744 33.925 12.456C33.877 12.168 33.853 12.008 33.853 11.976C33.853 11.912 33.821 11.744 33.757 11.472C33.709 11.2 33.637 10.776 33.541 10.2C33.461 9.624 33.365 8.88 33.253 7.968C33.157 7.04 33.053 5.896 32.941 4.536C32.941 4.392 32.965 4.208 33.013 3.984C33.061 3.76 33.173 3.648 33.349 3.648C33.573 3.648 33.741 3.8 33.853 4.104C33.981 4.408 34.077 4.784 34.141 5.232C34.221 5.68 34.277 6.152 34.309 6.648C34.341 7.128 34.381 7.552 34.429 7.92C34.493 8.432 34.549 8.896 34.597 9.312C34.661 9.728 34.717 10.144 34.765 10.56C34.829 10.96 34.901 11.384 34.981 11.832C35.077 12.28 35.189 12.776 35.317 13.32L36.277 17.304ZM44.8195 15.48C44.8355 15.512 44.8435 15.56 44.8435 15.624C44.8435 15.72 44.7715 15.864 44.6275 16.056C44.5795 16.12 44.4755 16.224 44.3155 16.368C44.1555 16.512 43.9395 16.656 43.6675 16.8C43.3955 16.944 43.0595 17.072 42.6595 17.184C42.2755 17.296 41.8195 17.352 41.2915 17.352C40.9235 17.352 40.5635 17.272 40.2115 17.112C39.8595 16.936 39.5475 16.688 39.2755 16.368C39.0035 16.032 38.7795 15.624 38.6035 15.144C38.4275 14.648 38.3395 14.072 38.3395 13.416C38.3395 12.792 38.4195 12.208 38.5795 11.664C38.7395 11.12 38.9395 10.64 39.1795 10.224C39.4355 9.808 39.7155 9.48 40.0195 9.24C40.3235 9 40.6195 8.88 40.9075 8.88C41.1635 8.88 41.4195 8.936 41.6755 9.048C41.9475 9.144 42.1875 9.272 42.3955 9.432C42.6195 9.592 42.7955 9.776 42.9235 9.984C43.0515 10.176 43.1155 10.376 43.1155 10.584C43.1155 10.824 43.0035 11.072 42.7795 11.328C42.5715 11.584 42.3155 11.824 42.0115 12.048C41.7075 12.256 41.4035 12.432 41.0995 12.576C40.7955 12.704 40.5555 12.768 40.3795 12.768C40.2835 12.768 40.1955 12.728 40.1155 12.648C40.0515 12.552 40.0195 12.44 40.0195 12.312C40.0195 12.088 40.1155 11.912 40.3075 11.784C40.5155 11.656 40.7395 11.544 40.9795 11.448C41.2195 11.336 41.4355 11.208 41.6275 11.064C41.8355 10.92 41.9395 10.72 41.9395 10.464C41.9395 10.432 41.8995 10.352 41.8195 10.224C41.7395 10.096 41.5235 10.032 41.1715 10.032C41.0115 10.032 40.8275 10.128 40.6195 10.32C40.4115 10.496 40.2115 10.744 40.0195 11.064C39.8275 11.368 39.6675 11.736 39.5395 12.168C39.4115 12.584 39.3475 13.04 39.3475 13.536C39.3475 13.952 39.4195 14.328 39.5635 14.664C39.7235 15 39.9235 15.288 40.1635 15.528C40.4035 15.752 40.6835 15.928 41.0035 16.056C41.3235 16.184 41.6515 16.248 41.9875 16.248C42.2275 16.248 42.4835 16.2 42.7555 16.104C43.0435 15.992 43.3075 15.88 43.5475 15.768C43.8035 15.64 44.0195 15.528 44.1955 15.432C44.3875 15.32 44.5075 15.264 44.5555 15.264C44.6035 15.264 44.6515 15.288 44.6995 15.336C44.7635 15.384 44.8035 15.432 44.8195 15.48ZM54.4107 14.016C54.4107 14.16 54.3147 14.312 54.1227 14.472C53.9307 14.632 53.7067 14.784 53.4507 14.928C53.1947 15.056 52.9307 15.168 52.6587 15.264C52.4027 15.36 52.2107 15.408 52.0827 15.408C51.9387 15.408 51.7787 15.368 51.6027 15.288C51.4427 15.208 51.2827 15.112 51.1227 15C50.9787 14.888 50.8507 14.784 50.7387 14.688C50.6267 14.592 50.5547 14.528 50.5227 14.496C50.4747 14.544 50.4027 14.64 50.3067 14.784C50.2107 14.928 50.0907 15.088 49.9467 15.264C49.8187 15.424 49.6747 15.568 49.5147 15.696C49.3707 15.824 49.2187 15.888 49.0587 15.888C48.6427 15.888 48.2827 15.664 47.9787 15.216C47.6747 14.768 47.4187 14.256 47.2107 13.68C47.0187 13.104 46.8667 12.552 46.7547 12.024C46.6587 11.48 46.6107 11.112 46.6107 10.92C46.6107 10.808 46.6667 10.72 46.7787 10.656C46.9067 10.576 47.0027 10.536 47.0667 10.536C47.2907 10.536 47.4427 10.616 47.5227 10.776C47.6027 10.92 47.6427 11.08 47.6427 11.256C47.6427 11.4 47.6827 11.656 47.7627 12.024C47.8587 12.392 47.9707 12.768 48.0987 13.152C48.2267 13.536 48.3627 13.88 48.5067 14.184C48.6507 14.472 48.7787 14.616 48.8907 14.616C49.0987 14.616 49.2747 14.488 49.4187 14.232C49.5787 13.96 49.7067 13.656 49.8027 13.32C49.8987 12.968 49.9707 12.64 50.0187 12.336C50.0667 12.016 50.0907 11.808 50.0907 11.712C50.0907 11.696 50.0907 11.648 50.0907 11.568C50.1067 11.472 50.1227 11.376 50.1387 11.28C50.1547 11.184 50.1627 11.096 50.1627 11.016C50.1787 10.936 50.1867 10.88 50.1867 10.848C50.1867 10.736 50.1627 10.664 50.1147 10.632C50.0667 10.584 50.0427 10.496 50.0427 10.368C50.0427 10.272 50.0907 10.184 50.1867 10.104C50.2827 10.008 50.4907 9.96 50.8107 9.96C50.9387 9.96 51.0347 10 51.0987 10.08C51.1787 10.144 51.2347 10.224 51.2667 10.32C51.2987 10.416 51.3147 10.512 51.3147 10.608C51.3307 10.688 51.3387 10.744 51.3387 10.776C51.3387 10.792 51.3307 10.904 51.3147 11.112C51.2987 11.32 51.2827 11.552 51.2667 11.808C51.2667 12.048 51.2587 12.28 51.2427 12.504C51.2267 12.728 51.2187 12.864 51.2187 12.912C51.2187 12.96 51.2427 13.056 51.2907 13.2C51.3387 13.344 51.3947 13.496 51.4587 13.656C51.5387 13.8 51.6267 13.936 51.7227 14.064C51.8187 14.176 51.9227 14.232 52.0347 14.232C52.2267 14.232 52.4027 14.208 52.5627 14.16C52.7387 14.096 52.8987 14.032 53.0427 13.968C53.2027 13.888 53.3467 13.824 53.4747 13.776C53.6027 13.712 53.7227 13.68 53.8347 13.68C53.9787 13.68 54.1067 13.712 54.2187 13.776C54.3467 13.84 54.4107 13.92 54.4107 14.016ZM61.0381 10.68C61.0381 10.792 60.9901 10.888 60.8941 10.968C60.7981 11.032 60.6861 11.088 60.5581 11.136C60.4301 11.184 60.3021 11.224 60.1741 11.256C60.0461 11.272 59.9421 11.28 59.8621 11.28C59.6221 11.28 59.4621 11.264 59.3821 11.232C59.3021 11.2 59.2381 11.184 59.1901 11.184C58.7901 11.184 58.4701 11.216 58.2301 11.28C57.9901 11.344 57.7981 11.448 57.6541 11.592C57.5261 11.736 57.4381 11.92 57.3901 12.144C57.3581 12.352 57.3421 12.608 57.3421 12.912C57.3421 13.424 57.3581 13.832 57.3901 14.136C57.4381 14.44 57.4781 14.688 57.5101 14.88C57.5581 15.072 57.5981 15.224 57.6301 15.336C57.6781 15.432 57.7021 15.528 57.7021 15.624C57.7021 15.752 57.6301 15.888 57.4861 16.032C57.3581 16.176 57.2381 16.248 57.1261 16.248C56.9341 16.248 56.7581 16.08 56.5981 15.744C56.4541 15.392 56.3261 14.984 56.2141 14.52C56.1181 14.04 56.0381 13.568 55.9741 13.104C55.9101 12.64 55.8781 12.288 55.8781 12.048C55.8781 11.776 55.9021 11.52 55.9501 11.28C55.9981 11.024 56.0621 10.808 56.1421 10.632C56.2221 10.44 56.3101 10.288 56.4061 10.176C56.5021 10.064 56.5981 10.008 56.6941 10.008C56.7741 10.008 56.8381 10.04 56.8861 10.104C56.9341 10.152 56.9741 10.216 57.0061 10.296C57.0381 10.36 57.0701 10.424 57.1021 10.488C57.1501 10.536 57.2061 10.56 57.2701 10.56C57.4141 10.56 57.6461 10.488 57.9661 10.344C58.2861 10.2 58.6781 10.128 59.1421 10.128C59.5741 10.128 59.8941 10.144 60.1021 10.176C60.3261 10.192 60.5421 10.24 60.7501 10.32C60.7981 10.336 60.8541 10.376 60.9181 10.44C60.9981 10.488 61.0381 10.568 61.0381 10.68ZM68.3678 14.832C68.3678 15.104 68.2718 15.344 68.0798 15.552C67.9038 15.744 67.6718 15.912 67.3838 16.056C67.1118 16.184 66.8078 16.288 66.4718 16.368C66.1358 16.448 65.8158 16.512 65.5118 16.56C65.2078 16.592 64.9358 16.616 64.6958 16.632C64.4718 16.632 64.3278 16.632 64.2638 16.632C63.9118 16.632 63.6398 16.576 63.4478 16.464C63.2558 16.352 63.1598 16.152 63.1598 15.864C63.1598 15.768 63.1678 15.688 63.1838 15.624C63.1998 15.544 63.2638 15.504 63.3758 15.504C63.4238 15.504 63.5038 15.52 63.6158 15.552C63.7278 15.568 63.8158 15.576 63.8798 15.576C63.9438 15.576 64.1438 15.568 64.4798 15.552C64.8318 15.52 65.1998 15.472 65.5838 15.408C65.9838 15.344 66.3358 15.256 66.6398 15.144C66.9598 15.016 67.1198 14.856 67.1198 14.664C67.1198 14.632 66.9518 14.536 66.6158 14.376C66.2958 14.2 65.8078 13.912 65.1518 13.512C64.6398 13.192 64.2798 12.872 64.0718 12.552C63.8638 12.216 63.7598 11.768 63.7598 11.208C63.7598 10.856 63.8318 10.568 63.9758 10.344C64.1358 10.12 64.3438 9.944 64.5998 9.816C64.8718 9.688 65.1758 9.6 65.5118 9.552C65.8638 9.488 66.2318 9.456 66.6158 9.456C66.6478 9.456 66.7438 9.472 66.9038 9.504C67.0798 9.536 67.2638 9.592 67.4558 9.672C67.6478 9.736 67.8158 9.824 67.9598 9.936C68.1198 10.032 68.1998 10.144 68.1998 10.272C68.1998 10.304 68.1678 10.352 68.1038 10.416C68.0558 10.48 67.9678 10.6 67.8398 10.776C67.7918 10.76 67.7038 10.736 67.5758 10.704C67.4638 10.672 67.3278 10.64 67.1678 10.608C67.0238 10.56 66.8718 10.528 66.7118 10.512C66.5518 10.48 66.4238 10.464 66.3278 10.464C65.9118 10.464 65.5758 10.544 65.3198 10.704C65.0638 10.848 64.9358 11.136 64.9358 11.568C64.9358 11.776 65.0158 11.968 65.1758 12.144C65.3518 12.32 65.5678 12.488 65.8238 12.648C66.0798 12.792 66.3518 12.944 66.6398 13.104C66.9438 13.248 67.2238 13.408 67.4798 13.584C67.7358 13.76 67.9438 13.952 68.1038 14.16C68.2798 14.352 68.3678 14.576 68.3678 14.832Z" fill="black"/>
<path d="M8 24.7137C20.4021 21.5091 33.6816 21.6893 46.4574 20.6599C51.9417 20.218 57.3066 19.7157 62.8227 19.4991C63.6487 19.4667 69.0275 18.6486 68.9999 19.1776C68.9553 20.0322 61.5912 21.6267 60.9567 21.8028C52.8307 24.058 44.6882 24.1777 36.1835 24.3744C31.8611 24.4743 27.664 24.9149 23.3572 25.2137C21.4982 25.3427 17.2657 24.682 15.6786 25.8566C15.6341 25.8896 17.3516 26.2756 17.609 26.3566C22.8098 27.9951 28.7191 28.4523 34.2317 28.5532C35.6541 28.5792 39.9203 28.5015 38.4999 28.5711C36.8394 28.6524 35.1752 30.0864 33.9528 30.8926C33.3018 31.3221 28.0984 34.2057 30.0063 35" stroke="black" stroke-linecap="round" stroke-linejoin="round"/>
</svg>
