<svg width="65" height="66" viewBox="0 0 65 66" fill="none" xmlns="http://www.w3.org/2000/svg">
<path d="M38.5028 9.22251C39.8249 11.6909 41.9171 13.4813 43.7352 15.5321C45.2909 17.2869 47.5341 18.6368 48.8744 20.5915C49.9733 22.1942 51.9233 23.8311 53.5008 24.9965C53.9671 25.3411 54.3155 26.1454 54.9808 25.721C56.0953 25.0099 56.7007 23.8831 57.6961 23.1153C59.516 21.7116 61.1054 19.7904 62.7303 18.1611C64.2521 16.6354 64.3776 14.5403 64.1055 12.4942C63.8905 10.8777 62.5051 10.1122 61.5883 8.82524C59.827 6.35288 56.7398 5.44768 54.7594 3.22838C53.8853 2.24887 51.4447 0.498016 50.133 1.13686C49.3603 1.51315 48.5358 2.30012 47.8489 2.8428C47.3035 3.2736 47.0913 3.98885 46.5204 4.38514C45.0589 5.39966 43.8594 6.77618 42.2785 7.65679C41.766 7.94227 40.9465 8.48353 40.6004 8.96545C40.3117 9.36749 39.6319 10.1906 39.1321 10.2741C38.7101 10.3446 38.3712 11.139 38.5494 11.536C39.1624 12.9018 40.0663 13.4927 41.2996 14.2235C42.2046 14.7596 43.0034 15.5456 43.91 16.1163C44.77 16.6578 45.2938 17.5806 46.1708 18.056C47.6836 18.8759 48.6618 20.4366 50.133 21.3042C51.6695 22.2105 52.8262 23.8442 53.8155 25.277C54.2383 25.8894 53.8616 26.2153 53.4309 26.7726C52.7434 27.662 52.1558 28.6822 51.4498 29.5418C50.2687 30.9798 48.4042 32.2051 46.9865 33.4093C45.9355 34.3022 44.7365 34.9347 43.6303 35.7462C41.6611 37.191 39.8533 38.9291 38.1183 40.642C36.1941 42.5416 34.3363 44.2635 32.781 46.5076C30.6302 49.6109 27.7268 51.9323 25.4043 54.8737C23.6604 57.0824 21.325 57.5286 18.7852 58.5543C17.4625 59.0884 16.2952 59.8612 15.0095 60.4472C13.3228 61.2159 11.4311 61.7321 9.66053 62.2816C8.76922 62.5583 7.91529 62.9078 7.02685 63.2047C5.52788 63.7057 3.97825 64.5928 2.44704 64.934C1.48509 65.1483 0.744403 64.8614 1.08358 63.7656C1.90435 61.1138 3.38644 58.6166 4.45143 56.0538C5.14018 54.3964 5.91662 52.8049 6.40921 51.0762C6.71965 49.9868 7.44348 49.0576 7.66778 47.9331C7.99158 46.3098 7.87511 44.8878 8.7166 43.4112C9.05836 42.8116 10.2678 44.4591 10.5345 44.5563C11.7543 45.0011 12.6757 44.15 13.8441 43.937C14.5479 43.8087 14.6468 44.1927 15.1027 44.6498C15.4993 45.0475 15.8754 46.1292 16.1398 46.6595C16.473 47.3277 16.7692 47.793 17.3168 48.3421C18.1939 49.2215 18.9634 48.8606 20.1486 48.9964C21.1119 49.1068 21.894 49.5758 22.6774 50.0246C23.1994 50.3237 22.9804 51.21 22.9804 51.7306C22.9804 52.5429 23.3097 53.2443 23.3883 54.0324C23.4671 54.8222 23.0134 55.797 24.0642 55.6916C24.9184 55.606 26.1257 54.8922 26.7678 54.3362C28.2976 53.0115 29.3396 51.4304 30.73 50.0363C32.689 48.0721 33.5943 45.2714 35.5545 43.3061C38.3971 40.4559 41.2786 37.6081 44.2363 34.8582C45.7382 33.4619 46.9715 31.8587 48.4083 30.4181C49.304 29.52 50.2615 28.9236 51.2517 28.1513C53.1667 26.6579 54.2388 23.8992 52.0441 22.0988C49.9131 20.3506 48.0049 18.2124 46.0543 16.2566C44.7278 14.9266 43.3775 13.6426 42.0222 12.3306C40.5342 10.8901 40.1504 11.1178 38.6194 12.5175C36.9662 14.0288 35.2783 15.4868 33.6317 17.0044C31.6186 18.8597 29.7678 20.9889 27.6884 22.7531C25.8387 24.3224 24.3879 26.2454 22.6308 27.9176C21.6164 28.8831 20.6652 29.9979 19.5776 30.8855C18.4756 31.7849 18.057 33.114 17.1071 34.1571C16.4159 34.9162 16.152 36.1622 15.3124 36.7745C14.5269 37.3473 13.7864 38.3512 13.1333 39.088C11.8087 40.5821 10.3206 41.8621 9.04289 43.3762C7.80811 44.8394 7.00536 46.5647 6.31598 48.3421C5.87107 49.4892 4.89254 51.1946 5.39536 52.455C5.74858 53.3404 7.10417 54.2969 7.78432 54.9789C8.51468 55.7112 8.95316 56.4384 9.55564 57.269C10.5488 58.6382 12.0611 59.967 13.6344 60.5407C15.5443 61.237 17.0803 60.0241 18.5754 58.8581C19.2367 58.3424 20.0496 57.5918 20.8711 57.3859C21.1306 57.3208 22.717 56.7854 22.759 56.638C22.9522 55.96 21.8093 56.8827 21.7218 56.9652C20.6514 57.9754 19.3402 58.7994 18.086 59.5592C15.0113 61.4217 11.2244 62.6997 7.87755 63.9525C6.42638 64.4957 3.08587 65.5764 1.79444 64.2096C0.307893 62.6363 3.20306 60.2411 3.72892 58.7179C4.26151 57.1752 4.18143 55.2955 5.10403 53.974C5.81578 52.9545 6.50627 51.9454 7.29487 50.9828C7.84949 50.3058 8.54176 49.5857 8.76321 48.716C8.88554 48.2356 8.92291 47.7432 9.13612 47.2905C9.50106 46.5156 10.1764 45.4871 10.3481 44.6732C10.8852 42.1272 12.5542 40.1736 13.8907 37.9897C14.4912 37.0084 15.277 35.8948 16.0117 35.0218C17.2251 33.5798 17.9229 31.8436 19.2979 30.4649C20.702 29.057 22.2468 27.7585 23.4466 26.165C24.5051 24.7591 25.5539 23.4587 26.7095 22.1455C29.0267 19.5124 32.0907 17.5446 34.564 15.0647C38.3136 11.3051 41.8326 7.34654 45.6347 3.63734C46.4095 2.88154 47.3335 2.7923 48.1053 2.11836C48.5548 1.7258 50.1058 0.851446 50.7156 1.1135C51.6213 1.50267 52.7815 2.47243 53.6057 3.05312C54.4375 3.63917 55.4777 4.34768 55.9597 5.22643C56.456 6.13123 57.6685 7.09101 58.3836 7.82038C59.3005 8.75557 60.2799 9.60485 61.2037 10.5312C61.7441 11.073 62.3991 11.7925 62.8352 12.4241C63.1188 12.8347 63.1737 13.6392 63.6743 13.6392" stroke="black" stroke-width="0.8" stroke-linecap="round" stroke-linejoin="round"/>
<path d="M13.9136 44.1629C14.79 42.1794 16.6549 40.0056 18.2033 38.4951C20.8772 35.8864 23.4667 33.4362 25.9286 30.5757C29.9464 25.9073 34.5098 21.5342 39.4187 17.7843C40.4146 17.0236 42.454 15.6928 43.0485 14.5039C43.1606 14.2796 44.8587 16.6947 45.2224 16.9885C45.6619 17.3435 45.9094 17.9668 46.2317 18.4248C46.5925 18.9375 46.9937 19.2957 47.3187 19.8418C48.0107 21.0043 47.1706 21.7845 46.2512 22.5786C45.0737 23.5955 44.0255 24.8353 42.9902 25.9949C42.3224 26.7428 41.4491 27.2836 40.7386 27.9941C39.8944 28.8384 39.0916 29.6896 38.1862 30.4592C37.4044 31.1237 37.0289 32.2498 36.2063 32.7982C35.9474 32.9708 35.7794 33.4318 35.6143 33.6813C35.3351 34.1034 34.9221 34.2752 34.6341 34.6518C33.9812 35.5057 33.2714 36.3245 32.6057 37.1752C31.8337 38.1616 30.7617 38.9221 30.063 39.9315C28.1301 42.7234 25.79 45.1784 23.6964 47.8703C23.1893 48.5222 22.0079 50.606 23.347 48.8408C24.434 47.4079 25.7037 46.1693 27.1223 45.0946C31.0258 42.1374 33.1684 37.6014 36.2063 33.924C37.3498 32.5397 38.3718 31.0253 39.4187 29.5858C39.9063 28.9154 40.7875 28.5594 41.2336 27.8388C41.5918 27.2602 42.1501 26.8175 42.5632 26.2569C43.5023 24.9824 44.6414 23.8643 45.698 22.6757C46.3654 21.9249 47.4144 21.1534 47.639 20.1426C48.1432 17.8736 45.008 15.3159 42.7379 15.5133C41.9004 15.5861 41.17 16.5142 40.4669 16.9108C39.8625 17.2518 39.4851 17.8186 39.0305 18.3278C38.4272 19.0035 37.6236 19.5037 37.0507 20.1912C35.7341 21.771 34.581 23.5271 33.2268 25.0632C32.1335 26.3034 31.0057 27.5427 29.7136 28.5764C28.2868 29.7178 27.1215 31.479 25.8121 32.7885C24.7885 33.8121 23.8156 34.8223 22.9976 36.0494C22.4389 36.8875 21.6779 37.5402 21.1536 38.398C20.8231 38.9389 20.509 39.6157 20.0375 40.0479C18.9557 41.0396 17.8471 41.9763 16.8057 43.0177C16.3111 43.5123 15.7159 44.5719 15.1364 44.8617" stroke="black" stroke-width="0.8" stroke-linecap="round" stroke-linejoin="round"/>
</svg>
