<svg width="49" height="50" viewBox="0 0 49 50" fill="none" xmlns="http://www.w3.org/2000/svg">
<path d="M28.9897 7.13675C29.9764 8.97903 31.5379 10.3152 32.8948 11.8458C34.0558 13.1555 35.73 14.163 36.7303 15.6218C37.5505 16.818 39.0059 18.0396 40.1832 18.9094C40.5312 19.1666 40.7912 19.7669 41.2878 19.4501C42.1195 18.9194 42.5713 18.0784 43.3142 17.5054C44.6726 16.4578 45.8588 15.0239 47.0715 13.8079C48.2072 12.6692 48.3009 11.1056 48.0978 9.57849C47.9374 8.37205 46.9034 7.80073 46.2192 6.84025C44.9047 4.99504 42.6006 4.31946 41.1225 2.66312C40.4701 1.93207 38.6487 0.625352 37.6696 1.10215C37.093 1.38298 36.4777 1.97032 35.965 2.37534C35.558 2.69687 35.3995 3.23068 34.9735 3.52645C33.8827 4.28362 32.9875 5.31096 31.8076 5.9682C31.4251 6.18126 30.8135 6.58522 30.5552 6.94489C30.3397 7.24495 29.8323 7.85926 29.4593 7.92159C29.1444 7.97422 28.8915 8.56709 29.0245 8.86341C29.4819 9.8827 30.1566 10.3238 31.077 10.8691C31.7525 11.2693 32.3486 11.8559 33.0252 12.2819C33.6671 12.686 34.058 13.3747 34.7125 13.7295C35.8416 14.3414 36.5717 15.5062 37.6696 16.1538C38.8164 16.8301 39.6797 18.0494 40.418 19.1187C40.7336 19.5758 40.4525 19.8191 40.131 20.235C39.6179 20.8988 39.1794 21.6602 38.6524 22.3017C37.7709 23.375 36.3794 24.2895 35.3214 25.1882C34.5369 25.8546 33.6421 26.3266 32.8165 26.9323C31.3468 28.0106 29.9976 29.3078 28.7026 30.5862C27.2666 32.004 25.8801 33.289 24.7192 34.9639C23.1141 37.28 20.9471 39.0125 19.2138 41.2078C17.9123 42.8562 16.1693 43.1893 14.2737 43.9548C13.2866 44.3534 12.4153 44.9302 11.4557 45.3675C10.1969 45.9412 8.78511 46.3265 7.46365 46.7366C6.79844 46.9431 6.16112 47.2039 5.49804 47.4255C4.37932 47.7994 3.22277 48.4615 2.07998 48.7162C1.36204 48.8761 0.809239 48.662 1.06238 47.8441C1.67495 45.865 2.78109 44.0013 3.57592 42.0886C4.08996 40.8516 4.66945 39.6638 5.03708 38.3736C5.26877 37.5606 5.80899 36.8671 5.9764 36.0278C6.21806 34.8163 6.13113 33.755 6.75916 32.653C7.01423 32.2054 7.91686 33.435 8.11596 33.5076C9.02632 33.8395 9.71402 33.2044 10.586 33.0454C11.1113 32.9497 11.1851 33.2362 11.5253 33.5774C11.8213 33.8742 12.102 34.6815 12.2994 35.0773C12.5481 35.5759 12.7691 35.9233 13.1778 36.333C13.8324 36.9894 14.4067 36.72 15.2913 36.8214C16.0102 36.9038 16.5939 37.2538 17.1786 37.5888C17.5682 37.812 17.4048 38.4735 17.4048 38.862C17.4048 39.4682 17.6505 39.9917 17.7092 40.5799C17.768 41.1694 17.4294 41.8969 18.2136 41.8182C18.8511 41.7543 19.7522 41.2217 20.2314 40.8067C21.3732 39.818 22.1508 38.6379 23.1885 37.5975C24.6506 36.1315 25.3263 34.0413 26.7892 32.5745C28.9108 30.4473 31.0613 28.3219 33.2688 26.2696C34.3897 25.2274 35.3101 24.0309 36.3824 22.9558C37.051 22.2854 37.7655 21.8403 38.5046 21.264C39.9339 20.1494 40.734 18.0905 39.096 16.7468C37.5056 15.442 36.0814 13.8462 34.6256 12.3865C33.6356 11.3939 32.6278 10.4356 31.6163 9.4564C30.5057 8.3813 30.2193 8.55128 29.0766 9.59593C27.8428 10.7238 26.5831 11.812 25.3542 12.9446C23.8517 14.3293 22.4704 15.9184 20.9185 17.2351C19.538 18.4063 18.4552 19.8415 17.1438 21.0896C16.3867 21.8101 15.6768 22.6421 14.8651 23.3046C14.0426 23.9758 13.7302 24.9678 13.0213 25.7463C12.5054 26.3128 12.3085 27.2428 11.6819 27.6997C11.0956 28.1273 10.543 28.8765 10.0555 29.4264C9.06692 30.5415 7.9563 31.4968 7.00269 32.6268C6.08113 33.7188 5.48201 35.0065 4.9675 36.333C4.63545 37.1892 3.90514 38.462 4.28041 39.4027C4.54403 40.0635 5.55576 40.7773 6.06337 41.2863C6.60847 41.8328 6.93572 42.3756 7.38538 42.9955C8.12659 44.0174 9.25526 45.0091 10.4295 45.4373C11.8549 45.957 13.0013 45.0517 14.1171 44.1815C14.6107 43.7966 15.2174 43.2364 15.8305 43.0827C16.0241 43.0342 17.2082 42.6346 17.2395 42.5246C17.3837 42.0186 16.5307 42.7072 16.4654 42.7688C15.6665 43.5227 14.688 44.1377 13.7519 44.7047C11.4571 46.0948 8.63082 47.0486 6.13295 47.9837C5.0499 48.3891 2.55675 49.1956 1.59292 48.1755C0.483456 47.0013 2.64422 45.2137 3.03669 44.0769C3.43418 42.9255 3.37441 41.5226 4.06298 40.5363C4.59418 39.7755 5.10952 39.0223 5.69808 38.3039C6.11201 37.7986 6.62867 37.2612 6.79395 36.6121C6.88525 36.2536 6.91315 35.8861 7.07227 35.5482C7.34464 34.9699 7.84863 34.2023 7.9768 33.5948C8.37769 31.6946 9.62326 30.2366 10.6208 28.6067C11.069 27.8743 11.6554 27.0432 12.2037 26.3917C13.1094 25.3154 13.6301 24.0196 14.6564 22.9906C15.7043 21.9399 16.8572 20.9708 17.7526 19.7815C18.5426 18.7322 19.3255 17.7617 20.1879 16.7816C21.9173 14.8165 24.204 13.3478 26.0499 11.497C28.8484 8.69109 31.4748 5.73665 34.3125 2.96834C34.8907 2.40426 35.5803 2.33765 36.1563 1.83467C36.4918 1.54169 37.6494 0.889129 38.1045 1.08471C38.7804 1.37516 39.6464 2.09892 40.2615 2.53231C40.8823 2.9697 41.6586 3.49849 42.0183 4.15433C42.3888 4.82962 43.2937 5.54593 43.8274 6.09028C44.5117 6.78826 45.2426 7.4221 45.9322 8.11344C46.3354 8.51781 46.8243 9.0548 47.1498 9.52617C47.3614 9.83268 47.4024 10.4331 47.776 10.4331" stroke="black" stroke-width="0.8" stroke-linecap="round" stroke-linejoin="round"/>
<path d="M10.6379 33.2139C11.2921 31.7335 12.6839 30.1111 13.8395 28.9838C15.8351 27.0368 17.7678 25.2081 19.6051 23.0732C22.6038 19.589 26.0096 16.3253 29.6733 13.5266C30.4166 12.9588 31.9387 11.9657 32.3823 11.0783C32.466 10.9109 33.7334 12.7134 34.0048 12.9326C34.3328 13.1976 34.5176 13.6628 34.7581 14.0046C35.0274 14.3873 35.3268 14.6546 35.5694 15.0622C36.0858 15.9298 35.4588 16.5121 34.7726 17.1048C33.8938 17.8637 33.1115 18.789 32.3389 19.6544C31.8405 20.2126 31.1887 20.6163 30.6584 21.1465C30.0283 21.7766 29.4292 22.4119 28.7534 22.9863C28.17 23.4823 27.8897 24.3227 27.2758 24.732C27.0825 24.8608 26.9572 25.2048 26.8339 25.3911C26.6256 25.7061 26.3173 25.8344 26.1024 26.1154C25.6151 26.7527 25.0854 27.3638 24.5885 27.9987C24.0124 28.7349 23.2123 29.3025 22.6908 30.0558C21.2482 32.1395 19.5017 33.9718 17.9392 35.9808C17.5608 36.4673 16.679 38.0226 17.6784 36.7051C18.4897 35.6357 19.4373 34.7113 20.4961 33.9092C23.4094 31.7021 25.0085 28.3168 27.2758 25.5722C28.1292 24.5391 28.892 23.4088 29.6733 22.3344C30.0372 21.8341 30.6949 21.5684 31.0278 21.0306C31.2952 20.5988 31.7119 20.2683 32.0202 19.85C32.7211 18.8987 33.5712 18.0643 34.3597 17.1772C34.8578 16.6168 35.6408 16.0411 35.8084 15.2867C36.1847 13.5932 33.8448 11.6843 32.1505 11.8316C31.5255 11.886 30.9804 12.5787 30.4556 12.8747C30.0045 13.1291 29.7229 13.5522 29.3836 13.9322C28.9333 14.4365 28.3335 14.8098 27.906 15.3229C26.9234 16.502 26.0628 17.8126 25.0521 18.9591C24.2361 19.8847 23.3944 20.8096 22.43 21.5811C21.3652 22.433 20.4955 23.7474 19.5182 24.7247C18.7542 25.4887 18.0282 26.2427 17.4177 27.1585C17.0007 27.784 16.4327 28.2711 16.0414 28.9113C15.7948 29.315 15.5603 29.8202 15.2085 30.1427C14.4011 30.8828 13.5737 31.5819 12.7964 32.3591C12.4273 32.7283 11.9831 33.5191 11.5506 33.7354" stroke="black" stroke-width="0.8" stroke-linecap="round" stroke-linejoin="round"/>
</svg>
