<svg width="50" height="50" viewBox="0 0 50 50" fill="none" xmlns="http://www.w3.org/2000/svg">
<path d="M33.6208 47.4138C35.3449 49.138 34.4828 50 30.1725 50C27.2654 49.8127 24.3806 49.3684 21.5518 48.6725L18.1035 27.5862L21.5518 5.14656C22.5259 5.07759 23.2759 4.75863 23.2759 3.44828C23.2759 0 26.7242 0 28.4483 0C30.1725 0 29.3104 1.72414 31.8966 3.44828C33.1466 4.28449 35.0001 4.50863 37.069 4.62069L41.3794 21.5517L37.069 42.1294C34.0777 42.0949 32.0432 45.8363 33.6208 47.4138Z" fill="#ECF0F1"/>
<path d="M21.5517 5.14648V48.6724C19.0285 48.0512 16.4602 47.6303 13.8707 47.4138C10.4224 47.4138 4.37069 45.8965 4.31035 43.9655C4.24138 41.3793 6.03449 42.2413 9.48277 42.2413C12.931 42.2413 16.3793 34.4827 13.7931 32.7586C11.2069 31.0344 12.069 28.4482 10.3448 24.1379C8.6207 19.8275 6.89656 17.2413 3.44828 17.2413C0 17.2413 0 14.6551 0 13.793C0 12.931 0 11.2068 0.86207 11.2068C4.31035 11.2068 4.31035 12.931 6.89656 12.931C9.48277 12.931 9.48277 11.2068 9.48277 10.3448C9.48277 9.4827 6.03449 6.03442 8.6207 6.03442C11.2069 6.03442 10.3448 7.75856 12.931 7.75856C14.4127 7.77976 15.8819 7.48592 17.2414 6.89649C17.7759 4.75855 19.9655 5.26717 21.5517 5.14648Z" fill="#285680"/>
<path d="M49.9999 39.6556C49.9999 41.3798 49.1378 43.966 46.5516 43.966C45.4337 44.0142 44.3453 43.5994 43.543 42.8194C43.2804 42.5527 42.8741 42.4897 42.543 42.6642C41.7757 43.0694 40.6637 42.9229 37.9309 42.2418C37.6496 42.1676 37.3598 42.1299 37.0688 42.1298V4.62109C39.3778 4.6427 41.6824 4.82707 43.9654 5.17282C45.7675 5.50588 47.5403 5.98151 49.2671 6.59523C49.6782 6.74831 49.9058 7.18857 49.793 7.61248C49.3883 9.06469 49.1681 10.5621 49.1378 12.0694C49.1378 14.6556 49.1378 14.6556 46.5516 16.3797C45.0532 17.3235 44.093 18.9238 43.9654 20.6901C43.9654 20.6901 44.8275 19.828 47.4137 20.6901C49.9999 21.5521 49.1378 25.8625 47.4137 27.5866C45.6895 29.3108 44.8275 31.0349 46.5516 34.4832C48.2757 37.9315 49.9999 37.9315 49.9999 39.6556Z" fill="#E64C3C"/>
</svg>
