<svg width="126" height="85" viewBox="0 0 126 85" fill="none" xmlns="http://www.w3.org/2000/svg">
<path d="M20.7757 35.3969C20.724 35.7989 20.4433 36.0588 19.9335 36.1768C19.4237 36.2947 18.8282 36.4106 18.1469 36.5244C17.4895 36.6203 16.8545 36.7087 16.242 36.7897C15.6321 36.8495 15.0856 36.9188 14.6024 36.9975C14.143 37.0583 13.8565 37.1125 13.7428 37.1602C13.7374 37.2025 13.7306 37.2554 13.7224 37.3189C13.7143 37.3824 13.7166 37.4475 13.7296 37.5141L13.7266 38.29C13.7021 38.4804 13.6514 38.6238 13.5745 38.7202C13.5187 38.8196 13.4064 38.8568 13.2376 38.8316C13.0478 38.8032 12.9174 38.7298 12.8466 38.6114C12.7996 38.475 12.754 38.328 12.7098 38.1704C12.6893 37.9948 12.6689 37.8192 12.6485 37.6437C12.6491 37.4712 12.6127 37.3364 12.5392 37.2392C12.497 37.2328 12.3227 37.2499 12.0165 37.2904C11.7102 37.3309 11.3168 37.38 10.8363 37.4376C10.3769 37.4983 9.85151 37.5708 9.26007 37.6549C8.69245 37.721 8.13675 37.7782 7.59295 37.8263C7.04915 37.8744 6.53972 37.9061 6.06466 37.9214C5.5896 37.9367 5.22548 37.9254 4.97229 37.8876C4.40262 37.8024 4.1409 37.58 4.18714 37.2203C4.22251 36.9452 4.32219 36.7553 4.48621 36.6504C4.67132 36.5487 4.87346 36.4818 5.09261 36.4499C5.13753 36.435 5.34477 36.4121 5.71433 36.381C6.105 36.3531 6.57087 36.3257 7.11194 36.2987C7.65574 36.2506 8.23255 36.1966 8.84236 36.1368C9.47328 36.0801 10.0501 36.0261 10.5728 35.9748C11.1166 35.9267 11.5535 35.8734 11.8836 35.8149C12.2348 35.7595 12.4131 35.7107 12.4185 35.6684C12.4349 35.5414 12.412 35.3008 12.3501 34.9465C12.3092 34.5953 12.2656 34.2653 12.2193 33.9565L12.111 33.2933C11.9897 31.895 11.9331 30.4956 11.9411 29.095C11.9491 27.6944 11.9861 26.3197 12.052 24.9709C12.0152 24.9223 11.9652 24.8933 11.9019 24.8838C11.7964 24.8681 11.5085 24.9329 11.0382 25.0782C10.5679 25.2236 10.0633 25.3854 9.52425 25.5637C8.98795 25.7208 8.48466 25.872 8.01438 26.0174C7.56519 26.1659 7.2984 26.2339 7.21401 26.2213C7.06631 26.1992 6.92678 26.1136 6.79541 25.9646C6.68514 25.8187 6.63816 25.6823 6.65448 25.5554C6.67624 25.3861 6.83787 25.2162 7.13936 25.0455C7.44357 24.8538 7.81108 24.6715 8.24188 24.4986C8.6965 24.3078 9.18006 24.1428 9.69254 24.0037C10.2288 23.8467 10.7294 23.7166 11.1942 23.6135C11.6829 23.4925 12.0923 23.4027 12.4224 23.3442C12.7736 23.2888 13.0019 23.269 13.1074 23.2848C13.2762 23.31 13.5018 23.3114 13.7843 23.2889C14.0667 23.2664 14.3716 23.2365 14.699 23.1992C15.0263 23.1618 15.3524 23.135 15.677 23.1189C16.0227 23.1058 16.3222 23.1182 16.5754 23.1561C16.8497 23.1971 16.9746 23.3128 16.9501 23.5032C16.9365 23.609 16.8834 23.6873 16.7909 23.7382L15.8404 23.8549C15.6002 23.8837 15.3375 23.92 15.0523 23.9636C14.7909 23.9893 14.5374 24.0376 14.2917 24.1087C14.0699 24.1619 13.8769 24.2409 13.7129 24.3457C13.5727 24.4326 13.4944 24.5395 13.4781 24.6665C13.4101 25.1955 13.3731 25.9016 13.3671 26.7849C13.3849 27.6502 13.4037 28.5911 13.4235 29.6077C13.4672 30.6062 13.5187 31.6275 13.578 32.6715C13.6373 33.7155 13.6731 34.6913 13.6855 35.5989L19.5383 34.9855C19.6676 34.9833 19.7983 34.9704 19.9303 34.947C20.0412 34.9205 20.1508 34.9045 20.259 34.8991C20.3672 34.8937 20.4636 34.8973 20.5479 34.9099C20.7378 34.9383 20.8137 35.1006 20.7757 35.3969ZM31.662 37.6706C31.6457 37.7976 31.5872 37.9182 31.4865 38.0326C31.3857 38.1469 31.2653 38.2475 31.1251 38.3344C31.006 38.4244 30.8672 38.5007 30.7086 38.5633C30.5738 38.6079 30.4537 38.6223 30.3482 38.6065C29.9895 38.5529 29.5349 38.4095 28.9842 38.1762C28.4574 37.925 28.047 37.6049 27.7529 37.2159C27.4405 36.8026 27.1784 36.3321 26.9667 35.8044C26.7577 35.2556 26.5469 34.4693 26.3345 33.4456C25.9827 34.3419 25.5901 35.2213 25.1566 36.0839C24.7443 36.9496 24.1516 37.7128 23.3785 38.3737C23.3308 38.4097 23.2648 38.4214 23.1804 38.4088C23.0327 38.3867 22.884 38.289 22.7342 38.1157C22.5845 37.9423 22.5191 37.7816 22.5382 37.6335C22.5572 37.4854 22.5796 37.1437 22.6054 36.6084C22.6551 36.0551 22.701 35.4473 22.7431 34.7851C22.7879 34.1017 22.8328 33.4183 22.8776 32.7349C22.9463 32.0335 23.0092 31.4606 23.0663 31.0163C23.0935 30.8047 23.1394 30.5312 23.2041 30.1958C23.2714 29.8392 23.3741 29.5419 23.5123 29.3037C23.5388 29.2646 23.6235 29.191 23.7665 29.0829C23.9305 28.9781 24.0969 28.9382 24.2657 28.9634C24.4134 28.9855 24.4855 29.0933 24.4821 29.2869C24.4788 29.4805 24.4621 29.6937 24.4322 29.9264L23.7875 34.9412C23.7739 35.047 23.7654 35.1967 23.762 35.3902C23.7797 35.587 23.8148 35.7324 23.8672 35.8265C24.1646 35.3533 24.4517 34.7924 24.7287 34.1437C25.0294 33.477 25.3142 32.851 25.583 32.2658C25.8545 31.6594 26.1124 31.1588 26.3567 30.7639C26.6037 30.348 26.8221 30.1542 27.012 30.1826C27.223 30.2141 27.3864 30.2816 27.5021 30.3852C27.6178 30.4887 27.7015 30.6738 27.7533 30.9403C27.7799 31.5697 27.7936 32.1324 27.7943 32.6286C27.7978 33.1035 27.8172 33.5377 27.8526 33.9312C27.9092 34.3278 28.0001 34.708 28.1253 35.0718C28.2744 35.4176 28.4895 35.7516 28.7706 36.074C29.0307 36.3932 29.3319 36.6431 29.6742 36.8237C30.0377 37.0074 30.3566 37.1197 30.6308 37.1607C30.7574 37.1796 30.8973 37.1789 31.0504 37.1587C31.2063 37.1173 31.3159 37.1013 31.3792 37.1108C31.4636 37.1234 31.5279 37.2085 31.5721 37.3661C31.6375 37.5268 31.6675 37.6283 31.662 37.6706ZM42.6494 37.404C42.6222 37.6155 42.562 37.833 42.4688 38.0563C42.3783 38.2584 42.2919 38.4288 42.2095 38.5675C42.1592 38.6246 41.9302 38.8169 41.5225 39.1441C41.1387 39.4534 40.6572 39.7696 40.078 40.0928C39.52 40.4192 38.8922 40.7027 38.1946 40.9436C37.5208 41.1664 36.8885 41.2336 36.2977 41.1453C35.9391 41.0917 35.578 40.9731 35.2145 40.7894C34.8722 40.6088 34.5604 40.3574 34.2793 40.035C34.0009 39.6915 33.7834 39.2924 33.6268 38.8376C33.4913 38.3861 33.463 37.8535 33.5419 37.2399C33.6725 36.2242 33.9596 35.329 34.4033 34.5543C34.8469 33.7795 35.2689 33.174 35.669 32.7378C35.8466 32.5271 36.0664 32.3227 36.3284 32.1247C36.6143 31.9086 36.8855 31.7227 37.1421 31.5669C37.4013 31.39 37.6341 31.2523 37.8403 31.1537C38.0676 31.0583 38.2235 31.0169 38.3079 31.0295C38.4978 31.0579 38.6598 31.136 38.7938 31.2638C38.949 31.3949 39.0198 31.5133 39.0062 31.6191C38.9845 31.7883 38.9127 31.9286 38.7909 32.0398C38.6929 32.133 38.55 32.241 38.3621 32.3639C38.177 32.4656 37.9534 32.6155 37.6914 32.8136C37.4321 32.9905 37.1528 33.2399 36.8533 33.5618C36.2572 34.1843 35.7849 34.847 35.4365 35.5497C35.112 36.2345 34.9143 36.8519 34.8436 37.402C34.7729 37.9522 34.9162 38.4265 35.2735 38.8249C35.6547 39.2054 36.0668 39.4287 36.5099 39.4949C37.3117 39.6147 38.0416 39.5405 38.6997 39.2722C39.379 39.0071 39.9687 38.6855 40.4689 38.3073C40.9691 37.9292 41.3794 37.5808 41.7 37.2621C42.0205 36.9434 42.2441 36.7935 42.3707 36.8124C42.6027 36.8471 42.6957 37.0442 42.6494 37.404ZM53.1575 34.9953C53.1384 35.1435 53.0588 35.261 52.9186 35.3478C52.7811 35.4136 52.6239 35.4655 52.447 35.5038C52.27 35.542 52.0944 35.5697 51.9202 35.5868C51.7487 35.5828 51.6102 35.5728 51.5047 35.5571C51.1882 35.5098 50.9799 35.4571 50.8799 35.399C50.7798 35.3409 50.6981 35.3072 50.6348 35.2977C50.1073 35.2189 49.6799 35.1981 49.3526 35.2355C49.0252 35.2728 48.7543 35.3725 48.54 35.5346C48.3467 35.6998 48.1993 35.9258 48.098 36.2125C48.0204 36.4813 47.9558 36.8167 47.9041 37.2187C47.8171 37.8958 47.7688 38.4385 47.7593 38.8469C47.7709 39.2583 47.7815 39.5942 47.7911 39.8544C47.8217 40.1178 47.8486 40.3267 47.8718 40.4811C47.9187 40.6175 47.9341 40.7492 47.9178 40.8761C47.896 41.0454 47.7779 41.2111 47.5636 41.3731C47.3703 41.5384 47.1998 41.6099 47.0521 41.5879C46.7989 41.55 46.5954 41.2932 46.4415 40.8173C46.3115 40.3234 46.212 39.7586 46.1432 39.1229C46.0982 38.4692 46.073 37.8293 46.0675 37.2031C46.062 36.5768 46.0796 36.105 46.1204 35.7876C46.1667 35.4279 46.2418 35.0941 46.3459 34.7862C46.4528 34.4571 46.5739 34.1841 46.7093 33.9671C46.8474 33.7289 46.9893 33.5453 47.135 33.4161C47.2806 33.2869 47.4167 33.2317 47.5433 33.2506C47.6488 33.2664 47.7278 33.3213 47.7802 33.4154C47.8353 33.4884 47.8772 33.5809 47.9058 33.693C47.9371 33.7839 47.9684 33.8749 47.9997 33.9658C48.0549 34.0387 48.1246 34.0815 48.209 34.0941C48.3989 34.1225 48.7171 34.073 49.1636 33.9456C49.61 33.8183 50.1392 33.8003 50.7511 33.8917C51.3207 33.9769 51.74 34.0611 52.0088 34.1444C52.3015 34.2097 52.5782 34.3157 52.8389 34.4625C52.8995 34.4931 52.9665 34.5571 53.04 34.6543C53.1373 34.7335 53.1765 34.8472 53.1575 34.9953ZM61.0041 39.0469C60.9443 39.5124 60.8239 39.9473 60.6429 40.3516C60.4619 40.7558 60.2455 41.1009 59.9937 41.3868C59.7419 41.6726 59.4561 41.8887 59.1362 42.035C58.8401 42.1633 58.5233 42.2022 58.1857 42.1518C57.595 42.0635 57.1526 41.8248 56.8585 41.4358C56.5644 41.0468 56.351 40.616 56.2183 40.1433C56.1066 39.6737 56.0477 39.212 56.0415 38.7582C56.0591 38.2864 56.0829 37.9341 56.1128 37.7014C56.1618 37.3205 56.269 36.9052 56.4343 36.4555C56.6235 35.9877 56.8388 35.567 57.0804 35.1934C57.3431 34.8229 57.6187 34.519 57.9072 34.2818C58.1958 34.0446 58.4772 33.9464 58.7515 33.9874C58.8148 33.9969 58.907 34.0322 59.0282 34.0935C59.1704 34.1578 59.31 34.2434 59.4468 34.3501C59.5836 34.4568 59.6966 34.5815 59.7858 34.7242C59.896 34.8701 59.9614 35.0308 59.9818 35.2064C60.2112 35.2623 60.4324 35.3816 60.6454 35.5644C60.8585 35.7472 60.9701 35.8825 60.9803 35.9703C61.0784 36.5456 61.1132 37.1115 61.0847 37.668C61.0772 38.2276 61.0504 38.6872 61.0041 39.0469ZM59.6534 38.2628C59.6942 37.9454 59.7047 37.6127 59.6849 37.2647C59.6679 36.8955 59.5875 36.5169 59.4439 36.1288C59.399 36.1437 59.3449 36.1464 59.2816 36.1369C59.1972 36.1243 59.1247 36.1027 59.0641 36.0721C59.0246 36.0446 58.9838 36.0277 58.9416 36.0214C58.6884 35.9836 58.4785 36.0277 58.3117 36.1537C58.1477 36.2586 58.0085 36.4211 57.8942 36.6413C57.8037 36.8434 57.7316 37.0699 57.6779 37.3206C57.6241 37.5714 57.5823 37.8131 57.5524 38.0459C57.5224 38.2786 57.499 38.5447 57.482 38.8441C57.4677 39.1223 57.4759 39.3931 57.5066 39.6565C57.5583 39.923 57.6353 40.1609 57.7374 40.3703C57.8422 40.5585 58.0001 40.6683 58.2111 40.6999C58.4221 40.7314 58.6151 40.6524 58.7899 40.4629C58.9676 40.2522 59.1176 40.005 59.2401 39.7214C59.3626 39.4378 59.452 39.16 59.5085 38.8881C59.5888 38.5982 59.6371 38.3898 59.6534 38.2628ZM71.8521 32.5162C71.3901 33.9351 70.956 35.3044 70.5499 36.6239C70.3709 37.1794 70.1879 37.7667 70.0008 38.3857C69.8164 38.9836 69.632 39.5814 69.4476 40.1793C69.2871 40.7591 69.1292 41.3178 68.9741 41.8553C68.8428 42.3749 68.7275 42.8536 68.6282 43.2917C68.4567 43.9562 68.2942 44.719 68.1404 45.5802C67.9867 46.4415 67.8384 47.2604 67.6956 48.0369C67.5364 48.9405 67.397 49.8578 67.2773 50.7888C67.2528 50.9792 67.2045 51.1876 67.1324 51.4141C67.0603 51.6405 67.0092 51.8701 66.9793 52.1029C66.9521 52.3145 66.8762 52.4864 66.7517 52.6188C66.6483 52.7543 66.5016 52.8078 66.3117 52.7795C66.1429 52.7542 66.0235 52.5962 65.9533 52.3054C65.9016 52.0389 65.8672 51.721 65.8501 51.3519C65.8303 51.0038 65.833 50.6484 65.8582 50.2856C65.8806 49.9439 65.9013 49.699 65.9204 49.5508C65.9421 49.3816 65.9693 49.17 66.002 48.9161C66.0319 48.6833 66.0887 48.3252 66.1724 47.8417C66.2744 47.3825 66.406 46.7767 66.5673 46.0245C66.7312 45.251 66.9567 44.2496 67.2438 43.0201C67.2465 42.9989 67.1124 42.8711 66.8415 42.6365C66.5917 42.4051 66.2735 42.1203 65.8869 41.7822C65.5241 41.4261 65.1429 41.0456 64.7434 40.6408C64.3649 40.2392 64.0484 39.8577 63.7938 39.4961C63.757 39.4475 63.706 39.3428 63.6406 39.1821C63.5753 39.0214 63.5562 38.8352 63.5834 38.6236C63.597 38.5178 63.6633 38.4199 63.7824 38.3299C63.9043 38.2187 64.0285 38.1726 64.1551 38.1915C64.2395 38.2041 64.3184 38.259 64.3919 38.3563C64.8228 38.852 65.3207 39.4116 65.8857 40.0352C66.4534 40.6376 67.016 41.1961 67.5734 41.7107C67.6646 41.3362 67.8238 40.7669 68.051 40.0029C68.2994 39.2421 68.5545 38.4284 68.8165 37.5618C69.0811 36.674 69.3311 35.8164 69.5666 34.9889C69.8231 34.1646 70.0156 33.5033 70.1442 33.0049C70.1551 32.9203 70.1938 32.7859 70.2605 32.6018C70.3272 32.4177 70.415 32.2367 70.5239 32.0589C70.6327 31.8811 70.7481 31.7366 70.8699 31.6254C70.9944 31.493 71.12 31.4363 71.2466 31.4552C71.3099 31.4647 71.4389 31.5486 71.6335 31.7071C71.8309 31.8445 71.9038 32.1141 71.8521 32.5162ZM88.1418 43.361C88.0929 43.7419 87.8523 44.1912 87.4202 44.7089C87.0119 45.2086 86.4783 45.6787 85.8195 46.1194C85.1608 46.5601 84.4166 46.9126 83.5869 47.1768C82.76 47.4199 81.9246 47.4783 81.0806 47.3522C80.7008 47.2954 80.3081 47.1721 79.9025 46.9821C79.4968 46.792 79.1085 46.5507 78.7375 46.258C78.3693 45.9442 78.0487 45.5944 77.7757 45.2086C77.5055 44.8016 77.3251 44.3649 77.2345 43.8984C77.0916 44.0065 76.9061 44.1944 76.6782 44.4623C76.4713 44.7333 76.242 45.0117 75.9902 45.2976C75.7411 45.5623 75.475 45.7921 75.1919 45.987C74.9115 46.1608 74.6342 46.2271 74.3599 46.1861C74.0856 46.1452 73.8712 45.9729 73.7166 45.6695C73.5859 45.348 73.4896 45.0102 73.4276 44.6559C73.3684 44.2804 73.3381 43.9308 73.3367 43.6071C73.3353 43.2834 73.3373 43.1004 73.3427 43.0581C73.3754 42.8042 73.5104 42.3391 73.7479 41.6629C73.9881 40.9656 74.3048 40.2581 74.6981 39.5405C75.0914 38.823 75.5477 38.201 76.067 37.6748C76.6073 37.1517 77.1834 36.9359 77.7953 37.0273C78.0274 37.062 78.1615 37.1899 78.1976 37.4109C78.2575 37.6139 78.2752 37.8107 78.2507 38.0011L78.1283 38.9533C78.2229 39.0537 78.3203 39.1329 78.4203 39.191C78.5442 39.2311 78.6442 39.2892 78.7205 39.3653C78.8205 39.4233 78.8849 39.5084 78.9135 39.6205C78.9631 39.7358 78.973 39.9098 78.9431 40.1425C78.9241 40.2907 78.8958 40.4266 78.8584 40.5504C78.8237 40.6531 78.7996 40.7573 78.786 40.8631C78.7152 41.4132 78.6881 41.9591 78.7045 42.5007C78.7209 43.0423 78.8284 43.5436 79.0272 44.0046C79.2287 44.4445 79.5333 44.835 79.9411 45.1763C80.3515 45.4964 80.926 45.7117 81.6644 45.822C82.5928 45.9607 83.3979 45.887 84.0799 45.6007C84.7856 45.2964 85.3794 44.943 85.8612 44.5406C86.3669 44.1201 86.7708 43.7384 87.0729 43.3954C87.3778 43.0312 87.6146 42.8617 87.7834 42.8869C88.0577 42.9279 88.1772 43.0859 88.1418 43.361ZM77.2127 40.3045C77.2236 40.2199 77.212 40.1426 77.178 40.0729C77.1466 39.9819 77.1351 39.9047 77.1432 39.8412C77.1541 39.7566 77.1847 39.6857 77.2351 39.6285C77.2854 39.5713 77.3174 39.4899 77.331 39.3841C77.3392 39.3206 77.3235 39.2751 77.284 39.2477C77.2473 39.199 77.2316 39.1536 77.2371 39.1112C77.0417 39.1252 76.8182 39.2751 76.5664 39.5609C76.3357 39.85 76.0982 40.1919 75.8539 40.5867C75.6307 40.9846 75.4378 41.3979 75.2752 41.8265C75.1153 42.2339 75.0176 42.5751 74.9823 42.8502C74.9632 42.9983 74.9742 43.248 75.015 43.5991C75.0559 43.9503 75.1223 44.1866 75.2142 44.3082C75.6681 43.6212 76.0876 42.9507 76.4727 42.2966C76.879 41.6456 77.1256 40.9816 77.2127 40.3045ZM96.0269 44.8304C95.9045 45.7826 95.681 46.6011 95.3564 47.2858C95.0529 47.9737 94.7117 48.5373 94.3326 48.9767C93.9563 49.3949 93.5844 49.6951 93.2168 49.8774C92.8704 50.0629 92.5917 50.1399 92.3808 50.1083C92.0854 50.0642 91.8168 49.8947 91.5752 49.5998C91.3363 49.2837 91.2318 49.0093 91.2617 48.7766C91.3052 48.438 91.4641 48.2892 91.7384 48.3302C91.8439 48.346 91.944 48.4041 92.0386 48.5045C92.1359 48.5837 92.2241 48.6508 92.303 48.7057C92.6998 48.4631 93.0999 48.0269 93.5035 47.3971C93.9281 46.7704 94.2207 45.8329 94.3812 44.5845C94.4464 44.0767 94.4522 43.6139 94.3984 43.1961C94.3446 42.7783 94.2615 42.4209 94.1492 42.1237C94.0579 41.8297 93.948 41.5976 93.8193 41.4275C93.6907 41.2573 93.5947 41.1674 93.5314 41.158C93.3204 41.1265 93.0822 41.3065 92.8168 41.6982C92.5725 42.093 92.3412 42.5544 92.1228 43.0825C91.9071 43.5894 91.7125 44.0995 91.539 44.6127C91.3893 45.1079 91.3022 45.4507 91.2777 45.6411C91.2825 45.7712 91.2886 45.8908 91.2961 45.9997C91.3036 46.1087 91.3111 46.2176 91.3186 46.3266C91.3261 46.4355 91.3231 46.5429 91.3095 46.6487C91.2578 47.0507 91.0744 47.3899 90.7593 47.6663C90.4442 47.9427 90.1601 48.062 89.9069 48.0242C89.7803 48.0053 89.6857 47.9049 89.623 47.723C89.5842 47.5231 89.5614 47.2824 89.5546 47.0011C89.5477 46.7197 89.5422 46.4277 89.5381 46.1252C89.5551 45.8258 89.5575 45.5566 89.5452 45.3175C89.4254 44.9115 89.2814 44.2753 89.1132 43.4091C88.945 42.5429 88.7625 41.6207 88.5657 40.6424C88.3927 39.6461 88.2262 38.6831 88.0661 37.7534C87.9272 36.8269 87.8284 36.0897 87.7698 35.5418C87.6213 34.355 87.5277 33.3275 87.4888 32.459C87.4315 31.5663 87.4015 30.7962 87.3987 30.1488C87.3775 29.4771 87.3863 28.9069 87.4251 28.4383C87.4638 27.9696 87.5036 27.5766 87.5444 27.2592C87.5689 27.0688 87.6723 26.9333 87.8547 26.8527C88.016 26.769 88.1599 26.7366 88.2865 26.7555C88.4764 26.7839 88.6081 26.8467 88.6816 26.9439C88.7579 27.02 88.8021 27.1776 88.8144 27.4166C88.8056 27.6526 88.7937 27.9958 88.7788 28.4465C88.7428 28.894 88.7193 29.4943 88.7085 30.2475C88.7045 30.6135 88.7144 31.1218 88.7383 31.7723C88.7833 32.426 88.8504 33.1585 88.9396 33.9698C89.0289 34.781 89.1232 35.6362 89.2227 36.5352C89.346 37.4163 89.4733 38.2656 89.6048 39.0832C89.7573 39.9039 89.9075 40.6596 90.0552 41.3502C90.2241 42.044 90.3895 42.5971 90.5516 43.0094C90.8394 42.2761 91.1599 41.6231 91.5131 41.0505C91.8104 40.5773 92.1551 40.1544 92.5471 39.7817C92.9418 39.3878 93.3818 39.2271 93.8671 39.2996C94.057 39.328 94.2993 39.4504 94.594 39.667C94.8887 39.8836 95.1579 40.2149 95.4017 40.6611C95.6665 41.1104 95.8622 41.6788 95.9888 42.3663C96.1366 43.0569 96.1493 43.8783 96.0269 44.8304ZM102.488 51.2951C102.466 51.4644 102.386 51.5819 102.249 51.6476C102.111 51.7134 101.958 51.7336 101.789 51.7084C101.599 51.68 101.422 51.4702 101.257 51.079C101.114 50.6909 100.982 50.2076 100.863 49.6291C100.744 49.0505 100.641 48.4313 100.554 47.7713C100.469 47.0901 100.399 46.465 100.343 45.896C100.29 45.3058 100.246 44.8139 100.21 44.4204C100.196 44.0301 100.191 43.8138 100.197 43.7715C100.208 43.6868 100.194 43.4583 100.156 43.086C100.139 42.7169 100.116 42.142 100.087 41.3613C100.08 40.5838 100.08 39.581 100.087 38.3528C100.118 37.1067 100.176 35.5733 100.259 33.7527C100.284 33.5623 100.347 33.3237 100.448 33.0369C100.549 32.7501 100.716 32.6241 100.948 32.6588C101.243 32.7029 101.439 32.937 101.535 33.3611C101.652 33.7884 101.715 34.3045 101.723 34.9096C101.753 35.5178 101.746 36.1531 101.704 36.8153C101.665 37.4564 101.645 38.025 101.646 38.5211C101.643 39.2108 101.638 39.8355 101.631 40.3951C101.645 40.9578 101.648 41.519 101.64 42.0786C101.657 42.6202 101.679 43.1951 101.709 43.8033C101.759 44.4147 101.823 45.0927 101.899 45.8373L102.488 51.2951ZM114.063 50.5664C114.078 50.6118 114.081 50.6769 114.07 50.7615C114.053 50.8885 113.934 51.0647 113.711 51.2903C113.637 51.3654 113.482 51.4825 113.247 51.6414C113.011 51.8003 112.702 51.9482 112.319 52.085C111.936 52.2218 111.471 52.3249 110.924 52.3942C110.399 52.4666 109.788 52.4508 109.092 52.3468C108.607 52.2742 108.146 52.0975 107.709 51.8166C107.274 51.5144 106.905 51.125 106.601 50.6482C106.299 50.1503 106.073 49.5666 105.923 48.8971C105.775 48.2065 105.757 47.4274 105.868 46.5599C105.974 45.7347 106.179 44.9781 106.483 44.2903C106.786 43.6024 107.132 43.007 107.519 42.5042C107.927 42.0045 108.352 41.6259 108.794 41.3684C109.235 41.1109 109.646 41.0105 110.026 41.0673C110.364 41.1177 110.692 41.2423 111.01 41.4408C111.352 41.6214 111.647 41.8379 111.894 42.0905C112.162 42.3462 112.363 42.6243 112.497 42.9246C112.633 43.2037 112.683 43.4808 112.648 43.7559C112.607 44.0732 112.417 44.3791 112.078 44.6736C111.761 44.9711 111.382 45.2381 110.943 45.4744C110.507 45.6895 110.076 45.8624 109.651 45.9929C109.228 46.1023 108.901 46.1396 108.669 46.1049C108.542 46.086 108.433 46.0158 108.341 45.8942C108.273 45.7547 108.25 45.6002 108.271 45.431C108.31 45.1347 108.466 44.9209 108.741 44.7895C109.037 44.6612 109.351 44.5572 109.684 44.4775C110.02 44.3767 110.326 44.25 110.604 44.0974C110.903 43.948 111.074 43.704 111.118 43.3654C111.123 43.3231 111.084 43.2094 111 43.0244C110.916 42.8394 110.642 42.7122 110.178 42.6428C109.967 42.6113 109.708 42.702 109.401 42.9149C109.097 43.1066 108.791 43.3952 108.484 43.7805C108.179 44.1447 107.905 44.5999 107.663 45.1459C107.423 45.6709 107.262 46.2613 107.177 46.9172C107.106 47.4674 107.137 47.9788 107.27 48.4515C107.424 48.9274 107.639 49.3477 107.915 49.7123C108.193 50.0559 108.532 50.3438 108.933 50.5761C109.333 50.8085 109.754 50.9577 110.197 51.0239C110.514 51.0712 110.86 51.0582 111.235 50.9848C111.634 50.8935 112.001 50.7974 112.336 50.6966C112.696 50.5777 112.999 50.4722 113.248 50.3799C113.52 50.2696 113.688 50.2192 113.751 50.2287C113.814 50.2381 113.874 50.2793 113.929 50.3523C114.005 50.4284 114.05 50.4997 114.063 50.5664Z" fill="white"/>
<path d="M26.2306 49.1552C39.6344 48.0356 53.1905 51.1212 66.4974 52.6629C72.2097 53.3247 77.8131 53.8891 83.5082 54.825C84.3611 54.9651 90.0483 55.1578 89.9034 55.7795C89.6693 56.7837 81.7783 57.0827 81.0899 57.1544C72.2733 58.0725 63.9105 56.4535 55.16 54.8477C50.7126 54.0315 46.3185 53.6465 41.8433 53.0696C39.9115 52.8206 35.7239 51.1214 33.8401 52.1717C33.7873 52.2011 35.4606 53.0305 35.7062 53.1823C40.6697 56.2508 46.6188 58.0712 52.2404 59.383C53.691 59.7215 58.0759 60.5519 56.6064 60.3272C54.8884 60.0646 52.8684 61.4059 51.4392 62.098C50.678 62.4667 44.715 64.7624 46.4932 66.1172" stroke="white" stroke-linecap="round" stroke-linejoin="round"/>
</svg>
