<svg width="89" height="97" viewBox="0 0 89 97" fill="none" xmlns="http://www.w3.org/2000/svg">
<path d="M68.8796 80.2455C69.9249 83.6655 72.0334 87.5897 72.2688 91.6729C72.3194 92.5494 67.5631 92.4835 66.6367 92.6789C63.7497 93.2879 62.178 92.6962 59.7081 91.6464C58.5071 91.136 63.5257 90.7374 63.9672 88.7819C64.4679 86.5646 52.01 73.3009 51.2093 71.8853C47.0565 64.5435 42.885 57.5469 39.3909 49.4384C37.3607 44.7271 33.5964 39.526 34.2111 33.0003" stroke="black" stroke-linecap="round" stroke-linejoin="round"/>
<path d="M19.456 20.296C19.488 20.392 19.52 20.48 19.552 20.56C19.584 20.64 19.608 20.728 19.624 20.824C19.656 20.92 19.672 21.008 19.672 21.088C19.672 21.2 19.632 21.288 19.552 21.352C19.472 21.432 19.376 21.496 19.264 21.544C19.168 21.592 19.072 21.624 18.976 21.64C18.88 21.656 18.824 21.664 18.808 21.664C18.712 21.664 18.536 21.368 18.28 20.776C18.024 20.2 17.744 19.384 17.44 18.328C17.152 17.272 16.856 16.016 16.552 14.56C16.248 13.104 16 11.504 15.808 9.76C15.776 10.128 15.712 10.56 15.616 11.056C15.536 11.536 15.408 11.992 15.232 12.424C15.056 12.856 14.824 13.224 14.536 13.528C14.264 13.816 13.912 13.96 13.48 13.96C13.176 13.96 12.832 13.8 12.448 13.48C12.064 13.16 11.688 12.784 11.32 12.352C10.968 11.904 10.64 11.456 10.336 11.008C10.048 10.544 9.832 10.168 9.688 9.88C9.752 10.584 9.856 11.432 10 12.424C10.16 13.416 10.4 14.464 10.72 15.568C10.752 15.68 10.784 15.768 10.816 15.832C10.864 15.88 10.904 15.936 10.936 16C10.984 16.064 11.016 16.136 11.032 16.216C11.064 16.28 11.08 16.384 11.08 16.528C11.08 16.736 11 16.888 10.84 16.984C10.68 17.08 10.528 17.128 10.384 17.128C10.304 17.128 10.2 17.008 10.072 16.768C9.944 16.512 9.808 16.184 9.664 15.784C9.52 15.384 9.376 14.944 9.232 14.464C9.088 13.968 8.952 13.48 8.824 13C8.712 12.52 8.616 12.072 8.536 11.656C8.456 11.224 8.416 10.88 8.416 10.624C8.416 10.208 8.432 9.92 8.464 9.76C8.512 9.6 8.576 9.48 8.656 9.4V7.936C8.656 7.712 8.712 7.544 8.824 7.432C8.952 7.304 9.112 7.24 9.304 7.24C9.464 7.24 9.648 7.376 9.856 7.648C10.064 7.92 10.288 8.264 10.528 8.68C10.784 9.096 11.048 9.544 11.32 10.024C11.592 10.504 11.856 10.952 12.112 11.368C12.384 11.784 12.64 12.128 12.88 12.4C13.136 12.672 13.376 12.808 13.6 12.808C13.808 12.808 14.008 12.616 14.2 12.232C14.392 11.832 14.568 11.312 14.728 10.672C14.904 10.032 15.056 9.304 15.184 8.488C15.312 7.672 15.416 6.84 15.496 5.992C15.496 5.896 15.488 5.792 15.472 5.68C15.456 5.552 15.448 5.416 15.448 5.272C15.448 5.08 15.488 4.872 15.568 4.648C15.664 4.424 15.84 4.312 16.096 4.312C16.24 4.312 16.352 4.352 16.432 4.432C16.528 4.512 16.592 4.616 16.624 4.744C16.656 4.856 16.672 4.976 16.672 5.104C16.688 5.216 16.696 5.312 16.696 5.392C16.696 5.52 16.68 5.736 16.648 6.04C16.632 6.328 16.624 6.776 16.624 7.384C16.624 7.912 16.664 8.528 16.744 9.232C16.824 9.92 16.928 10.656 17.056 11.44C17.2 12.208 17.36 13.008 17.536 13.84C17.728 14.656 17.928 15.456 18.136 16.24C18.36 17.024 18.576 17.768 18.784 18.472C19.008 19.16 19.232 19.768 19.456 20.296ZM24.5607 13.816C24.5607 14.168 24.5127 14.504 24.4167 14.824C24.3207 15.144 24.1927 15.424 24.0327 15.664C23.8727 15.904 23.6807 16.096 23.4567 16.24C23.2487 16.368 23.0167 16.432 22.7607 16.432C22.3127 16.432 21.9607 16.304 21.7047 16.048C21.4487 15.792 21.2487 15.496 21.1047 15.16C20.9767 14.824 20.8887 14.488 20.8407 14.152C20.8087 13.8 20.7927 13.536 20.7927 13.36C20.7927 13.072 20.8327 12.752 20.9127 12.4C21.0087 12.032 21.1287 11.696 21.2727 11.392C21.4327 11.088 21.6087 10.832 21.8007 10.624C21.9927 10.416 22.1927 10.312 22.4007 10.312C22.4487 10.312 22.5207 10.328 22.6167 10.36C22.7287 10.392 22.8407 10.44 22.9527 10.504C23.0647 10.568 23.1607 10.648 23.2407 10.744C23.3367 10.84 23.4007 10.952 23.4327 11.08C23.6087 11.096 23.7847 11.16 23.9607 11.272C24.1367 11.384 24.2327 11.472 24.2487 11.536C24.3767 11.952 24.4567 12.368 24.4887 12.784C24.5367 13.2 24.5607 13.544 24.5607 13.816ZM23.4807 13.384C23.4807 13.144 23.4567 12.896 23.4087 12.64C23.3607 12.368 23.2647 12.096 23.1207 11.824C23.0887 11.84 23.0487 11.848 23.0007 11.848C22.9367 11.848 22.8807 11.84 22.8327 11.824C22.8007 11.808 22.7687 11.8 22.7367 11.8C22.5447 11.8 22.3927 11.856 22.2807 11.968C22.1687 12.064 22.0807 12.2 22.0167 12.376C21.9687 12.536 21.9367 12.712 21.9207 12.904C21.9047 13.096 21.8967 13.28 21.8967 13.456C21.8967 13.632 21.9047 13.832 21.9207 14.056C21.9367 14.264 21.9687 14.464 22.0167 14.656C22.0807 14.848 22.1607 15.016 22.2567 15.16C22.3527 15.288 22.4807 15.352 22.6407 15.352C22.8007 15.352 22.9367 15.272 23.0487 15.112C23.1607 14.936 23.2487 14.736 23.3127 14.512C23.3767 14.288 23.4167 14.072 23.4327 13.864C23.4647 13.64 23.4807 13.48 23.4807 13.384ZM33.3513 8.152C33.1433 8.392 32.8473 8.632 32.4633 8.872C32.0793 9.096 31.6953 9.304 31.3113 9.496C30.9273 9.688 30.5913 9.856 30.3033 10C30.0153 10.128 29.8713 10.216 29.8713 10.264C29.8713 10.312 29.9033 10.456 29.9673 10.696C30.0313 10.936 30.1033 11.224 30.1833 11.56C30.2793 11.88 30.3753 12.216 30.4713 12.568C30.5673 12.92 30.6473 13.232 30.7113 13.504C30.7433 13.664 30.7833 13.872 30.8313 14.128C30.8793 14.384 30.9193 14.64 30.9513 14.896C30.9993 15.152 31.0393 15.384 31.0713 15.592C31.1033 15.784 31.1193 15.888 31.1193 15.904C31.1193 16.144 31.0793 16.392 30.9993 16.648C30.9193 16.904 30.7913 17.032 30.6153 17.032C30.5193 17.032 30.4313 16.992 30.3513 16.912C30.2713 16.832 30.1993 16.744 30.1353 16.648C30.0713 16.536 30.0233 16.432 29.9913 16.336C29.9593 16.24 29.9433 16.168 29.9433 16.12C29.9433 16.088 29.9433 16.04 29.9433 15.976C29.9593 15.912 29.9673 15.84 29.9673 15.76C29.9673 15.456 29.9193 15.016 29.8233 14.44C29.7913 14.264 29.7273 13.992 29.6313 13.624C29.5353 13.256 29.4393 12.88 29.3433 12.496C29.2313 12.048 29.1033 11.56 28.9593 11.032C28.8953 10.808 28.8553 10.696 28.8393 10.696C28.7273 10.696 28.5353 10.768 28.2633 10.912C28.0073 11.04 27.7113 11.208 27.3753 11.416C27.0393 11.608 26.6873 11.824 26.3193 12.064C25.9512 12.288 25.6072 12.504 25.2872 12.712C24.9672 12.904 24.6952 13.072 24.4712 13.216C24.2312 13.344 24.0872 13.408 24.0392 13.408C23.8312 13.408 23.6632 13.336 23.5352 13.192C23.4072 13.048 23.3432 12.888 23.3432 12.712C23.3432 12.616 23.4792 12.48 23.7512 12.304C24.0072 12.112 24.3352 11.904 24.7352 11.68C25.1192 11.456 25.5432 11.224 26.0072 10.984C26.4553 10.744 26.8713 10.528 27.2553 10.336C27.6553 10.144 27.9833 9.984 28.2393 9.856C28.5113 9.728 28.6473 9.664 28.6473 9.664C28.5033 8.928 28.3833 8.272 28.2873 7.696C28.2073 7.2 28.1273 6.744 28.0473 6.328C27.9833 5.912 27.9513 5.688 27.9513 5.656C27.9513 5.448 27.9913 5.296 28.0713 5.2C28.1673 5.088 28.2713 5.032 28.3833 5.032C28.5593 5.032 28.6713 5.152 28.7193 5.392C28.8953 6.256 29.0553 7.024 29.1992 7.696C29.3593 8.368 29.5113 8.912 29.6553 9.328C29.7993 9.296 30.0473 9.208 30.3993 9.064C30.7513 8.904 31.1193 8.736 31.5033 8.56C31.8873 8.384 32.2313 8.232 32.5353 8.104C32.8553 7.96 33.0393 7.888 33.0872 7.888C33.1833 7.888 33.2393 7.92 33.2553 7.984C33.2873 8.048 33.3193 8.104 33.3513 8.152ZM36.0713 7.96C36.0713 7.992 36.0153 8.056 35.9033 8.152C35.7913 8.248 35.6553 8.352 35.4953 8.464C35.3513 8.56 35.1993 8.648 35.0393 8.728C34.8793 8.808 34.7513 8.848 34.6553 8.848C34.5913 8.848 34.5033 8.848 34.3913 8.848C34.2953 8.832 34.1913 8.8 34.0793 8.752C33.9833 8.704 33.8953 8.64 33.8153 8.56C33.7353 8.464 33.6953 8.344 33.6953 8.2C33.6953 7.976 33.7753 7.768 33.9353 7.576C34.0953 7.368 34.3033 7.264 34.5593 7.264C34.6073 7.264 34.7113 7.288 34.8713 7.336C35.0473 7.368 35.2233 7.416 35.3993 7.48C35.5753 7.544 35.7273 7.616 35.8553 7.696C35.9993 7.776 36.0713 7.864 36.0713 7.96ZM36.8633 16.936C36.8633 17.048 36.7753 17.144 36.5993 17.224C36.4393 17.304 36.3193 17.344 36.2393 17.344C36.0793 17.344 35.9353 17.24 35.8073 17.032C35.6793 16.824 35.5673 16.584 35.4713 16.312C35.3753 16.04 35.2953 15.784 35.2313 15.544C35.1673 15.288 35.1193 15.112 35.0873 15.016C35.0393 14.856 34.9753 14.664 34.8953 14.44C34.8153 14.216 34.7353 14 34.6553 13.792C34.5913 13.584 34.5353 13.4 34.4873 13.24C34.4393 13.08 34.4153 12.992 34.4153 12.976C34.4153 12.752 34.4553 12.544 34.5353 12.352C34.6313 12.16 34.7433 12.064 34.8713 12.064C35.0153 12.064 35.1673 12.176 35.3273 12.4C35.4873 12.624 35.6393 12.912 35.7833 13.264C35.9433 13.6 36.0873 13.976 36.2153 14.392C36.3433 14.792 36.4553 15.176 36.5513 15.544C36.6473 15.896 36.7193 16.208 36.7673 16.48C36.8313 16.736 36.8633 16.888 36.8633 16.936ZM46.2299 1.792C46.2459 1.824 46.2539 1.88 46.2539 1.96C46.2539 2.04 46.2539 2.128 46.2539 2.224C46.2539 2.336 46.2139 2.392 46.1339 2.392C46.1019 2.392 46.0619 2.384 46.0139 2.368C45.9659 2.352 45.9259 2.336 45.8939 2.32C45.6059 2.192 45.2539 2.032 44.8379 1.84C44.4379 1.632 43.9819 1.528 43.4699 1.528C42.8939 1.528 42.4299 1.744 42.0779 2.176C41.7259 2.608 41.4539 3.112 41.2619 3.688C41.0859 4.248 40.9659 4.8 40.9019 5.344C40.8539 5.888 40.8299 6.28 40.8299 6.52C40.8299 6.696 40.8539 6.976 40.9019 7.36C40.9659 7.728 41.0459 8.112 41.1419 8.512C41.2379 8.912 41.3499 9.28 41.4779 9.616C41.6059 9.936 41.7339 10.136 41.8619 10.216C41.9579 10.216 42.1259 10.208 42.3659 10.192C42.6219 10.176 42.8299 10.168 42.9899 10.168C43.2619 10.168 43.5179 10.192 43.7579 10.24C43.9979 10.288 44.2459 10.312 44.5019 10.312C44.5659 10.312 44.6619 10.312 44.7899 10.312C44.9179 10.312 45.0459 10.32 45.1739 10.336C45.3179 10.352 45.4379 10.384 45.5339 10.432C45.6299 10.464 45.6779 10.512 45.6779 10.576C45.6779 10.656 45.6219 10.728 45.5099 10.792C45.3979 10.856 45.2699 10.912 45.1259 10.96C44.9819 10.992 44.8379 11.016 44.6939 11.032C44.5499 11.048 44.4379 11.056 44.3579 11.056C44.2779 11.056 44.1739 11.056 44.0459 11.056C43.9179 11.04 43.7739 11.024 43.6139 11.008C43.4699 10.992 43.3259 10.984 43.1819 10.984C43.0539 10.968 42.9419 10.96 42.8459 10.96C42.5899 10.96 42.4299 10.992 42.3659 11.056C42.3179 11.104 42.2939 11.208 42.2939 11.368C42.2939 11.608 42.3979 11.936 42.6059 12.352C42.8299 12.752 43.0699 13.184 43.3259 13.648C43.5819 14.112 43.8139 14.592 44.0219 15.088C44.2459 15.584 44.3579 16.04 44.3579 16.456C44.3579 16.536 44.3339 16.688 44.2859 16.912C44.2539 17.12 44.1979 17.336 44.1179 17.56C44.0539 17.784 43.9579 17.984 43.8299 18.16C43.7019 18.336 43.5579 18.424 43.3979 18.424C43.2699 18.424 43.1499 18.392 43.0379 18.328C42.9419 18.248 42.8939 18.12 42.8939 17.944C42.8939 17.688 42.9579 17.448 43.0859 17.224C43.2299 17 43.3019 16.76 43.3019 16.504C43.3019 16.376 43.2379 16.16 43.1099 15.856C42.9979 15.552 42.8539 15.216 42.6779 14.848C42.5019 14.464 42.3099 14.064 42.1019 13.648C41.8939 13.232 41.6939 12.856 41.5019 12.52C41.3259 12.168 41.1739 11.88 41.0459 11.656C40.9179 11.432 40.8459 11.312 40.8299 11.296C40.5099 11.408 40.1819 11.52 39.8459 11.632C39.5099 11.744 39.2059 11.912 38.9339 12.136C38.8219 12.248 38.7179 12.304 38.6219 12.304C38.4619 12.304 38.3099 12.24 38.1659 12.112C38.0379 11.984 37.9739 11.84 37.9739 11.68C37.9739 11.504 38.0219 11.368 38.1179 11.272C38.2299 11.16 38.3339 11.08 38.4299 11.032C38.5739 10.952 38.7979 10.864 39.1019 10.768C39.4059 10.672 39.7099 10.592 40.0139 10.528C40.1259 10.496 40.2299 10.472 40.3259 10.456C40.4219 10.424 40.4699 10.368 40.4699 10.288C40.4219 10.128 40.3499 9.92 40.2539 9.664C40.1739 9.392 40.0859 9.072 39.9899 8.704C39.9099 8.336 39.8379 7.928 39.7739 7.48C39.7099 7.016 39.6779 6.52 39.6779 5.992C39.6779 5.416 39.7419 4.808 39.8699 4.168C40.0139 3.528 40.2299 2.944 40.5179 2.416C40.8219 1.872 41.1979 1.432 41.6459 1.096C42.0939 0.743999 42.6299 0.568 43.2539 0.568C43.5419 0.568 43.8619 0.599999 44.2139 0.663999C44.5659 0.711999 44.8859 0.791999 45.1739 0.904C45.4779 1 45.7259 1.128 45.9179 1.288C46.1259 1.432 46.2299 1.6 46.2299 1.792Z" fill="black"/>
<path d="M1 27.4992C12.7921 23.2931 25.4186 23.5297 37.566 22.1786C42.7807 21.5986 47.8817 20.9394 53.1265 20.6551C53.9119 20.6125 59.0262 19.5388 58.9999 20.2332C58.9575 21.3548 51.9555 23.4475 51.3522 23.6787C43.626 26.6386 35.8838 26.7957 27.7974 27.0539C23.6876 27.1851 19.6969 27.7633 15.6019 28.1555C13.8344 28.3248 9.81003 27.4576 8.30097 28.9993C8.25865 29.0425 9.89169 29.5492 10.1364 29.6556C15.0815 31.8061 20.7001 32.4062 25.9416 32.5386C27.2941 32.5727 31.3504 32.4707 30 32.562C28.4211 32.6687 26.8387 34.5509 25.6765 35.6091C25.0574 36.1727 20.1099 39.9575 21.924 41" stroke="black" stroke-linecap="round" stroke-linejoin="round"/>
</svg>
