<svg width="106" height="91" viewBox="0 0 106 91" fill="none" xmlns="http://www.w3.org/2000/svg">
<path d="M8.61342 15.4C6.3136 12.5991 2.83819 9.749 1.02433 5.99999C0.634928 5.19513 5.0381 3.35447 5.81417 2.79999C8.23294 1.07183 9.91089 0.999991 12.5946 0.999992C13.8996 0.999992 9.43682 3.38283 9.79533 5.39999C10.2019 7.68739 26.8554 15.1879 28.146 16.2C34.8397 21.4491 41.4156 26.3658 47.803 32.6C51.5143 36.2223 57.0131 39.6119 59 46" stroke="black" stroke-linecap="round" stroke-linejoin="round"/>
<path d="M50.456 64.312C50.456 64.856 50.304 65.32 50 65.704C49.712 66.088 49.208 66.28 48.488 66.28C47.992 66.28 47.488 66.192 46.976 66.016C46.48 65.84 45.992 65.608 45.512 65.32C45.032 65.032 44.568 64.696 44.12 64.312C43.688 63.928 43.296 63.528 42.944 63.112C42.912 63.256 42.864 63.464 42.8 63.736C42.736 64.008 42.656 64.28 42.56 64.552C42.464 64.824 42.352 65.064 42.224 65.272C42.112 65.464 41.992 65.56 41.864 65.56C41.656 65.56 41.424 65.456 41.168 65.248C40.928 65.04 40.68 64.768 40.424 64.432C40.184 64.08 39.944 63.68 39.704 63.232C39.48 62.784 39.28 62.32 39.104 61.84C38.64 60.512 38.344 59.472 38.216 58.72C38.088 57.952 38.024 57.536 38.024 57.472C38.024 57.376 38.04 57.288 38.072 57.208C38.104 57.128 38.176 57.088 38.288 57.088C38.464 57.088 38.592 57.144 38.672 57.256C38.768 57.352 38.832 57.48 38.864 57.64C38.944 57.976 39.048 58.368 39.176 58.816C39.32 59.248 39.472 59.696 39.632 60.16C39.808 60.624 39.984 61.08 40.16 61.528C40.352 61.96 40.536 62.352 40.712 62.704C40.888 63.056 41.056 63.344 41.216 63.568C41.376 63.776 41.512 63.88 41.624 63.88C41.736 63.88 41.816 63.792 41.864 63.616C41.928 63.424 41.976 63.208 42.008 62.968C42.04 62.728 42.056 62.496 42.056 62.272C42.072 62.048 42.08 61.896 42.08 61.816C42 61.672 41.936 61.504 41.888 61.312C41.856 61.12 41.84 60.96 41.84 60.832C41.84 60.624 41.888 60.448 41.984 60.304C42.096 60.16 42.2 60.088 42.296 60.088C42.36 60.088 42.4 60.096 42.416 60.112C42.448 60.128 42.488 60.144 42.536 60.16C42.584 60.16 42.624 60.16 42.656 60.16C42.688 60.144 42.728 60.136 42.776 60.136C42.808 60.136 42.84 60.152 42.872 60.184C42.92 60.2 42.968 60.264 43.016 60.376C43.224 60.92 43.52 61.48 43.904 62.056C44.288 62.632 44.72 63.152 45.2 63.616C45.68 64.08 46.2 64.464 46.76 64.768C47.32 65.072 47.888 65.224 48.464 65.224C48.672 65.224 48.864 65.16 49.04 65.032C49.216 64.888 49.304 64.704 49.304 64.48C49.304 63.808 49.232 63.12 49.088 62.416C48.96 61.712 48.776 60.992 48.536 60.256C48.312 59.52 48.048 58.776 47.744 58.024C47.44 57.256 47.128 56.472 46.808 55.672C46.536 55 46.272 54.472 46.016 54.088C45.776 53.688 45.56 53.376 45.368 53.152C45.192 52.912 45.048 52.72 44.936 52.576C44.824 52.416 44.768 52.224 44.768 52C44.768 51.728 44.864 51.528 45.056 51.4C45.264 51.272 45.48 51.208 45.704 51.208C45.832 51.208 45.976 51.336 46.136 51.592C46.296 51.832 46.464 52.152 46.64 52.552C46.816 52.936 46.992 53.368 47.168 53.848C47.344 54.328 47.52 54.808 47.696 55.288C47.952 55.992 48.24 56.752 48.56 57.568C48.88 58.368 49.176 59.176 49.448 59.992C49.736 60.792 49.976 61.568 50.168 62.32C50.36 63.072 50.456 63.736 50.456 64.312ZM63.7663 62.008C63.7663 62.296 63.6303 62.656 63.3583 63.088C63.1023 63.504 62.7503 63.912 62.3023 64.312C61.8543 64.712 61.3343 65.056 60.7423 65.344C60.1503 65.616 59.5343 65.752 58.8943 65.752C58.6063 65.752 58.3023 65.704 57.9823 65.608C57.6623 65.512 57.3503 65.376 57.0463 65.2C56.7423 65.008 56.4703 64.784 56.2303 64.528C55.9903 64.256 55.8143 63.952 55.7023 63.616C55.6063 63.712 55.4863 63.872 55.3423 64.096C55.2143 64.32 55.0703 64.552 54.9103 64.792C54.7503 65.016 54.5743 65.216 54.3823 65.392C54.1903 65.552 53.9903 65.632 53.7823 65.632C53.5743 65.632 53.3983 65.528 53.2543 65.32C53.1263 65.096 53.0223 64.856 52.9423 64.6C52.8623 64.328 52.8063 64.072 52.7743 63.832C52.7423 63.592 52.7263 63.456 52.7263 63.424C52.7263 63.232 52.7823 62.872 52.8943 62.344C53.0063 61.8 53.1743 61.24 53.3983 60.664C53.6223 60.088 53.9023 59.576 54.2383 59.128C54.5903 58.68 54.9983 58.456 55.4623 58.456C55.6383 58.456 55.7503 58.536 55.7983 58.696C55.8623 58.84 55.8943 58.984 55.8943 59.128V59.848C55.9743 59.912 56.0543 59.96 56.1343 59.992C56.2303 60.008 56.3103 60.04 56.3743 60.088C56.4543 60.12 56.5103 60.176 56.5423 60.256C56.5903 60.336 56.6143 60.464 56.6143 60.64C56.6143 60.752 56.6063 60.856 56.5903 60.952C56.5743 61.032 56.5663 61.112 56.5663 61.192C56.5663 61.608 56.5983 62.016 56.6623 62.416C56.7263 62.816 56.8543 63.176 57.0463 63.496C57.2383 63.8 57.5023 64.056 57.8383 64.264C58.1743 64.456 58.6223 64.552 59.1823 64.552C59.8863 64.552 60.4783 64.408 60.9583 64.12C61.4543 63.816 61.8623 63.488 62.1823 63.136C62.5183 62.768 62.7823 62.44 62.9743 62.152C63.1663 61.848 63.3263 61.696 63.4543 61.696C63.6623 61.696 63.7663 61.8 63.7663 62.008ZM55.3423 60.952C55.3423 60.888 55.3263 60.832 55.2943 60.784C55.2623 60.72 55.2463 60.664 55.2463 60.616C55.2463 60.552 55.2623 60.496 55.2943 60.448C55.3263 60.4 55.3423 60.336 55.3423 60.256C55.3423 60.208 55.3263 60.176 55.2943 60.16C55.2623 60.128 55.2463 60.096 55.2463 60.064C55.1023 60.096 54.9503 60.232 54.7903 60.472C54.6463 60.712 54.5023 60.992 54.3583 61.312C54.2303 61.632 54.1263 61.96 54.0463 62.296C53.9663 62.616 53.9263 62.88 53.9263 63.088C53.9263 63.2 53.9583 63.384 54.0223 63.64C54.0863 63.896 54.1583 64.064 54.2383 64.144C54.5103 63.584 54.7583 63.04 54.9823 62.512C55.2223 61.984 55.3423 61.464 55.3423 60.952ZM68.3576 61.816C68.3576 62.168 68.3096 62.504 68.2136 62.824C68.1176 63.144 67.9896 63.424 67.8296 63.664C67.6696 63.904 67.4776 64.096 67.2536 64.24C67.0456 64.368 66.8136 64.432 66.5576 64.432C66.1096 64.432 65.7576 64.304 65.5016 64.048C65.2456 63.792 65.0456 63.496 64.9016 63.16C64.7736 62.824 64.6856 62.488 64.6376 62.152C64.6056 61.8 64.5896 61.536 64.5896 61.36C64.5896 61.072 64.6296 60.752 64.7096 60.4C64.8056 60.032 64.9256 59.696 65.0696 59.392C65.2296 59.088 65.4056 58.832 65.5976 58.624C65.7896 58.416 65.9896 58.312 66.1976 58.312C66.2456 58.312 66.3176 58.328 66.4136 58.36C66.5256 58.392 66.6376 58.44 66.7496 58.504C66.8616 58.568 66.9576 58.648 67.0376 58.744C67.1336 58.84 67.1976 58.952 67.2296 59.08C67.4056 59.096 67.5816 59.16 67.7576 59.272C67.9336 59.384 68.0296 59.472 68.0456 59.536C68.1736 59.952 68.2536 60.368 68.2856 60.784C68.3336 61.2 68.3576 61.544 68.3576 61.816ZM67.2776 61.384C67.2776 61.144 67.2536 60.896 67.2056 60.64C67.1576 60.368 67.0616 60.096 66.9176 59.824C66.8856 59.84 66.8456 59.848 66.7976 59.848C66.7336 59.848 66.6776 59.84 66.6296 59.824C66.5976 59.808 66.5656 59.8 66.5336 59.8C66.3416 59.8 66.1896 59.856 66.0776 59.968C65.9656 60.064 65.8776 60.2 65.8136 60.376C65.7656 60.536 65.7336 60.712 65.7176 60.904C65.7016 61.096 65.6936 61.28 65.6936 61.456C65.6936 61.632 65.7016 61.832 65.7176 62.056C65.7336 62.264 65.7656 62.464 65.8136 62.656C65.8776 62.848 65.9576 63.016 66.0536 63.16C66.1496 63.288 66.2776 63.352 66.4376 63.352C66.5976 63.352 66.7336 63.272 66.8456 63.112C66.9576 62.936 67.0456 62.736 67.1096 62.512C67.1736 62.288 67.2136 62.072 67.2296 61.864C67.2616 61.64 67.2776 61.48 67.2776 61.384ZM78.6841 63.016C78.6841 63.16 78.5881 63.312 78.3961 63.472C78.2041 63.632 77.9801 63.784 77.7241 63.928C77.4681 64.056 77.2041 64.168 76.9321 64.264C76.6761 64.36 76.4841 64.408 76.3561 64.408C76.2121 64.408 76.0521 64.368 75.8761 64.288C75.7161 64.208 75.5561 64.112 75.3961 64C75.2521 63.888 75.1241 63.784 75.0121 63.688C74.9001 63.592 74.8281 63.528 74.7961 63.496C74.7481 63.544 74.6761 63.64 74.5801 63.784C74.4841 63.928 74.3641 64.088 74.2201 64.264C74.0921 64.424 73.9481 64.568 73.7881 64.696C73.6441 64.824 73.4921 64.888 73.3321 64.888C72.9161 64.888 72.5561 64.664 72.2521 64.216C71.9481 63.768 71.6921 63.256 71.4841 62.68C71.2921 62.104 71.1401 61.552 71.0281 61.024C70.9321 60.48 70.8841 60.112 70.8841 59.92C70.8841 59.808 70.9401 59.72 71.0521 59.656C71.1801 59.576 71.2761 59.536 71.3401 59.536C71.5641 59.536 71.7161 59.616 71.7961 59.776C71.8761 59.92 71.9161 60.08 71.9161 60.256C71.9161 60.4 71.9561 60.656 72.0361 61.024C72.1321 61.392 72.2441 61.768 72.3721 62.152C72.5001 62.536 72.6361 62.88 72.7801 63.184C72.9241 63.472 73.0521 63.616 73.1641 63.616C73.3721 63.616 73.5481 63.488 73.6921 63.232C73.8521 62.96 73.9801 62.656 74.0761 62.32C74.1721 61.968 74.2441 61.64 74.2921 61.336C74.3401 61.016 74.3641 60.808 74.3641 60.712C74.3641 60.696 74.3641 60.648 74.3641 60.568C74.3801 60.472 74.3961 60.376 74.4121 60.28C74.4281 60.184 74.4361 60.096 74.4361 60.016C74.4521 59.936 74.4601 59.88 74.4601 59.848C74.4601 59.736 74.4361 59.664 74.3881 59.632C74.3401 59.584 74.3161 59.496 74.3161 59.368C74.3161 59.272 74.3641 59.184 74.4601 59.104C74.5561 59.008 74.7641 58.96 75.0841 58.96C75.2121 58.96 75.3081 59 75.3721 59.08C75.4521 59.144 75.5081 59.224 75.5401 59.32C75.5721 59.416 75.5881 59.512 75.5881 59.608C75.6041 59.688 75.6121 59.744 75.6121 59.776C75.6121 59.792 75.6041 59.904 75.5881 60.112C75.5721 60.32 75.5561 60.552 75.5401 60.808C75.5401 61.048 75.5321 61.28 75.5161 61.504C75.5001 61.728 75.4921 61.864 75.4921 61.912C75.4921 61.96 75.5161 62.056 75.5641 62.2C75.6121 62.344 75.6681 62.496 75.7321 62.656C75.8121 62.8 75.9001 62.936 75.9961 63.064C76.0921 63.176 76.1961 63.232 76.3081 63.232C76.5001 63.232 76.6761 63.208 76.8361 63.16C77.0121 63.096 77.1721 63.032 77.3161 62.968C77.4761 62.888 77.6201 62.824 77.7481 62.776C77.8761 62.712 77.9961 62.68 78.1081 62.68C78.2521 62.68 78.3801 62.712 78.4921 62.776C78.6201 62.84 78.6841 62.92 78.6841 63.016ZM87.3275 62.56C87.4075 62.64 87.4475 62.688 87.4475 62.704C87.4475 62.736 87.3995 62.832 87.3035 62.992C87.2235 63.152 87.1115 63.32 86.9675 63.496C86.8235 63.672 86.6635 63.832 86.4875 63.976C86.3275 64.104 86.1675 64.168 86.0075 64.168C85.6715 64.168 85.3995 64.104 85.1915 63.976C84.9835 63.832 84.8075 63.656 84.6635 63.448C84.5355 63.24 84.4315 63.016 84.3515 62.776C84.2875 62.52 84.2315 62.28 84.1835 62.056C84.1515 61.944 84.1195 61.888 84.0875 61.888C84.0395 61.888 83.9435 62.064 83.7995 62.416C83.6555 62.752 83.4955 63.128 83.3195 63.544C83.1595 63.944 82.9995 64.32 82.8395 64.672C82.6955 65.008 82.5995 65.176 82.5515 65.176C82.2635 65.176 82.0155 65.056 81.8075 64.816C81.6155 64.56 81.4555 64.272 81.3275 63.952C81.2155 63.616 81.1275 63.28 81.0635 62.944C80.9995 62.592 80.9595 62.32 80.9435 62.128C80.8955 61.696 80.7915 60.976 80.6315 59.968C80.4715 58.96 80.3355 57.736 80.2235 56.296C80.1915 55.992 80.1515 55.72 80.1035 55.48C80.0715 55.224 80.0315 54.944 79.9835 54.64C79.9355 54.336 79.8955 53.992 79.8635 53.608C79.8315 53.224 79.8155 52.752 79.8155 52.192C79.8155 52.16 79.8235 52.056 79.8395 51.88C79.8555 51.704 79.8795 51.512 79.9115 51.304C79.9435 51.096 79.9915 50.912 80.0555 50.752C80.1355 50.592 80.2235 50.512 80.3195 50.512C80.4315 50.512 80.5355 50.584 80.6315 50.728C80.7275 50.856 80.8075 51.008 80.8715 51.184C80.9515 51.36 81.0075 51.528 81.0395 51.688C81.0715 51.848 81.0875 51.96 81.0875 52.024C81.0875 52.264 81.0715 52.488 81.0395 52.696C81.0075 52.904 80.9915 53.096 80.9915 53.272C80.9915 53.512 81.0075 53.816 81.0395 54.184C81.0875 54.552 81.1435 54.928 81.2075 55.312C81.2715 55.696 81.3275 56.072 81.3755 56.44C81.4235 56.792 81.4635 57.08 81.4955 57.304C81.4955 57.32 81.5115 57.432 81.5435 57.64C81.5755 57.848 81.6075 58.112 81.6395 58.432C81.6875 58.736 81.7275 59.072 81.7595 59.44C81.8075 59.792 81.8555 60.144 81.9035 60.496C81.9515 60.832 81.9915 61.136 82.0235 61.408C82.0715 61.664 82.1035 61.848 82.1195 61.96C82.1195 62.008 82.1275 62.08 82.1435 62.176C82.1755 62.256 82.1995 62.352 82.2155 62.464C82.2475 62.576 82.2795 62.68 82.3115 62.776C82.3435 62.872 82.3835 62.944 82.4315 62.992C82.5275 62.8 82.6475 62.504 82.7915 62.104C82.9515 61.704 83.1115 61.296 83.2715 60.88C83.4475 60.464 83.6075 60.104 83.7515 59.8C83.9115 59.48 84.0475 59.32 84.1595 59.32C84.2875 59.32 84.3915 59.344 84.4715 59.392C84.5515 59.44 84.6555 59.48 84.7835 59.512C84.9435 59.576 85.0235 59.664 85.0235 59.776C85.0235 59.872 85.0395 59.992 85.0715 60.136C85.1035 60.328 85.1515 60.584 85.2155 60.904C85.2955 61.208 85.3835 61.512 85.4795 61.816C85.5755 62.104 85.6875 62.352 85.8155 62.56C85.9435 62.768 86.0715 62.872 86.1995 62.872C86.2635 62.872 86.3515 62.792 86.4635 62.632C86.5755 62.456 86.7275 62.36 86.9195 62.344C86.9515 62.344 87.0075 62.368 87.0875 62.416C87.1675 62.448 87.2475 62.496 87.3275 62.56ZM101.436 55.408C101.436 55.552 101.364 55.864 101.22 56.344C101.076 56.824 100.916 57.36 100.74 57.952C100.58 58.528 100.428 59.096 100.284 59.656C100.156 60.216 100.092 60.656 100.092 60.976C100.092 61.312 100.108 61.592 100.14 61.816C100.172 62.024 100.204 62.2 100.236 62.344C100.284 62.488 100.324 62.616 100.356 62.728C100.388 62.824 100.404 62.944 100.404 63.088C100.404 63.408 100.26 63.568 99.9719 63.568C99.9239 63.568 99.8759 63.536 99.8279 63.472C99.4759 62.96 99.2599 62.456 99.1799 61.96C99.1159 61.464 99.0839 61.08 99.0839 60.808C99.0839 60.472 99.1319 60.04 99.2279 59.512C99.3239 58.968 99.4439 58.4 99.5879 57.808C99.7319 57.2 99.8919 56.6 100.068 56.008C100.26 55.4 100.444 54.872 100.62 54.424C100.652 54.392 100.692 54.36 100.74 54.328C100.788 54.296 100.852 54.28 100.932 54.28C101.044 54.28 101.132 54.328 101.196 54.424C101.26 54.504 101.308 54.608 101.34 54.736C101.372 54.848 101.396 54.968 101.412 55.096C101.428 55.224 101.436 55.328 101.436 55.408ZM102.228 66.184C102.228 66.36 102.172 66.544 102.06 66.736C101.964 66.912 101.836 67 101.676 67C101.468 67 101.268 66.896 101.076 66.688C100.9 66.48 100.812 66.24 100.812 65.968C100.812 65.872 100.828 65.752 100.86 65.608C100.908 65.448 101.012 65.368 101.172 65.368C101.236 65.368 101.324 65.376 101.436 65.392C101.548 65.408 101.66 65.448 101.772 65.512C101.9 65.56 102.004 65.64 102.084 65.752C102.18 65.864 102.228 66.008 102.228 66.184Z" fill="black"/>
<path d="M37.5499 73.493C51.3319 69.8455 65.8959 70.6761 79.9717 69.8979C86.0141 69.5639 91.9287 69.1453 97.9939 69.1081C98.9021 69.1025 104.849 68.2704 104.79 68.963C104.696 70.0817 96.5285 71.8431 95.8228 72.0457C86.7844 74.6395 77.8419 74.432 68.498 74.3093C63.749 74.247 59.1194 74.6369 54.3769 74.836C52.3298 74.922 47.7202 73.8661 45.9157 75.3355C45.865 75.3767 47.7293 75.9598 48.0074 76.0776C53.6274 78.4591 60.0881 79.3231 66.1325 79.7021C67.6921 79.7999 72.3782 79.8889 70.8157 79.9166C68.989 79.9489 67.0859 81.755 65.7014 82.7576C64.9639 83.2916 59.0992 86.8404 61.1506 87.9674" stroke="black" stroke-linecap="round" stroke-linejoin="round"/>
</svg>
