<svg width="54" height="59" viewBox="0 0 54 59" fill="none" xmlns="http://www.w3.org/2000/svg">
<path d="M7.26855 40.7982C8.67201 37.4242 10.746 34.7202 10.746 31.0227C10.746 27.1959 10.8765 22.9229 12.1861 19.2818C13.6476 15.2187 17.393 10.5 21.7451 10.5C24.2479 10.5 25.7031 10.7843 27.9111 11.5005C29.8459 12.128 34.358 15.39 35.6186 17C40.4914 21.7076 38.7121 26.459 37.6739 30.5C37.1601 32.5 34.5411 35.1936 33.0494 36.5C31.1069 38.2012 27.373 38.3263 25.1474 39.7044C23.5298 40.7061 21.9702 41.9349 20.8621 43.4984C18.6621 46 20.2036 44.5 18.1483 46.5" stroke="black" stroke-linecap="round" stroke-linejoin="round"/>
<path d="M9.24672 40.2792C10.7721 36.9556 12.9432 34.3249 13.0778 30.6297C13.2171 26.8053 13.5031 22.5395 14.9444 18.9458C16.5528 14.9356 20.4677 10.349 24.8171 10.499C27.3183 10.5852 28.7622 10.9195 30.9428 11.7113C32.8535 12.4052 37.244 15.8207 38.4452 17.4731C43.1437 22.3457 41.1925 27.0328 40.0078 31.0355C39.4215 33.0165 36.7061 35.6182 35.1679 36.8723C33.1646 38.5055 29.4285 38.5018 27.1542 39.8023C25.5011 40.7476 23.8978 41.9219 22.7335 43.4462C20.845 45.9186 21.2314 45.5 18.6622 48" stroke="black" stroke-linecap="round" stroke-linejoin="round"/>
<path d="M7.87172 42C6.94053 40.616 4.8023 38.779 4.2749 41.5006C4.2749 42.195 4.57706 43.0714 5.21353 43.5668C6.02182 44.1961 10.8219 47.2135 11.4685 48" stroke="black" stroke-linecap="round" stroke-linejoin="round"/>
<path d="M5.0553 44.1816C2.10057 44.2535 3.71125 47.1139 4.80943 48.42C5.73288 49.5182 7.28379 51.2645 8.53273 51.8721" stroke="black" stroke-linecap="round" stroke-linejoin="round"/>
<path d="M3.43059 46C2.36221 48.664 -0.680269 48 1.37486 50C1.88889 50.5 2.21964 51 3.24734 52C4.27504 53 5.74055 53.963 6.84419 54.5" stroke="black" stroke-linecap="round" stroke-linejoin="round"/>
<path d="M16.5155 47.0383C18.1901 47.7635 20.6668 49.7503 18.0382 51.0014C17.3296 51.1678 16.3502 51.0349 15.6654 50.4313C14.7957 49.6646 9.84481 46.3095 8.86012 45.7641C7.86814 45.0199 6.32872 44.3079 5.37372 43.4836C2.75711 39.9935 6.42836 39.7052 4.78892 41" stroke="black" stroke-linecap="round" stroke-linejoin="round"/>
<path d="M15.2429 50.6738C15.9967 54.0307 12.5727 52.9087 10.9075 51.9864C9.50726 51.2109 7.25775 49.8844 6.27608 48.6213" stroke="black" stroke-linecap="round" stroke-linejoin="round"/>
<path d="M13.6863 52.9245C11.1611 54.7655 12.6965 57.9581 10.0183 56.1871C9.34871 55.7441 8.72929 55.5034 7.39018 54.6177C6.05107 53.7321 4.63118 52.3541 3.76104 51.2696" stroke="black" stroke-linecap="round" stroke-linejoin="round"/>
<path d="M8.606 20.7708C6.17004 20.4174 3.85564 19.9098 1.70508 19" stroke="black" stroke-linecap="round" stroke-linejoin="round"/>
<path d="M9.92688 11C8.15472 9.39651 6.45437 7.7192 4.78857 6" stroke="black" stroke-linecap="round" stroke-linejoin="round"/>
<path d="M21.2314 6C21.2314 4.32345 21.2314 2.67298 21.2314 1" stroke="black" stroke-linecap="round" stroke-linejoin="round"/>
<path d="M33.5635 11.0349C34.7205 9.30854 36.3418 8.07867 37.692 6.52146C38.6123 5.4602 39.1984 4.1492 39.9857 3" stroke="black" stroke-linecap="round" stroke-linejoin="round"/>
<path d="M40.7568 18.6016C42.9051 18.0678 45.0534 17.5341 47.2017 17.0004" stroke="black" stroke-linecap="round" stroke-linejoin="round"/>
<path d="M42.7134 29.4805C46.1719 29.987 49.6304 30.4935 53.0888 31" stroke="black" stroke-linecap="round" stroke-linejoin="round"/>
<path d="M37.667 37.292C40.6323 38.4758 43.4371 40.1038 46.1535 41.7558" stroke="black" stroke-linecap="round" stroke-linejoin="round"/>
<path d="M29.1807 41.5322C29.5283 42.0875 30.0974 42.6416 30.0974 43.3178" stroke="black" stroke-linecap="round" stroke-linejoin="round"/>
<path d="M8.76728 28.3645C8.23453 28.3749 6.75601 28.2614 6.47363 28.8109" stroke="black" stroke-linecap="round" stroke-linejoin="round"/>
</svg>
