<svg width="73" height="62" viewBox="0 0 73 62" fill="none" xmlns="http://www.w3.org/2000/svg">
<path d="M19.9017 6.87375C19.397 7.65718 19.0125 8.49314 18.4846 9.25496C17.9011 10.097 17.4401 11.0688 16.7526 11.8334C16.3142 12.321 15.9315 12.8572 15.4965 13.3479C15.0845 13.8126 14.6794 14.2983 14.3785 14.8395C14.0328 15.4612 13.4358 15.9819 12.9514 16.4951C12.6464 16.8182 12.3591 17.1685 12.0678 17.5036C11.7865 17.8273 11.4972 18.1268 11.2534 18.4829C10.2857 19.8968 9.28254 21.2833 8.26198 22.659C8.08948 22.8915 7.94735 23.1377 7.77278 23.3709C7.50951 23.7225 7.2223 24.0546 6.96105 24.4068C6.39515 25.1696 5.78883 26.012 5.36344 26.8594C5.02913 27.5253 4.46507 28.0546 4.13368 28.7191C3.81209 29.3639 3.24004 29.8664 2.93162 30.52C2.58205 31.2609 2.09815 31.9131 1.74774 32.6558" stroke="black" stroke-linecap="round" stroke-linejoin="round"/>
<path d="M19.7104 6.78186C19.8308 6.83868 20.1656 7.07372 20.3233 7.03843C20.4856 7.00209 20.6884 6.94227 20.8548 6.96957C21.1002 7.00981 21.3927 7.03858 21.6404 7.04669C21.8462 7.05342 22.2179 7.08432 22.4034 7.17183" stroke="black" stroke-linecap="round" stroke-linejoin="round"/>
<path d="M24.3381 4.56356C23.9356 4.99452 23.5485 5.49039 23.2959 6.0257C23.1527 6.32907 23.0288 6.65285 22.8602 6.9422C22.5067 7.5488 22.0552 8.16317 21.6165 8.71376C21.4155 8.96611 21.2736 9.26047 21.0671 9.50485C20.9351 9.66113 20.8079 9.80541 20.7206 9.99045C20.6438 10.153 20.498 10.2417 20.4143 10.3907C20.2607 10.6639 20.1013 10.9961 19.868 11.2028C19.5568 11.4785 19.3652 12.0909 19.1267 12.4351C18.7195 13.0227 18.2775 13.6749 17.9753 14.3154C17.6976 14.9039 17.2208 15.3672 16.8714 15.9082C16.5494 16.4068 16.0896 16.8385 15.8305 17.3677C15.7269 17.5792 15.5598 17.714 15.4324 17.9073C15.1906 18.2741 14.9375 18.6316 14.6958 18.9982C13.8878 20.224 12.9056 21.3405 12.1104 22.5765C11.5787 23.4029 11.0004 24.2107 10.4895 25.0508C9.79729 26.1891 9.12926 27.335 8.37999 28.4362C7.80717 29.2781 7.36827 30.2607 6.6852 31.0256C6.3103 31.4455 5.90714 32.0524 5.66711 32.5611C5.57856 32.7488 4.75995 32.5633 4.54823 32.5681C4.30423 32.5737 4.09849 32.5095 3.86597 32.4517C3.58361 32.3816 3.23666 32.2206 2.94768 32.2272C2.58885 32.2354 2.29929 32.291 1.95398 32.3422" stroke="black" stroke-linecap="round" stroke-linejoin="round"/>
<path d="M24.3382 4.56365C26.0065 5.35082 27.6858 6.08449 29.3552 6.87219C30.5876 7.45369 31.7285 8.16229 32.9342 8.79253C33.5189 9.09818 34.0525 9.49959 34.6498 9.78143C35.2191 10.05 35.8645 10.2758 36.3887 10.6313C37.3755 11.3004 38.4867 11.8017 39.4413 12.4989C40.1739 13.0341 40.8872 13.6521 41.6403 14.1432C42.1677 14.4872 42.8608 14.9989 43.2237 15.5297C43.3026 15.6451 43.4381 15.6933 43.5359 15.7944C43.7277 15.9927 43.9084 16.1932 44.1166 16.375C44.3531 16.5815 44.5337 16.831 44.7647 17.0201" stroke="black" stroke-linecap="round" stroke-linejoin="round"/>
<path d="M44.9597 17.2288C45.9959 17.2742 47.0688 17.4148 48.0834 17.1761C48.7236 17.0255 49.3019 17.013 49.9313 17.138C50.6065 17.2719 51.335 17.4773 51.9555 17.7701C52.2695 17.9183 52.5915 17.9841 52.912 18.1073C53.478 18.3248 54.0445 18.5796 54.5927 18.8383C55.0983 19.0769 55.5969 19.333 56.1257 19.516C56.5969 19.6791 57.1007 19.8511 57.5527 20.0589C58.805 20.6345 60.0648 21.1855 61.3105 21.7732C62.2413 22.2124 63.2306 22.5871 64.2144 22.8499C64.8645 23.0235 65.5468 22.9758 66.1872 23.1348" stroke="black" stroke-linecap="round" stroke-linejoin="round"/>
<path d="M44.4147 17.265C44.4143 17.6697 44.2142 17.9595 44.1676 18.3487C44.1398 18.5804 44.032 18.8226 43.9325 19.0337C43.5785 19.7839 43.3152 20.5907 42.9597 21.3441C42.3379 22.662 41.8682 24.0307 41.2457 25.3499C40.9448 25.9876 40.5542 26.5786 40.2471 27.2175C39.9479 27.84 39.5275 28.3944 39.2244 29.0117C38.9222 29.627 38.583 30.25 38.1497 30.7847C37.6663 31.3812 37.322 32.0826 36.8456 32.6843C36.095 33.6323 35.4932 34.7031 34.8042 35.6974C34.0925 36.7243 33.4515 37.7973 32.7309 38.8193C32.171 39.6134 31.5082 40.337 30.9306 41.1208C30.5363 41.6559 30.1779 42.3359 29.8926 42.9405C29.6735 43.4047 29.4545 43.8689 29.2354 44.3332" stroke="black" stroke-linecap="round" stroke-linejoin="round"/>
<path d="M16.0474 17.0329C15.3841 18.4386 14.7888 19.9103 13.9896 21.2419C13.3025 22.3869 12.6932 23.5195 12.1214 24.7313C11.9353 25.1256 11.7254 25.4965 11.522 25.8772C11.4397 26.031 11.3331 26.153 11.2574 26.3134C10.9605 26.9426 10.3976 27.4432 10.0805 28.061C9.70686 28.7891 9.24383 29.461 8.88911 30.2127C8.70843 30.5957 8.31464 31.0339 8.24454 31.4613C8.22439 31.5841 9.80875 32.232 10.0088 32.3264C10.7431 32.6728 11.5208 32.8636 12.2591 33.212C13.0773 33.5981 13.8955 33.9841 14.7136 34.3702C15.7693 34.8683 16.7203 35.6154 17.6709 36.2809C19.0638 37.2562 20.4787 38.1844 21.8721 39.157C22.5067 39.6 23.2125 39.8998 23.8645 40.3059C24.539 40.7259 25.2128 41.2195 25.9141 41.5894C26.6165 41.9598 27.3493 42.5357 27.9121 43.0997C28.3256 43.514 28.8302 43.8575 29.1867 44.3111" stroke="black" stroke-linecap="round" stroke-linejoin="round"/>
<path d="M5.97936 32.7723C8.62632 33.9806 11.3313 35.0628 13.9617 36.3039C16.2391 37.3785 18.5954 38.2817 20.8383 39.4345C21.3519 39.6984 21.9259 39.9447 22.409 40.2604C23.0955 40.709 23.8611 41.1511 24.6028 41.501C25.8072 42.0693 26.8876 42.8561 28.0859 43.4381C28.4309 43.6056 28.7005 43.8525 28.9464 44.1376C29.108 44.325 29.2937 44.5951 29.5294 44.7063" stroke="black" stroke-linecap="round" stroke-linejoin="round"/>
<path d="M1.61404 33.0631C3.51022 33.5861 5.26213 34.4909 7.03384 35.3268C8.08945 35.8249 9.14506 36.323 10.2007 36.8211C13.1229 38.1999 16.0452 39.5788 18.9675 40.9577C19.6719 41.2901 20.3398 41.6465 21.0111 42.0394C21.6388 42.4068 22.3147 42.6825 22.927 43.0739C23.4787 43.4265 24.0718 43.6413 24.4486 44.1767C24.6691 44.49 24.9806 44.7142 25.2714 44.9564C25.6747 45.2923 26.0797 45.567 26.5192 45.8583C27.4155 46.4524 28.4711 46.851 29.4422 47.3093C30.7014 47.9034 31.9607 48.4976 33.22 49.0918C33.8834 49.4048 34.5468 49.7178 35.2102 50.0309C36.0764 50.4396 36.9426 50.8483 37.8088 51.257C38.4289 51.5496 39.0541 51.9196 39.709 52.1243C40.4251 52.348 41.1076 52.7548 41.7853 53.0746C42.6637 53.4891 43.5601 53.8533 44.4386 54.2678C45.8275 54.9231 47.2788 55.5117 48.6222 56.2549C49.9596 56.9947 51.3784 57.6011 52.7612 58.2535C53.4733 58.5895 54.0829 59.112 54.7889 59.4451C55.3561 59.7128 55.8592 60.1263 56.4177 60.3898" stroke="black" stroke-linecap="round" stroke-linejoin="round"/>
<path d="M27.4076 43.3538C28.0897 43.6757 28.7526 43.9474 29.2392 44.5117C29.4778 44.7883 29.5916 45.1369 29.8373 45.3941C29.9395 45.501 29.9215 45.6617 29.9729 45.7842C30.0377 45.9388 30.1562 46.1532 30.1928 46.3414C30.2589 46.6819 30.4113 46.9544 30.4191 47.2995" stroke="black" stroke-linecap="round" stroke-linejoin="round"/>
<path d="M29.7568 45.3428C33.1321 45.7467 36.5139 46.3586 39.6234 47.8259C40.8192 48.3901 41.9931 49.0027 43.1864 49.5658C44.652 50.2573 46.0672 51.054 47.5904 51.6112C48.2742 51.8613 48.9613 52.1683 49.6635 52.361C49.9862 52.4496 50.3194 52.5007 50.6438 52.5854C50.7925 52.6243 51.011 52.7308 51.1657 52.7306C51.6607 52.7298 52.2043 52.928 52.7066 52.8248" stroke="black" stroke-linecap="round" stroke-linejoin="round"/>
<path d="M33.0088 46.29C34.0875 46.9633 35.3151 47.3883 36.4425 47.9722C37.5832 48.563 38.7167 49.1617 39.8371 49.7925C41.5974 50.7835 43.4255 51.6956 45.284 52.4898C46.685 53.0885 48.108 53.6494 49.486 54.2996C50.4466 54.7529 51.3212 55.3417 52.2753 55.7919C52.6271 55.9578 52.9606 56.281 53.2685 56.5214C53.6232 56.7984 53.9511 57.117 54.2789 57.4288C55.1251 58.2334 55.7257 59.3092 56.5541 60.1006" stroke="black" stroke-linecap="round" stroke-linejoin="round"/>
<path d="M66.0942 23.207C65.8776 23.6871 65.7699 24.2118 65.6179 24.7143C65.458 25.2429 65.179 25.7687 65.1213 26.3198C65.0722 26.7896 64.6447 27.399 64.4468 27.8184C64.1114 28.5292 63.6567 29.1538 63.3108 29.8527C62.4156 31.6615 61.4009 33.4026 60.5381 35.2313C60.2081 35.9305 59.9296 36.6454 59.6004 37.343C59.3696 37.8322 59.17 38.3182 58.9876 38.8283C58.8334 39.2598 58.7496 39.7682 58.5565 40.1776C58.2144 40.9025 57.9108 41.6493 57.576 42.3799C57.1353 43.3418 56.8164 44.3631 56.3656 45.3186C55.656 46.8224 55.1979 48.4155 54.4908 49.914C54.1702 50.5934 53.8497 51.2729 53.5291 51.9523C53.4163 52.1913 53.2941 52.6527 53.0377 52.7447" stroke="black" stroke-linecap="round" stroke-linejoin="round"/>
<path d="M53.0197 56.1429C53.3079 55.1601 53.6597 53.984 54.3766 53.2048C54.702 52.8511 54.8401 52.2783 55.1184 51.8815C55.4188 51.4533 55.607 50.9083 55.8298 50.4361C56.3519 49.3295 57.0092 48.3099 57.526 47.2146C57.7727 46.6917 58.0195 46.1687 58.2662 45.6458C58.4318 45.295 58.5528 44.9295 58.673 44.5624C58.8065 44.1549 59.0322 43.7712 59.1551 43.3611C59.3928 42.5675 59.6534 41.7399 59.9956 40.9851C60.2955 40.3238 60.6736 39.6717 60.8589 38.9688C61.0484 38.2501 61.5796 37.6086 61.7221 36.8906C61.7745 36.6267 61.9377 36.3966 62.0044 36.1333C62.1163 35.6918 62.3512 35.2721 62.5349 34.857C62.7746 34.3151 62.9525 33.7392 63.1992 33.2002C63.5386 32.4587 63.792 31.653 64.2062 30.9485C64.4775 30.487 64.7509 30.0022 65.0401 29.5544C65.1759 29.3441 65.3687 28.9049 65.5793 28.7781" stroke="black" stroke-linecap="round" stroke-linejoin="round"/>
<path d="M64.8574 27.3223C65.1811 27.741 65.321 28.2089 65.5794 28.6611C65.8032 29.0527 66.1569 29.4183 66.4851 29.7212C66.6487 29.8722 66.7306 30.0263 66.9403 30.1252C67.0892 30.1955 67.326 30.2529 67.4394 30.3672C67.6271 30.5566 67.1287 31.3436 67.0434 31.5243C66.8193 31.9994 66.6278 32.5208 66.3572 32.9717C66.0484 33.4863 65.7051 33.9873 65.4492 34.5298C65.3023 34.841 65.1554 35.1523 65.0086 35.4635C64.7283 36.0575 64.3574 36.5948 64.0792 37.1844C63.2408 38.9612 62.3403 40.7262 61.7454 42.6005C61.3417 43.8724 60.8778 45.1316 60.4143 46.3825C59.9117 47.7389 59.2951 49.0465 58.8329 50.4183C58.5129 51.3684 58.2557 52.3467 57.8992 53.2821C57.6992 53.8071 57.5663 54.3848 57.4102 54.9269C57.2825 55.3703 57.0553 55.7759 56.9701 56.2328C56.9198 56.5028 56.7822 56.7186 56.6834 56.9717C56.5537 57.3043 56.5077 57.6634 56.3756 57.9975C56.1374 58.6001 55.9717 59.4295 56.102 60.0637" stroke="black" stroke-linecap="round" stroke-linejoin="round"/>
</svg>
