<svg width="227" height="50" viewBox="0 0 227 50" fill="none" xmlns="http://www.w3.org/2000/svg">
<path d="M10.608 22.744C9.792 24.712 8.88 26.584 7.776 28.696C6.72 28.6 5.808 28.552 4.992 28.552C1.392 28.552 0.096 29.608 0.096 31.864C0.096 34.504 2.304 38.296 4.704 38.296C6.192 38.296 7.632 37.288 9.36 35.656C18.864 37.816 23.424 40.312 26.928 43.336C28.656 42.856 30.096 40.936 30.096 38.536C30.096 35.176 27.36 31.288 14.496 29.128C15.888 27.112 17.568 24.232 18.144 22.552C28.848 19.192 33.744 13.432 33.744 8.632C33.744 4.504 30 0.663999 24.384 0.663999C21.984 0.663999 19.776 1.672 18.096 4.36C16.8 6.472 14.544 12.04 12.48 17.752C10.992 17.464 9.264 16.648 7.872 15.592C6.624 16.36 5.856 17.464 5.856 18.904C5.856 20.824 7.872 22.36 10.608 22.744ZM22.224 9.64C22.848 7.528 23.52 7.096 24.144 7.096C26.064 7.096 27.744 8.296 27.744 9.784C27.744 12.568 24.576 15.64 19.536 17.656L22.224 9.64ZM41.4698 31.432C41.3738 32.152 41.3258 32.776 41.3258 33.304C41.3258 36.376 42.6698 37.24 44.7818 37.24C48.2378 37.24 56.2058 29.512 56.2058 26.392C56.2058 25.528 55.4377 24.904 54.4298 24.904C51.3578 29.224 48.8618 31.048 47.9018 31.048C47.5178 31.048 47.3258 30.904 47.3258 29.944C47.3258 28.696 47.9498 25.672 49.6298 19.624C50.0138 18.28 50.1578 17.08 50.1578 16.456C50.1578 14.776 48.3818 12.568 45.1178 12.568C44.4458 12.568 43.8218 12.76 43.4378 13.192L43.2938 15.976C43.0538 15.736 42.7178 15.64 42.0458 15.64C37.2458 15.64 31.2938 23.176 31.2938 30.376C31.2938 34.744 33.3098 37 36.0458 37C37.7258 37 39.9338 35.8 41.4698 31.432ZM41.5178 29.08C40.9418 29.8 40.2698 30.28 39.5978 30.28C38.9258 30.28 38.3498 30.088 38.3498 28.312C38.3498 24.616 40.6538 20.632 43.0538 19.096L41.5178 29.08ZM65.2384 23.224C62.8864 23.224 62.1184 27.88 62.1184 30.712C62.1184 35.464 65.0464 38.008 68.7904 38.008C73.1104 38.008 78.0544 35.752 78.0544 29.944C78.0544 26.44 75.3184 22.456 75.3184 20.296C75.3184 19.432 75.8464 19.144 76.8544 19.144C77.6224 19.144 78.4864 19.336 79.3984 19.72C79.9744 19.144 80.4064 18.136 80.4064 17.128C80.4064 14.824 78.7744 13.624 75.9904 13.624C71.6224 13.624 68.3584 16.408 68.3584 20.44C68.3584 23.416 71.1424 29.224 71.1424 31.672C71.1424 32.488 70.6144 32.776 70.1344 32.776C69.0304 32.776 67.3984 31.336 67.0144 29.224C67.8304 28.312 68.2624 27.592 68.2624 26.584C68.2624 25.384 66.9184 23.224 65.2384 23.224ZM95.5834 16.456C94.8154 16.456 94.3834 16.648 93.9034 17.128C93.8554 15.544 92.3194 15.016 91.0714 15.016C85.9834 15.016 80.7034 22.408 80.7034 30.376C80.7034 35.08 83.3914 37.432 86.7994 37.432C90.1594 37.432 92.7034 35.608 95.0074 32.488C95.5354 32.824 96.0634 32.968 96.9274 32.968C101.007 32.968 104.223 28.456 104.223 26.44C104.223 25.432 103.215 24.712 102.351 24.712C100.767 27.256 99.3754 28.36 97.9834 28.36C97.5034 28.36 97.1674 28.168 97.0234 28.024C98.0314 25.384 98.5114 23.512 98.5114 21.208C98.5114 19.048 97.5514 16.456 95.5834 16.456ZM87.5194 28.6C87.5194 24.664 89.9674 20.008 92.9434 18.616C92.2234 20.008 91.8874 22.552 91.8874 24.184C91.8874 25.48 92.0314 26.872 92.4154 28.36C91.5514 30.52 90.3994 31.624 89.2474 31.624C88.3834 31.624 87.5194 30.952 87.5194 28.6ZM107.061 37.432C112.869 37.432 120.453 29.608 120.453 26.296C120.453 25.288 119.445 24.712 118.581 24.712C115.989 28.744 112.293 31.48 109.605 31.48C107.733 31.48 107.013 30.424 107.013 27.784C107.013 22.936 108.693 19.864 109.605 19.864C109.893 19.864 110.229 20.2 110.229 20.872C110.229 21.496 110.085 22.6 109.749 23.896C110.133 24.472 110.757 24.808 111.813 24.808C114.117 24.808 116.277 22.36 116.277 19.288C116.277 16.36 114.645 14.632 111.381 14.632C106.245 14.632 100.341 21.928 100.341 29.32C100.341 34.504 102.357 37.432 107.061 37.432ZM125.679 39.064C124.719 40.936 123.951 42.664 123.951 44.392C123.951 46.504 127.119 49.336 130.287 49.336C132.111 49.336 132.639 48.088 132.639 46.552C132.639 44.872 132.015 42.856 131.823 41.944L132.111 37.768C136.335 34.696 141.615 28.84 141.615 26.488C141.615 25.672 140.799 24.904 139.503 24.904C137.295 28.216 134.415 31.192 132.639 32.584C132.975 29.608 133.503 25.528 134.079 22.792C134.799 19.288 135.663 17.56 135.663 15.688C135.663 14.008 133.311 11.8 130.287 11.8C129.759 11.8 128.847 12.04 128.463 12.472C128.463 13.624 128.367 14.872 128.175 16.6C127.935 16.36 127.599 16.264 126.927 16.264C122.367 16.264 116.559 24.088 116.559 29.992C116.559 34.264 118.287 37 121.311 37C123.327 37 125.487 35.032 126.447 32.2C126.111 35.128 125.823 37.96 125.679 39.064ZM127.935 19.768C127.551 22.024 127.119 26.248 126.735 29.176C125.919 29.992 125.343 30.28 124.719 30.28C123.903 30.28 123.615 29.896 123.615 27.976C123.615 25.24 125.199 21.256 127.935 19.768ZM151.477 15.544C151.237 19.672 150.565 23.032 148.933 28.216C147.973 29.224 146.437 30.376 145.621 30.376C144.949 30.376 144.661 29.896 144.661 29.128C144.661 28.36 144.949 26.92 145.429 25.192C147.877 21.208 149.125 18.328 149.125 16.792C149.125 15.352 148.309 14.872 146.821 14.872C143.461 14.872 138.853 20.248 138.853 23.224C138.853 24.184 138.949 25.192 139.477 26.2C138.229 29.272 137.557 32.056 137.557 33.496C137.557 36.376 138.229 38.008 141.061 38.008C143.221 38.008 146.149 35.992 148.453 31.624C148.261 32.632 148.165 33.448 148.165 34.12C148.165 36.616 149.365 37.24 151.333 37.24C153.349 37.24 155.893 35.704 158.149 33.688C160.933 31.24 163.333 28.12 163.333 26.392C163.333 25.528 162.373 24.904 161.365 24.904C158.293 29.224 155.989 31.144 154.885 31.144C154.501 31.144 154.213 31 154.213 30.376C154.213 29.464 156.229 25 157.237 22.264C157.957 20.344 158.149 19.384 158.149 18.52C158.149 16.552 156.181 14.632 153.493 14.632C152.773 14.632 151.957 14.92 151.477 15.544ZM166.267 37.432C172.507 37.432 180.523 29.8 180.523 26.248C180.523 25.48 179.851 24.712 178.699 24.664C175.963 28.84 171.739 31.624 168.475 31.624C166.603 31.624 166.171 30.424 166.171 28.264C172.747 26.776 175.099 23.656 175.099 19.624C175.099 16.264 173.275 14.68 169.963 14.68C165.307 14.68 159.403 22.072 159.403 29.32C159.403 34.504 161.563 37.432 166.267 37.432ZM169.723 21.304C169.723 22.744 169.147 24.232 166.459 24.712C166.795 21.352 168.091 19.72 168.763 19.72C169.339 19.72 169.723 20.296 169.723 21.304ZM193.885 16.6L187.549 17.032C188.989 14.008 189.565 12.76 189.565 11.224C189.565 9.16 188.317 7.24 186.637 7.24C183.661 7.24 182.317 10.936 180.877 16.936C178.909 16.984 177.853 18.328 177.853 19.816C177.853 20.872 178.669 20.968 179.629 21.064C177.805 27.16 177.325 30.568 177.325 31.96C177.325 35.944 179.053 37.816 182.029 37.816C185.341 37.816 188.509 35.032 190.669 31.192C190.525 31.96 190.477 32.872 190.477 33.448C190.477 37.048 192.061 38.824 195.085 38.824C200.989 38.824 209.293 29.272 209.293 26.392C209.293 25.432 208.285 24.76 207.373 24.76C204.109 29.368 200.605 32.2 198.637 32.2C197.629 32.2 197.341 31.528 197.341 30.52C197.341 29.8 197.965 26.392 199.261 21.112H200.077C204.157 21.112 205.789 19.768 205.789 17.896C205.789 17.176 205.453 16.168 204.877 15.736C204.253 15.88 202.093 16.072 200.557 16.168L201.325 14.008C203.101 8.968 204.541 6.616 204.541 4.984C204.541 3.88 203.725 3.4 202.669 3.4C199.453 3.4 196.717 7.864 193.885 16.6ZM186.349 21.064H192.541C191.053 26.104 187.165 31.432 185.197 31.432C184.765 31.432 184.621 31.192 184.621 30.376C184.621 29.656 185.053 26.344 186.349 21.064ZM212.205 37.432C218.445 37.432 226.461 29.8 226.461 26.248C226.461 25.48 225.789 24.712 224.637 24.664C221.901 28.84 217.677 31.624 214.413 31.624C212.541 31.624 212.109 30.424 212.109 28.264C218.685 26.776 221.037 23.656 221.037 19.624C221.037 16.264 219.213 14.68 215.901 14.68C211.245 14.68 205.341 22.072 205.341 29.32C205.341 34.504 207.501 37.432 212.205 37.432ZM215.661 21.304C215.661 22.744 215.085 24.232 212.397 24.712C212.733 21.352 214.029 19.72 214.701 19.72C215.277 19.72 215.661 20.296 215.661 21.304Z" fill="white"/>
</svg>
