<svg width="83" height="45" viewBox="0 0 83 45" fill="none" xmlns="http://www.w3.org/2000/svg">
<path d="M16.1561 29.8201C16.1637 29.9548 16.1741 30.0792 16.1873 30.1933C16.2006 30.3074 16.2007 30.4291 16.1877 30.5582C16.1954 30.6929 16.1852 30.8117 16.1572 30.9146C16.1181 31.0588 16.0359 31.158 15.9106 31.2124C15.7797 31.2874 15.6338 31.3362 15.4729 31.3588C15.3326 31.387 15.1979 31.3947 15.0688 31.3817C14.9397 31.3687 14.8648 31.3595 14.8442 31.3539C14.7207 31.3203 14.5977 30.8779 14.4751 30.0267C14.347 29.1961 14.2719 28.0483 14.2497 26.5833C14.2482 25.1239 14.3062 23.4043 14.4239 21.4246C14.5415 19.4449 14.7815 17.2995 15.1439 14.9883C14.9741 15.4507 14.7408 15.9842 14.444 16.5888C14.1733 17.1785 13.8492 17.7205 13.4718 18.2149C13.0944 18.7093 12.6673 19.1017 12.1904 19.3922C11.7398 19.6677 11.2366 19.73 10.6807 19.5791C10.2895 19.4728 9.90282 19.1467 9.52054 18.6008C9.13826 18.0549 8.78584 17.4397 8.46329 16.7552C8.16692 16.0557 7.90142 15.3647 7.66681 14.682C7.45838 13.9843 7.31184 13.425 7.22719 13.0041C7.06353 13.9323 6.90102 15.0598 6.73965 16.3866C6.59887 17.7189 6.54147 19.1513 6.56743 20.6836C6.56946 20.8389 6.57989 20.9634 6.5987 21.0569C6.64369 21.1354 6.67559 21.2215 6.6944 21.315C6.7338 21.4141 6.74981 21.5179 6.74244 21.6265C6.76125 21.72 6.7455 21.8594 6.69518 22.0447C6.62249 22.3123 6.46644 22.48 6.22701 22.5476C5.98759 22.6152 5.77523 22.6238 5.58995 22.5735C5.48701 22.5456 5.39512 22.3548 5.31429 22.0013C5.23905 21.6271 5.17867 21.1576 5.13316 20.5926C5.08765 20.0275 5.05612 19.4111 5.03857 18.7431C5.02661 18.0546 5.02215 17.3791 5.02518 16.7168C5.0488 16.06 5.08183 15.45 5.12426 14.8868C5.17229 14.303 5.24103 13.8463 5.33049 13.5169C5.47586 12.9817 5.59709 12.6167 5.69417 12.422C5.81185 12.2329 5.93613 12.1008 6.06703 12.0259L6.57862 10.1421C6.6569 9.85386 6.78766 9.65726 6.97091 9.55229C7.18034 9.43231 7.40858 9.40588 7.65564 9.47297C7.86151 9.52888 8.05074 9.76818 8.22333 10.1909C8.39592 10.6135 8.56394 11.1344 8.72738 11.7536C8.91141 12.3783 9.09455 13.047 9.27681 13.7597C9.45906 14.4724 9.6422 15.1411 9.82624 15.7658C10.0309 16.3962 10.24 16.9282 10.4538 17.3621C10.6882 17.8016 10.9494 18.0604 11.2377 18.1387C11.5053 18.2114 11.8298 18.0342 12.211 17.6072C12.5978 17.1596 13.006 16.552 13.4355 15.7844C13.8856 15.0224 14.3356 14.1388 14.7855 13.1336C15.2353 12.1283 15.6599 11.0941 16.0592 10.0309C16.0927 9.9074 16.1187 9.77078 16.1373 9.62108C16.1614 9.45079 16.1987 9.273 16.249 9.08771C16.3161 8.84066 16.4402 8.587 16.6215 8.32673C16.8233 8.07205 17.0889 7.98944 17.4183 8.0789C17.6036 8.12922 17.7337 8.21982 17.8087 8.35072C17.9042 8.4872 17.9502 8.64339 17.9467 8.81927C17.9487 8.97457 17.9274 9.13456 17.8827 9.29926C17.8641 9.44897 17.8409 9.57529 17.8129 9.67823C17.7682 9.84293 17.6721 10.1153 17.5247 10.4953C17.4035 10.8602 17.2366 11.4339 17.0241 12.2162C16.8396 12.8956 16.6758 13.7022 16.5328 14.636C16.3953 15.5493 16.2719 16.5326 16.1626 17.5861C16.0796 18.6247 16.0059 19.71 15.9416 20.842C15.9035 21.9591 15.8813 23.0584 15.875 24.1398C15.8892 25.2269 15.9072 26.2597 15.9288 27.2383C15.9766 28.2018 16.0523 29.0624 16.1561 29.8201ZM27.1152 27.524C27.1246 27.5708 27.1181 27.6354 27.0957 27.7177C27.0622 27.8412 26.9192 28.0014 26.6668 28.1981C26.5827 28.2637 26.4125 28.3612 26.1563 28.4905C25.9001 28.6199 25.5719 28.7297 25.1716 28.82C24.7713 28.9102 24.2942 28.9575 23.7404 28.9618C23.2071 28.9717 22.6008 28.8844 21.9214 28.6999C21.4479 28.5713 21.0126 28.3426 20.6156 28.0137C20.2242 27.6642 19.9094 27.2361 19.6712 26.7293C19.4387 26.2019 19.293 25.5987 19.2343 24.9195C19.1811 24.2198 19.2692 23.4479 19.4984 22.6038C19.7165 21.8009 20.0235 21.0774 20.4195 20.4333C20.8155 19.7893 21.2405 19.2415 21.6947 18.7901C22.1695 18.3443 22.6444 18.0201 23.1194 17.8175C23.5945 17.6149 24.0173 17.564 24.3879 17.6646C24.7173 17.7541 25.0271 17.9156 25.3173 18.1492C25.6338 18.3677 25.8979 18.6163 26.1096 18.8949C26.3419 19.179 26.5041 19.4773 26.5961 19.7896C26.6937 20.0814 26.7062 20.3611 26.6335 20.6288C26.5496 20.9376 26.3188 21.2176 25.9411 21.4687C25.5841 21.7254 25.1708 21.9448 24.7013 22.1267C24.2375 22.2882 23.7848 22.4084 23.3433 22.4874C22.9074 22.5459 22.5763 22.5444 22.3498 22.4829C22.2263 22.4493 22.127 22.3671 22.052 22.2362C22.0032 22.0903 22.0012 21.935 22.0459 21.7703C22.1242 21.4821 22.3092 21.2892 22.601 21.1916C22.9134 21.0996 23.2407 21.0337 23.5831 20.9941C23.9311 20.9338 24.2537 20.8446 24.5511 20.7264C24.8691 20.6138 25.0728 20.3928 25.1622 20.0634C25.1734 20.0222 25.1499 19.9053 25.0917 19.7127C25.0335 19.52 24.7779 19.3622 24.325 19.2392C24.1191 19.1833 23.8488 19.2425 23.5141 19.4169C23.1849 19.5706 22.8409 19.8198 22.482 20.1645C22.1288 20.4886 21.7943 20.9062 21.4786 21.4173C21.1685 21.9079 20.9269 22.4722 20.7535 23.1105C20.6082 23.6457 20.5694 24.1547 20.6373 24.6374C20.7257 25.1256 20.8824 25.5661 21.1074 25.9588C21.3379 26.3309 21.6367 26.6552 22.0037 26.9317C22.3708 27.2082 22.7704 27.4052 23.2028 27.5226C23.5116 27.6065 23.8578 27.6342 24.2413 27.6057C24.651 27.5622 25.0298 27.5104 25.3778 27.4501C25.7519 27.3749 26.069 27.3062 26.329 27.2442C26.6152 27.1672 26.7892 27.1371 26.8509 27.1539C26.9127 27.1706 26.9661 27.2183 27.0111 27.2968C27.0766 27.3809 27.1113 27.4567 27.1152 27.524ZM38.2618 23.9194C38.2226 24.0635 38.1273 24.1703 37.9758 24.2397C37.8299 24.2885 37.6663 24.3214 37.4848 24.3384C37.3033 24.3555 37.1246 24.3622 36.9488 24.3587C36.7785 24.3345 36.6418 24.3085 36.5389 24.2805C36.2301 24.1966 36.0298 24.1201 35.9381 24.051C35.8463 23.9819 35.7695 23.9389 35.7078 23.9222C35.1931 23.7824 34.7702 23.7117 34.439 23.7102C34.1078 23.7087 33.8244 23.7754 33.5888 23.9104C33.3738 24.0509 33.1962 24.2569 33.0562 24.5284C32.9423 24.7849 32.8323 25.1087 32.7261 25.4998C32.5471 26.1586 32.4252 26.6892 32.3601 27.0916C32.3156 27.4995 32.2804 27.8326 32.2545 28.0908C32.2492 28.3546 32.2475 28.5642 32.2496 28.7195C32.2778 28.8598 32.2751 28.9917 32.2416 29.1152C32.1968 29.2799 32.0567 29.4298 31.8211 29.5647C31.606 29.7053 31.4265 29.756 31.2824 29.7169C31.0353 29.6498 30.8676 29.3721 30.7791 28.8838C30.7168 28.3806 30.6947 27.8109 30.7127 27.1747C30.7569 26.5235 30.8189 25.8882 30.8987 25.2688C30.9785 24.6494 31.0603 24.1853 31.1442 23.8765C31.2393 23.5265 31.3596 23.2055 31.5052 22.9135C31.6565 22.6008 31.8143 22.3453 31.9787 22.1468C32.1488 21.9277 32.3151 21.7628 32.4778 21.6523C32.6404 21.5417 32.7835 21.5032 32.9071 21.5367C33.01 21.5647 33.0812 21.6282 33.1206 21.7274C33.1656 21.8059 33.1947 21.9022 33.2079 22.0163C33.2267 22.1099 33.2455 22.2034 33.2643 22.2969C33.3093 22.3755 33.373 22.4259 33.4553 22.4483C33.6406 22.4986 33.9643 22.487 34.4264 22.4136C34.8884 22.3401 35.418 22.3844 36.015 22.5466C36.5709 22.6976 36.9771 22.83 37.2335 22.9438C37.5162 23.0427 37.7773 23.1799 38.017 23.3556C38.0732 23.3929 38.1312 23.464 38.1912 23.5687C38.2774 23.6584 38.3009 23.7753 38.2618 23.9194ZM48.6071 30.8076C48.5512 31.0135 48.4616 31.2212 48.3383 31.4309C48.2207 31.62 48.1114 31.7783 48.0105 31.9056C47.9525 31.9562 47.6982 32.1192 47.2476 32.3948C46.8231 32.6553 46.3005 32.9112 45.6795 33.1626C45.0792 33.4196 44.4152 33.6261 43.6875 33.7822C42.986 33.9233 42.3471 33.9155 41.7706 33.759C41.4206 33.6639 41.0771 33.5043 40.7401 33.2802C40.4236 33.0616 40.1473 32.7765 39.9112 32.425C39.6807 32.0529 39.5184 31.6331 39.4243 31.1654C39.3509 30.7033 39.3952 30.1738 39.5573 29.5767C39.8257 28.5885 40.2336 27.7377 40.7811 27.0242C41.3286 26.3108 41.8313 25.762 42.2893 25.378C42.4949 25.1906 42.7417 25.0145 43.0297 24.8495C43.3438 24.6696 43.6393 24.5177 43.9161 24.3939C44.1984 24.2496 44.449 24.1408 44.6679 24.0676C44.9073 23.9999 45.0682 23.9773 45.1505 23.9997C45.3358 24.05 45.4865 24.1462 45.6027 24.2883C45.7394 24.4359 45.7938 24.5612 45.7659 24.6642C45.7212 24.8289 45.6306 24.959 45.4941 25.0546C45.3838 25.1352 45.2267 25.2251 45.0228 25.3245C44.8246 25.4033 44.5815 25.5252 44.2935 25.6902C44.0111 25.8345 43.6989 26.0482 43.3568 26.3311C42.6782 26.8763 42.1175 27.4756 41.6748 28.1291C41.2582 28.7676 40.9772 29.3544 40.8319 29.8897C40.6865 30.425 40.7647 30.9104 41.0664 31.3461C41.3943 31.7667 41.7744 32.0357 42.2067 32.1532C42.989 32.3656 43.7263 32.3779 44.4183 32.1901C45.131 32.0078 45.7622 31.7592 46.312 31.4443C46.8617 31.1294 47.318 30.8333 47.6807 30.556C48.0433 30.2787 48.2865 30.1568 48.41 30.1903C48.6364 30.2518 48.7022 30.4576 48.6071 30.8076ZM55.2362 23.3897C55.225 23.4309 55.1306 23.4936 54.9529 23.578C54.7753 23.6624 54.5639 23.7487 54.3189 23.8369C54.1001 23.9101 53.8738 23.9702 53.6399 24.0173C53.4061 24.0643 53.2274 24.071 53.1039 24.0375C53.0215 24.0151 52.9083 23.9844 52.7642 23.9452C52.6463 23.8911 52.5236 23.8136 52.3963 23.7127C52.2895 23.6174 52.1987 23.5043 52.1237 23.3734C52.0543 23.2219 52.0448 23.0535 52.0951 22.8682C52.1734 22.58 52.349 22.3403 52.622 22.1492C52.9005 21.9374 53.2045 21.8763 53.5339 21.9658C53.5957 21.9825 53.7211 22.0498 53.9102 22.1674C54.1255 22.2701 54.3352 22.3934 54.5393 22.5372C54.7434 22.6811 54.9138 22.8268 55.0505 22.9745C55.2079 23.1278 55.2698 23.2662 55.2362 23.3897ZM53.1186 35.2161C53.0795 35.3602 52.9327 35.453 52.6783 35.4944C52.4445 35.5414 52.2761 35.551 52.1731 35.523C51.9673 35.4671 51.8183 35.283 51.7263 34.9706C51.6343 34.6582 51.5741 34.3103 51.5456 33.9267C51.5171 33.5432 51.5036 33.1859 51.5051 32.8547C51.5122 32.5029 51.512 32.2597 51.5044 32.125C51.4985 31.9023 51.4833 31.6329 51.4586 31.3167C51.4339 31.0005 51.4065 30.6946 51.3762 30.399C51.3666 30.109 51.3588 29.8527 51.3529 29.6301C51.3471 29.4074 51.347 29.2858 51.3526 29.2652C51.4308 28.977 51.555 28.7233 51.725 28.5042C51.9156 28.2907 52.0933 28.2063 52.258 28.2511C52.4433 28.3014 52.5997 28.4986 52.7273 28.8428C52.8549 29.1869 52.9499 29.6106 53.0122 30.1138C53.1006 30.6021 53.1545 31.1362 53.1738 31.7162C53.1988 32.2756 53.2087 32.8089 53.2036 33.3159C53.2041 33.8024 53.1878 34.229 53.1545 34.5958C53.1474 34.9476 53.1354 35.1543 53.1186 35.2161ZM74.586 27.882C74.5356 28.0673 74.334 28.4436 73.9809 29.0109C73.6279 29.5782 73.2347 30.212 72.8014 30.9122C72.3942 31.5975 72.0002 32.2752 71.6192 32.9455C71.2588 33.6213 71.0227 34.1651 70.9109 34.5769C70.7935 35.0092 70.7162 35.3751 70.6791 35.6745C70.6476 35.9533 70.6273 36.191 70.6181 36.3874C70.6295 36.5895 70.6363 36.7682 70.6383 36.9235C70.646 37.0582 70.6246 37.2182 70.5743 37.4035C70.4625 37.8152 70.2213 37.9708 69.8507 37.8701C69.7889 37.8533 69.7383 37.7954 69.6989 37.6963C69.4249 36.9145 69.3231 36.1905 69.3935 35.5243C69.4845 34.8637 69.5775 34.3584 69.6726 34.0084C69.79 33.5761 70.0027 33.037 70.3107 32.3912C70.6244 31.7247 70.9772 31.0358 71.3694 30.3244C71.7672 29.5924 72.1827 28.8763 72.616 28.176C73.0756 27.4608 73.4968 26.8457 73.8798 26.3307C73.9322 26.3007 73.9949 26.2736 74.0678 26.2492C74.1407 26.2247 74.2287 26.2265 74.3316 26.2545C74.4757 26.2936 74.5722 26.3861 74.621 26.532C74.6754 26.6573 74.7008 26.8079 74.6973 26.9838C74.6993 27.1391 74.6882 27.3019 74.6641 27.4722C74.64 27.6425 74.6139 27.7791 74.586 27.882ZM71.8394 42.0246C71.7779 42.251 71.6415 42.4682 71.4303 42.6761C71.2453 42.869 71.0498 42.9375 70.844 42.8816C70.5763 42.8089 70.3553 42.6052 70.181 42.2705C70.0272 41.9414 69.9978 41.6018 70.0929 41.2518C70.1264 41.1283 70.1889 40.9795 70.2804 40.8054C70.3981 40.6162 70.5599 40.5497 70.7657 40.6056C70.8481 40.6279 70.9585 40.669 71.0971 40.7287C71.2356 40.7884 71.3657 40.879 71.4875 41.0005C71.6354 41.107 71.7413 41.2463 71.8051 41.4184C71.8894 41.596 71.9009 41.7981 71.8394 42.0246Z" fill="black"/>
</svg>
