<svg width="208" height="40" viewBox="0 0 208 40" fill="none" xmlns="http://www.w3.org/2000/svg">
<rect x="168" width="40" height="40" rx="4" fill="#F9F9F9"/>
<path d="M200.828 11.8563C200.068 10.5043 199.243 10.2557 197.564 10.1611C195.886 10.0473 191.668 10 188.013 10C184.351 10 180.131 10.0473 178.455 10.1594C176.779 10.2557 175.953 10.5026 175.186 11.8563C174.403 13.2064 174 15.532 174 19.6263C174 19.6298 174 19.6316 174 19.6316C174 19.6351 174 19.6368 174 19.6368V19.6403C174 23.7171 174.403 26.0602 175.186 27.3964C175.953 28.7483 176.777 28.9935 178.453 29.1073C180.131 29.2054 184.351 29.2632 188.013 29.2632C191.668 29.2632 195.886 29.2054 197.566 29.1091C199.245 28.9952 200.07 28.7501 200.83 27.3981C201.62 26.062 202.019 23.7189 202.019 19.6421C202.019 19.6421 202.019 19.6368 202.019 19.6333C202.019 19.6333 202.019 19.6298 202.019 19.6281C202.019 15.532 201.62 13.2064 200.828 11.8563ZM184.507 24.8852V14.378L193.263 19.6316L184.507 24.8852Z" fill="#222222"/>
<rect x="112" width="40" height="40" rx="4" fill="#F9F9F9"/>
<path d="M147.251 10.9098C146.126 11.4033 144.928 11.7304 143.678 11.8892C144.963 11.1215 145.945 9.91528 146.406 8.46133C145.207 9.17602 143.884 9.68083 142.473 9.96255C141.335 8.75061 139.713 8 137.943 8C134.51 8 131.746 10.7869 131.746 14.2034C131.746 14.695 131.787 15.1676 131.889 15.6176C126.733 15.3662 122.171 12.895 119.106 9.13064C118.571 10.059 118.257 11.1215 118.257 12.2654C118.257 14.4133 119.363 16.3172 121.012 17.4195C120.016 17.4006 119.038 17.1113 118.21 16.6556C118.21 16.6745 118.21 16.6991 118.21 16.7237C118.21 19.7375 120.36 22.2408 123.179 22.8174C122.674 22.9554 122.124 23.0216 121.553 23.0216C121.156 23.0216 120.755 22.9989 120.379 22.9157C121.182 25.3718 123.462 27.1774 126.174 27.236C124.064 28.8866 121.385 29.8811 118.484 29.8811C117.976 29.8811 117.488 29.8584 117 29.796C119.747 31.5676 123.003 32.5791 126.514 32.5791C137.926 32.5791 144.166 23.1256 144.166 14.9313C144.166 14.6572 144.156 14.3925 144.143 14.1297C145.374 13.2561 146.408 12.1652 147.251 10.9098Z" fill="#222222"/>
<path d="M91 0H61C58.2425 0 56 2.2425 56 5V35C56 37.7575 58.2425 40 61 40H76V26.25H71V20H76V15C76 10.8575 79.3575 7.5 83.5 7.5H88.5V13.75H86C84.62 13.75 83.5 13.62 83.5 15V20H89.75L87.25 26.25H83.5V40H91C93.7575 40 96 37.7575 96 35V5C96 2.2425 93.7575 0 91 0Z" fill="white"/>
<rect width="40" height="40" rx="4" fill="white"/>
<path d="M24.875 7H15.125C10.6384 7 7 10.6384 7 15.125V24.875C7 29.3616 10.6384 33 15.125 33H24.875C29.3616 33 33 29.3616 33 24.875V15.125C33 10.6384 29.3616 7 24.875 7ZM30.5625 24.875C30.5625 28.0112 28.0112 30.5625 24.875 30.5625H15.125C11.9887 30.5625 9.4375 28.0112 9.4375 24.875V15.125C9.4375 11.9887 11.9887 9.4375 15.125 9.4375H24.875C28.0112 9.4375 30.5625 11.9887 30.5625 15.125V24.875Z" fill="#222222"/>
<path d="M20 13.5C16.4104 13.5 13.5 16.4104 13.5 20C13.5 23.5896 16.4104 26.5 20 26.5C23.5896 26.5 26.5 23.5896 26.5 20C26.5 16.4104 23.5896 13.5 20 13.5ZM20 24.0625C17.7607 24.0625 15.9375 22.2392 15.9375 20C15.9375 17.7591 17.7607 15.9375 20 15.9375C22.2392 15.9375 24.0625 17.7591 24.0625 20C24.0625 22.2392 22.2392 24.0625 20 24.0625Z" fill="#222222"/>
<path d="M26.9872 13.8797C27.4656 13.8797 27.8533 13.4919 27.8533 13.0136C27.8533 12.5352 27.4656 12.1475 26.9872 12.1475C26.5089 12.1475 26.1211 12.5352 26.1211 13.0136C26.1211 13.4919 26.5089 13.8797 26.9872 13.8797Z" fill="#222222"/>
</svg>
