<svg width="44" height="60" viewBox="0 0 44 60" fill="none" xmlns="http://www.w3.org/2000/svg">
<path d="M19.5767 19.9197C19.4135 20.3993 19.1832 20.9992 19.1304 21.5088C19.0891 21.9072 19.0215 22.3835 18.8926 22.7624C18.654 23.4637 18.3121 24.0691 17.9957 24.7357C17.7337 25.2874 17.4305 25.8123 17.059 26.2864C16.6857 26.7628 16.3181 27.2904 15.9813 27.797C15.6714 28.2631 15.2931 28.6875 14.9353 29.1218C14.0786 30.1615 13.1463 31.1399 12.1821 32.0812C11.3036 32.9388 10.4403 33.8239 9.46789 34.5793C8.13102 35.6178 6.97746 36.7994 5.92765 38.1256C4.34061 40.1305 3.0647 42.7167 3.3253 45.3498" stroke="black" stroke-width="0.5" stroke-linecap="round" stroke-linejoin="round"/>
<path d="M3.26821 45.3776C3.33164 45.5515 3.3817 45.8151 3.48117 45.9692C3.54434 46.0671 3.63064 46.2098 3.6776 46.3166C3.82635 46.6552 4.05865 46.9213 4.22518 47.2502C4.47521 47.7441 4.75838 48.1659 5.08564 48.6127C5.38472 49.0211 5.75809 49.2486 6.13942 49.5613C6.45048 49.8163 6.81284 49.9818 7.19019 50.1102C7.61904 50.2561 8.06974 50.468 8.51881 50.5361C9.49658 50.6842 10.4283 50.7128 11.4085 50.6121C12.0486 50.5464 12.6842 50.3616 13.2998 50.1781C14.0156 49.9647 14.6501 49.5762 15.3088 49.2439C16.4874 48.6495 17.6269 47.7112 18.5753 46.8027C19.1322 46.2692 19.7584 45.7672 20.3448 45.2626C20.9242 44.7639 21.4717 44.2458 22.0076 43.7046C22.5245 43.1826 23.1004 42.7206 23.6128 42.1926C24.1425 41.6467 24.7725 41.0893 25.4018 40.6645C25.9632 40.2854 26.4811 39.8525 27.0295 39.4564C27.5112 39.1083 28.0808 38.8959 28.5929 38.5987C29.2201 38.2348 29.8801 37.9184 30.551 37.6446C31.0609 37.4366 31.5294 37.0942 31.999 36.8106C33.0118 36.1988 33.7927 35.4482 34.4782 34.4869C34.6152 34.2947 34.6741 33.942 34.749 33.7217C34.8465 33.4353 34.9853 33.1662 35.0816 32.8831C35.2053 32.5196 35.3684 32.1788 35.4917 31.8165C35.5471 31.6536 35.6026 31.4907 35.658 31.3277C35.7332 31.1069 35.729 30.8964 35.7877 30.677C35.8405 30.4797 35.8125 30.3003 35.8376 30.0988C35.8635 29.8908 35.8966 29.5899 35.8475 29.3838C35.7614 29.0226 35.7971 28.6042 35.7464 28.2324C35.6364 27.427 35.2315 26.6687 35.0326 25.8841C34.8377 25.116 34.9465 24.3418 34.9514 23.5548" stroke="black" stroke-width="0.5" stroke-linecap="round" stroke-linejoin="round"/>
<path d="M19.5138 20.2504C19.9805 18.9636 21.2451 18.6561 22.4032 18.3801C22.9748 18.2439 23.6636 18.3426 24.2318 18.4465C24.7994 18.5503 25.3937 18.8217 25.9363 19.016C27.1355 19.4454 28.2865 20.236 29.5751 20.3118C30.2535 20.3518 30.9523 20.4144 31.64 20.4848C32.0397 20.5257 32.4557 20.5134 32.8514 20.5771C33.171 20.6286 33.4891 20.7227 33.8077 20.7872C34.1396 20.8543 34.452 20.9697 34.773 21.0789C34.9376 21.1349 34.9709 21.2696 35.0964 21.3305C35.2808 21.4201 35.2101 21.7966 35.2746 21.947C35.4411 22.3355 34.8425 22.8538 34.9589 23.2293C34.9711 23.2684 34.9541 23.5432 34.941 23.5902C34.9118 23.6947 34.9577 23.7779 34.9721 23.884C35.0051 24.1251 34.9196 24.3858 34.9533 24.6327C34.9775 24.8094 34.9104 25.0621 34.9889 25.2217C35.0681 25.3826 35.0837 25.6277 35.0826 25.8094" stroke="black" stroke-width="0.5" stroke-linecap="round" stroke-linejoin="round"/>
<path d="M20.2036 19.0479C20.0339 18.8144 19.7926 18.5302 19.5286 18.3962C19.2321 18.2456 19.0618 17.9488 18.8018 17.7582C18.5338 17.5618 18.2639 17.0287 18.1929 16.712C18.1419 16.4842 18.165 16.2241 18.155 15.9911C18.1467 15.7969 18.1657 15.4801 18.2237 15.2961C18.5321 14.3175 18.8808 13.365 19.2104 12.3964C19.4016 11.8344 19.7466 11.3157 20.0148 10.7875C20.2393 10.3453 20.4061 9.86678 20.5619 9.39527C21.0675 7.86576 21.3038 6.26075 21.8609 4.74546C22.2086 3.79992 23.2524 3.39833 24.1829 3.46946C25.5323 3.5726 27.0001 3.84599 28.2368 4.42408C29.7931 5.15163 31.3968 5.86105 33.086 6.21571C34.8375 6.58346 36.702 6.61496 38.3858 7.25345C38.4821 7.28995 38.6532 7.38008 38.7189 7.46118C38.8223 7.58878 38.9936 7.61373 39.0774 7.74835C39.1472 7.8603 39.2729 7.95328 39.3581 8.05623C39.463 8.18305 39.583 8.32278 39.6625 8.46394C40.0908 9.2245 40.2325 9.98528 40.1327 10.8578C40.0793 11.3241 40.0544 11.7504 39.8998 12.2049C39.7724 12.5793 39.645 12.9538 39.5176 13.3282C39.3425 13.8428 39.1674 14.3574 38.9922 14.872C38.9046 15.1295 38.892 15.3381 38.91 15.607C38.9326 15.946 38.922 16.3213 38.9992 16.6547C39.1322 17.229 39.3252 17.7646 39.367 18.3556C39.4155 19.042 39.3724 19.6684 39.2212 20.3328C39.1109 20.8175 38.9364 21.325 38.5864 21.69C38.3491 21.9373 37.9888 22.091 37.6663 22.2054C37.1885 22.375 36.6321 22.4595 36.1314 22.5091C35.9185 22.5301 35.6748 22.5189 35.4701 22.4492" stroke="black" stroke-width="0.5" stroke-linecap="round" stroke-linejoin="round"/>
<path d="M22.5911 7.73021C22.4271 8.21241 22.2246 8.66871 22.0611 9.14924C21.8961 9.63415 22.1449 10.141 22.2105 10.6212C22.3206 11.4278 22.0587 12.3029 21.8796 13.0807C21.7608 13.5969 21.5995 14.112 21.4289 14.6133C21.4008 14.696 21.3056 14.8608 21.3217 14.9439C21.3387 15.0319 21.4591 14.8284 21.5237 14.7661C21.8683 14.4343 22.2338 14.1322 22.5956 13.8199" stroke="black" stroke-width="0.5" stroke-linecap="round" stroke-linejoin="round"/>
<path d="M25.4199 9.54262C25.1887 9.93737 24.9271 10.3867 24.845 10.8468C24.7821 11.1994 24.7981 11.5844 24.7715 11.9413C24.7525 12.1961 24.716 12.4501 24.7189 12.7047C24.7233 13.0997 24.5759 13.4846 24.5616 13.8757C24.5503 14.187 24.4708 14.4663 24.4901 14.7795C24.5097 15.0986 24.5969 15.4289 24.4912 15.7395" stroke="black" stroke-width="0.5" stroke-linecap="round" stroke-linejoin="round"/>
<path d="M28.5552 9.75977C28.559 10.102 28.6396 10.4357 28.6336 10.7776C28.6295 11.0097 28.5915 11.2274 28.5674 11.4577C28.5181 11.9279 28.2606 12.4287 28.1088 12.8748C27.9302 13.3995 27.6497 13.9707 27.5742 14.523C27.5078 15.008 27.4207 15.4911 27.3626 15.977C27.3198 16.3348 27.4024 16.6791 27.4502 17.0294" stroke="black" stroke-width="0.5" stroke-linecap="round" stroke-linejoin="round"/>
<path d="M32.4844 11.8047C32.1143 12.8924 31.8314 14.001 31.4607 15.0904C31.3176 15.511 31.0695 16.0009 31.0567 16.4474C31.0481 16.747 30.9266 17.5571 31.2182 17.7452" stroke="black" stroke-width="0.5" stroke-linecap="round" stroke-linejoin="round"/>
<path d="M35.4448 12.9531C35.3679 13.5219 35.5112 14.1073 35.5456 14.6759C35.5718 15.1096 35.5321 15.5906 35.4509 16.0176C35.3358 16.6223 35.2744 17.1988 35.0757 17.783C34.9582 18.128 34.7197 18.4851 34.5043 18.7685" stroke="black" stroke-width="0.5" stroke-linecap="round" stroke-linejoin="round"/>
<path d="M23.2747 4.75477C23.2716 5.24163 23.2501 5.65104 23.5381 6.061C23.7226 6.32364 23.863 6.53601 24.1275 6.71775C24.5533 7.01043 25.0331 7.14375 25.5082 7.34489C27.3535 8.126 29.2887 8.73613 31.1864 9.38187C32.6949 9.89515 34.2465 9.87108 35.8121 10.0119C36.3358 10.0591 36.9176 10.0549 37.4282 9.91683C38.066 9.74434 38.6692 9.72159 38.9031 9.03431" stroke="black" stroke-width="0.5" stroke-linecap="round" stroke-linejoin="round"/>
<path d="M23.1592 5.09358C23.3034 5.39787 23.4474 5.75395 23.6574 6.01821C23.8671 6.28214 24.1298 6.48258 24.35 6.72584C24.6561 7.06395 26.0212 7.35907 25.9289 6.55513C25.8991 6.29617 26.0099 6.60457 26.0158 6.7158C26.0244 6.87917 26.0466 7.08566 26.0862 7.24844C26.208 7.74874 27.0262 7.96682 27.4404 8.10776C27.6627 8.18339 27.8175 8.15297 28.0327 8.04708C28.285 7.92285 28.5878 7.72548 28.68 7.45455C28.7609 7.21684 28.8671 6.99381 28.8383 6.7428C28.8325 6.6926 28.8774 6.5466 28.88 6.59706C28.8901 6.78852 28.9523 6.99626 28.9807 7.18718C29.0296 7.51563 28.8636 7.92286 29.0081 8.21643C29.1995 8.60531 29.6945 8.64415 30.0576 8.84621C30.2833 8.97183 30.571 9.0314 30.8157 9.11468C31.0136 9.18201 31.2051 9.25528 31.4177 9.24873C31.5828 9.24364 31.7527 9.32933 31.9066 9.2761C32.1248 9.20061 32.4863 9.29781 32.6599 9.05787C32.7888 8.87982 32.9893 8.77098 33.1299 8.5859C33.2368 8.44517 33.3466 8.30347 33.4043 8.13391C33.4104 8.11608 33.4556 7.95732 33.4729 7.96321C33.5882 8.00246 33.5055 8.40782 33.5143 8.5043C33.5309 8.68861 33.4384 8.99273 33.5785 9.14758C33.7388 9.32462 34.0282 9.45265 34.2489 9.52774C34.6139 9.65196 34.9525 9.7065 35.3351 9.67188C35.4264 9.66362 35.5044 9.7384 35.6001 9.72533C35.7041 9.71114 35.8182 9.68841 35.922 9.71949C36.1749 9.79522 36.4826 9.78529 36.7473 9.79056C36.9668 9.79494 37.1745 9.78892 37.3933 9.79537C37.5622 9.80035 37.6873 9.70405 37.836 9.67332C38.1831 9.6016 38.5276 9.50513 38.7462 9.21744" stroke="black" stroke-width="0.5" stroke-linecap="round" stroke-linejoin="round"/>
<path d="M35.6005 31.0827C34.8123 30.6528 34.0215 30.3567 33.1719 30.0676C32.9015 29.9756 32.5459 29.8293 32.2587 29.8774C31.9836 29.9235 31.6069 29.9802 31.3358 29.962C30.6807 29.9178 29.9954 30.2688 29.4023 30.4892C28.7001 30.7501 27.915 31.0418 27.418 31.6126C27.2453 31.8111 27.1664 32.0783 27.0058 32.2694C26.7319 32.5954 26.5235 33.1005 26.3764 33.5026C26.2443 33.8638 26.1484 34.2118 26.1216 34.5984C26.0923 35.0207 26.124 35.4554 26.0893 35.8722C26.0398 36.4671 26.3098 37.1083 26.447 37.6719C26.5528 38.1066 26.6801 38.9023 27.1722 39.0697" stroke="black" stroke-width="0.5" stroke-linecap="round" stroke-linejoin="round"/>
<path d="M4.41656 40.3405C4.5642 39.9066 4.7761 39.7234 5.22277 39.5739C5.65981 39.4275 6.06589 39.354 6.5326 39.3615C7.4867 39.3767 8.37392 39.6553 9.26882 40.0119C9.44745 40.0831 9.57231 40.2105 9.73721 40.2998C9.99213 40.4378 10.2739 40.5695 10.5148 40.7269C10.7072 40.8527 10.9135 41.0011 11.0741 41.1637C11.2664 41.3584 11.5868 41.4635 11.8003 41.6494C12.3827 42.1564 13.2092 42.4438 13.7174 42.9966C14.7059 44.0716 15.4482 45.2199 15.7952 46.6454C15.8451 46.8503 15.8364 47.0763 15.8446 47.2862C15.854 47.5268 15.8619 47.7717 15.818 48.0192C15.7457 48.4274 15.6759 48.7086 15.542 49.1019" stroke="black" stroke-width="0.5" stroke-linecap="round" stroke-linejoin="round"/>
<path d="M18.7982 20.5573C18.6273 21.0597 18.3861 21.688 18.3307 22.2217C18.2875 22.6389 18.2167 23.1379 18.0817 23.5347C17.8318 24.2692 17.4737 24.9033 17.1423 25.6014C16.8679 26.1793 16.5503 26.7291 16.1612 27.2256C15.7703 27.7245 15.3852 28.2771 15.0325 28.8078C14.7079 29.2959 14.3118 29.7404 13.937 30.1953C13.0397 31.2842 12.0632 32.3089 11.0534 33.2948C10.1333 34.1931 9.22902 35.1201 8.2106 35.9112C6.81042 36.999 5.60222 38.2365 4.50269 39.6255C2.84049 41.7254 1.50414 44.4341 1.77708 47.1919" stroke="black" stroke-width="0.5" stroke-linecap="round" stroke-linejoin="round"/>
<path d="M1.71771 47.2206C1.78415 47.4027 1.83658 47.6788 1.94076 47.8402C2.00692 47.9427 2.09731 48.0921 2.14649 48.204C2.30229 48.5586 2.54559 48.8373 2.72001 49.1818C2.98187 49.6991 3.27846 50.1409 3.62122 50.6089C3.93446 51.0366 4.32552 51.2749 4.7249 51.6023C5.0507 51.8694 5.43022 52.0428 5.82544 52.1773C6.2746 52.3301 6.74665 52.552 7.217 52.6233C8.24107 52.7785 9.21691 52.8084 10.2436 52.703C10.914 52.6341 11.5797 52.4406 12.2244 52.2484C12.9741 52.0248 13.6387 51.618 14.3286 51.27C15.563 50.6474 16.7564 49.6646 17.7498 48.7131C18.333 48.1544 18.9889 47.6286 19.603 47.1001C20.21 46.5778 20.7834 46.0351 21.3446 45.4683C21.886 44.9215 22.4892 44.4377 23.0259 43.8847C23.5806 43.3129 24.2405 42.7291 24.8996 42.2842C25.4876 41.8872 26.03 41.4337 26.6043 41.0188C27.1089 40.6543 27.7055 40.4318 28.2419 40.1206C28.8987 39.7394 29.59 39.408 30.2927 39.1213C30.8268 38.9034 31.3175 38.5449 31.8092 38.2478C32.8701 37.607 33.688 36.8208 34.4059 35.814C34.5494 35.6128 34.611 35.2434 34.6896 35.0126C34.7916 34.7126 34.937 34.4307 35.0379 34.1342C35.1674 33.7535 35.3383 33.3966 35.4674 33.0172C35.5254 32.8465 35.5835 32.6759 35.6416 32.5052C35.7203 32.2739 35.7159 32.0534 35.7774 31.8237C35.8327 31.617 35.8033 31.4292 35.8296 31.2181C35.8568 31.0002 35.8915 30.685 35.8401 30.4692C35.7499 30.0909 35.7873 29.6527 35.7341 29.2633C35.6189 28.4197 35.1949 27.6255 34.9865 26.8038C34.7824 25.9993 34.8964 25.1885 34.9015 24.3641" stroke="black" stroke-width="0.5" stroke-linecap="round" stroke-linejoin="round"/>
<path d="M18.732 20.9044C19.2209 19.5567 20.5453 19.2346 21.7583 18.9456C22.3569 18.8029 23.0783 18.9062 23.6734 19.015C24.2679 19.1238 24.8904 19.408 25.4587 19.6115C26.7147 20.0613 27.9202 20.8893 29.2698 20.9687C29.9804 21.0106 30.7123 21.0762 31.4325 21.1499C31.8512 21.1928 32.2869 21.1798 32.7013 21.2466C33.0361 21.3006 33.3692 21.3991 33.7029 21.4666C34.0505 21.5369 34.3777 21.6578 34.7139 21.7722C34.8863 21.8308 34.9212 21.9718 35.0526 22.0357C35.2457 22.1296 35.1718 22.5238 35.2393 22.6814C35.4137 23.0883 34.7867 23.6311 34.9087 24.0244C34.9214 24.0654 34.9036 24.3532 34.8899 24.4024C34.8593 24.5119 34.9073 24.599 34.9225 24.7101C34.957 24.9627 34.8675 25.2357 34.9028 25.4943C34.9281 25.6793 34.8578 25.944 34.9401 26.1111C35.023 26.2797 35.0394 26.5364 35.0382 26.7267" stroke="black" stroke-width="0.5" stroke-linecap="round" stroke-linejoin="round"/>
<path d="M19.455 19.6438C19.2773 19.3991 19.0246 19.1015 18.7481 18.9611C18.4376 18.8034 18.2592 18.4925 17.9869 18.2929C17.7062 18.0872 17.4235 17.5289 17.3492 17.1972C17.2957 16.9586 17.3199 16.6861 17.3095 16.4422C17.3007 16.2388 17.3207 15.907 17.3814 15.7142C17.7044 14.6893 18.0696 13.6917 18.4148 12.6772C18.6151 12.0886 18.9764 11.5453 19.2573 10.9921C19.4925 10.529 19.6672 10.0278 19.8304 9.53392C20.3598 7.93197 20.6073 6.25095 21.1909 4.66389C21.5551 3.67356 22.6482 3.25295 23.6229 3.32745C25.0362 3.43548 26.5735 3.72182 27.8687 4.32729C29.4987 5.08929 31.1784 5.83231 32.9476 6.20377C34.7821 6.58893 36.7349 6.62193 38.4984 7.29066C38.5993 7.32889 38.7785 7.42328 38.8473 7.50823C38.9556 7.64187 39.135 7.668 39.2228 7.809C39.2958 7.92625 39.4276 8.02364 39.5168 8.13146C39.6266 8.26429 39.7523 8.41064 39.8356 8.55849C40.2842 9.35506 40.4326 10.1519 40.328 11.0658C40.2721 11.5541 40.2461 12.0006 40.0841 12.4767C39.9507 12.8688 39.8172 13.2609 39.6838 13.6531C39.5004 14.1921 39.317 14.7311 39.1336 15.2701C39.0418 15.5397 39.0286 15.7583 39.0474 16.0399C39.0712 16.3949 39.06 16.788 39.1409 17.1372C39.2801 17.7387 39.4823 18.2996 39.526 18.9187C39.5768 19.6375 39.5317 20.2936 39.3734 20.9895C39.2579 21.4971 39.0751 22.0287 38.7085 22.4109C38.46 22.67 38.0826 22.8309 37.7449 22.9508C37.2445 23.1284 36.6616 23.2169 36.1373 23.2688C35.9143 23.2909 35.659 23.2791 35.4446 23.2061" stroke="black" stroke-width="0.5" stroke-linecap="round" stroke-linejoin="round"/>
<path d="M21.9554 7.79046C21.7836 8.2955 21.5715 8.77342 21.4003 9.2767C21.2275 9.78457 21.4881 10.3154 21.5568 10.8183C21.6721 11.6631 21.3978 12.5797 21.2102 13.3944C21.0858 13.935 20.9168 14.4745 20.7382 14.9995C20.7087 15.0862 20.609 15.2587 20.6259 15.3458C20.6437 15.438 20.7698 15.2248 20.8375 15.1596C21.1984 14.812 21.5812 14.4956 21.9601 14.1686" stroke="black" stroke-width="0.5" stroke-linecap="round" stroke-linejoin="round"/>
<path d="M24.9182 9.68843C24.6761 10.1019 24.4021 10.5724 24.3161 11.0543C24.2502 11.4236 24.2669 11.8269 24.2391 12.2007C24.2192 12.4676 24.1809 12.7336 24.184 13.0003C24.1886 13.414 24.0343 13.8171 24.0193 14.2267C24.0074 14.5528 23.9242 14.8453 23.9443 15.1734C23.9649 15.5075 24.0562 15.8535 23.9455 16.1788" stroke="black" stroke-width="0.5" stroke-linecap="round" stroke-linejoin="round"/>
<path d="M28.2021 9.91602C28.2062 10.2744 28.2906 10.6239 28.2843 10.982C28.28 11.2251 28.2402 11.4532 28.2149 11.6944C28.1633 12.1868 27.8936 12.7114 27.7346 13.1786C27.5476 13.7282 27.2538 14.3264 27.1747 14.9049C27.1052 15.4128 27.0139 15.9188 26.9531 16.4277C26.9083 16.8024 26.9948 17.163 27.0449 17.5299" stroke="black" stroke-width="0.5" stroke-linecap="round" stroke-linejoin="round"/>
<path d="M32.3174 12.0586C31.9298 13.1978 31.6335 14.359 31.2453 15.4999C31.0954 15.9405 30.8355 16.4536 30.8221 16.9212C30.8131 17.235 30.6859 18.0834 30.9912 18.2804" stroke="black" stroke-width="0.5" stroke-linecap="round" stroke-linejoin="round"/>
<path d="M35.4175 13.2617C35.337 13.8574 35.487 14.4705 35.523 15.0661C35.5504 15.5203 35.5089 16.0242 35.4238 16.4713C35.3033 17.1047 35.239 17.7084 35.0308 18.3203C34.9079 18.6817 34.658 19.0557 34.4325 19.3525" stroke="black" stroke-width="0.5" stroke-linecap="round" stroke-linejoin="round"/>
<path d="M22.6703 4.67384C22.6671 5.18377 22.6446 5.61256 22.9463 6.04194C23.1395 6.31702 23.2865 6.53944 23.5635 6.72979C24.0095 7.03634 24.512 7.17597 25.0096 7.38663C26.9423 8.20475 28.9692 8.84377 30.9568 9.52009C32.5367 10.0577 34.1618 10.0325 35.8016 10.18C36.35 10.2294 36.9594 10.225 37.4942 10.0804C38.1623 9.89973 38.794 9.8759 39.0389 9.15607" stroke="black" stroke-width="0.5" stroke-linecap="round" stroke-linejoin="round"/>
<path d="M22.5499 5.0294C22.7009 5.34811 22.8517 5.72105 23.0717 5.99783C23.2913 6.27426 23.5665 6.48419 23.7971 6.73897C24.1177 7.0931 25.5475 7.40219 25.4507 6.56018C25.4195 6.28896 25.5356 6.61196 25.5417 6.72846C25.5507 6.89957 25.574 7.11584 25.6155 7.28632C25.7431 7.81032 26.6001 8.03873 27.0339 8.18634C27.2666 8.26555 27.4288 8.2337 27.6541 8.12279C27.9185 7.99267 28.2356 7.78596 28.3322 7.5022C28.4169 7.25323 28.5281 7.01964 28.4979 6.75674C28.4919 6.70416 28.5389 6.55124 28.5416 6.60409C28.5522 6.80462 28.6174 7.0222 28.6471 7.22217C28.6983 7.56617 28.5244 7.99269 28.6758 8.30016C28.8763 8.70746 29.3947 8.74814 29.775 8.95977C30.0114 9.09134 30.3127 9.15373 30.569 9.24095C30.7763 9.31148 30.9768 9.38821 31.1995 9.38135C31.3724 9.37602 31.5504 9.46577 31.7116 9.41002C31.9401 9.33095 32.3187 9.43276 32.5006 9.18145C32.6355 8.99497 32.8455 8.88098 32.9928 8.68713C33.1048 8.53973 33.2198 8.39133 33.2802 8.21373C33.2866 8.19506 33.3339 8.02878 33.352 8.03495C33.4729 8.07606 33.3862 8.50062 33.3954 8.60167C33.4128 8.79471 33.3159 9.11322 33.4627 9.27541C33.6306 9.46084 33.9336 9.59493 34.1648 9.67358C34.5471 9.80368 34.9017 9.86081 35.3025 9.82454C35.398 9.81589 35.4797 9.89422 35.58 9.88053C35.689 9.86566 35.8084 9.84186 35.9171 9.87441C36.182 9.95373 36.5043 9.94332 36.7816 9.94885C37.0115 9.95343 37.229 9.94713 37.4581 9.95388C37.635 9.9591 37.766 9.85824 37.9218 9.82605C38.2853 9.75094 38.6462 9.6499 38.8751 9.34858" stroke="black" stroke-width="0.5" stroke-linecap="round" stroke-linejoin="round"/>
<path d="M35.5804 32.2493C34.7549 31.799 33.9266 31.4888 33.0368 31.1861C32.7536 31.0897 32.3811 30.9365 32.0803 30.9869C31.7922 31.0352 31.3976 31.0946 31.1137 31.0754C30.4276 31.0291 29.7099 31.3968 29.0887 31.6276C28.3532 31.9009 27.5309 32.2064 27.0104 32.8043C26.8295 33.0121 26.7468 33.292 26.5786 33.4922C26.2917 33.8336 26.0735 34.3626 25.9194 34.7838C25.7811 35.162 25.6806 35.5265 25.6525 35.9314C25.6218 36.3738 25.655 36.8291 25.6187 37.2655C25.5669 37.8886 25.8497 38.5602 25.9934 39.1506C26.1042 39.6059 26.2375 40.4392 26.7529 40.6146" stroke="black" stroke-width="0.5" stroke-linecap="round" stroke-linejoin="round"/>
<path d="M2.91939 41.9449C3.07402 41.4905 3.29596 41.2987 3.76379 41.142C4.22153 40.9888 4.64684 40.9118 5.13566 40.9196C6.13495 40.9355 7.06418 41.2274 8.00147 41.6009C8.18856 41.6754 8.31933 41.8089 8.49204 41.9024C8.75903 42.0469 9.05419 42.1848 9.30645 42.3497C9.50795 42.4815 9.72402 42.6369 9.89225 42.8072C10.0936 43.0111 10.4292 43.1212 10.6528 43.3159C11.2628 43.8469 12.1284 44.1479 12.6607 44.7268C13.696 45.8528 14.4736 47.0555 14.837 48.5485C14.8892 48.7631 14.8801 48.9998 14.8887 49.2197C14.8986 49.4717 14.9068 49.7282 14.8609 49.9874C14.7851 50.4149 14.712 50.7094 14.5718 51.1214" stroke="black" stroke-width="0.5" stroke-linecap="round" stroke-linejoin="round"/>
</svg>
